<svg xmlns="http://www.w3.org/2000/svg" xmlns:xlink="http://www.w3.org/1999/xlink" width="381" height="403" viewBox="0 0 381 403">
  <defs>
    <filter id="Rectangle_398" x="0" y="0" width="381" height="403" filterUnits="userSpaceOnUse">
      <feOffset dy="3" input="SourceAlpha"/>
      <feGaussianBlur stdDeviation="3" result="blur"/>
      <feFlood flood-opacity="0.161"/>
      <feComposite operator="in" in2="blur"/>
      <feComposite in="SourceGraphic"/>
    </filter>
    <clipPath id="clip-path">
      <rect id="Rectangle_343" data-name="Rectangle 343" width="57" height="57" transform="translate(-0.366 0.276)" fill="#1bb884" stroke="#707070" stroke-width="1"/>
    </clipPath>
  </defs>
  <g id="_1" data-name="1" transform="translate(9 6)">
    <g transform="matrix(1, 0, 0, 1, -9, -6)" filter="url(#Rectangle_398)">
      <rect id="Rectangle_398-2" data-name="Rectangle 398" width="363" height="385" rx="10" transform="translate(9 6)" fill="#fff"/>
    </g>
    <text id="Growth_is_a_future_of_value" data-name="Growth is a
future of value" transform="translate(182 270)" fill="#323232" font-size="32" font-family="Roboto-MediumItalic, Roboto" font-weight="500" font-style="italic"><tspan x="-78.844" y="0">Growth is a</tspan><tspan x="-101.664" y="38">future of value</tspan></text>
    <g id="Group_664" data-name="Group 664" transform="translate(118.51 53.868)">
      <rect id="Rectangle_344" data-name="Rectangle 344" width="126" height="127" rx="63" transform="translate(0.49 0.132)" fill="#d9fff2"/>
      <g id="Mask_Group_31" data-name="Mask Group 31" transform="translate(34.856 34.856)" clip-path="url(#clip-path)">
        <g id="statistics_2_" data-name="statistics (2)" transform="translate(0 0)">
          <path id="Path_2261" data-name="Path 2261" d="M10.462,26.736a4.988,4.988,0,0,0,3.47-1.409L18.879,27.8a4.909,4.909,0,0,0-.061.607,5.013,5.013,0,0,0,10.026,0,4.952,4.952,0,0,0-.5-2.147l6.71-6.71a4.952,4.952,0,0,0,2.147.5,5.019,5.019,0,0,0,5.013-5.013,4.938,4.938,0,0,0-.25-1.485l5.83-4.372a5.01,5.01,0,1,0-2.238-4.17A4.938,4.938,0,0,0,45.8,6.5l-5.83,4.372a4.991,4.991,0,0,0-7.285,6.317l-6.71,6.71a4.926,4.926,0,0,0-5.617.907L15.414,22.33a4.91,4.91,0,0,0,.061-.607,5.013,5.013,0,1,0-5.013,5.013Zm0,0" transform="translate(-1.996 0)" fill="#1bb884"/>
          <path id="Path_2262" data-name="Path 2262" d="M55.366,63.352H53.583V28.038a1.67,1.67,0,0,0-1.671-1.671H45.228a1.67,1.67,0,0,0-1.671,1.671V63.352H40.215V38.064a1.67,1.67,0,0,0-1.671-1.671H31.86a1.67,1.67,0,0,0-1.671,1.671V63.352H26.847V51.432a1.67,1.67,0,0,0-1.671-1.671H18.492a1.67,1.67,0,0,0-1.671,1.671v11.92H13.479v-18.6a1.67,1.67,0,0,0-1.671-1.671H5.124a1.67,1.67,0,0,0-1.671,1.671v18.6H1.671a1.671,1.671,0,0,0,0,3.342H55.366a1.671,1.671,0,0,0,0-3.342Zm0,0" transform="translate(0 -9.657)" fill="#1bb884"/>
        </g>
      </g>
    </g>
  </g>
</svg>
