<svg xmlns="http://www.w3.org/2000/svg" xmlns:xlink="http://www.w3.org/1999/xlink" width="381" height="403" viewBox="0 0 381 403">
  <defs>
    <filter id="Rectangle_401" x="0" y="0" width="381" height="403" filterUnits="userSpaceOnUse">
      <feOffset dy="3" input="SourceAlpha"/>
      <feGaussianBlur stdDeviation="3" result="blur"/>
      <feFlood flood-opacity="0.161"/>
      <feComposite operator="in" in2="blur"/>
      <feComposite in="SourceGraphic"/>
    </filter>
    <clipPath id="clip-path">
      <rect id="Rectangle_343" data-name="Rectangle 343" width="57" height="57" transform="translate(-0.366 0.174)" fill="#1bb884" stroke="#707070" stroke-width="1"/>
    </clipPath>
  </defs>
  <g id="_3" data-name="3" transform="translate(9 6.468)">
    <g transform="matrix(1, 0, 0, 1, -9, -6.47)" filter="url(#Rectangle_401)">
      <rect id="Rectangle_401-2" data-name="Rectangle 401" width="363" height="385" rx="10" transform="translate(9 6)" fill="#fff"/>
    </g>
    <text id="Mr._Market_Knows_Best" data-name="Mr. Market
Knows Best" transform="translate(182 270.532)" fill="#323232" font-size="32" font-family="Roboto-MediumItalic, Roboto" font-weight="500" font-style="italic"><tspan x="-75.547" y="0">Mr. Market</tspan><tspan x="-82.727" y="38">Knows Best</tspan></text>
    <g id="Group_667" data-name="Group 667" transform="translate(118.51 54.502)">
      <rect id="Rectangle_344" data-name="Rectangle 344" width="126" height="127" rx="63" transform="translate(0.49 0.03)" fill="#d9fff2"/>
      <g id="Mask_Group_33" data-name="Mask Group 33" transform="translate(34.856 34.856)" clip-path="url(#clip-path)">
        <g id="receptionist" transform="translate(0 4.425)">
          <path id="Path_2264" data-name="Path 2264" d="M61.692,15.364h-.983a4.917,4.917,0,0,0-4.917,4.917h-.415a4.915,4.915,0,0,0-4.5-2.95h-.983a4.918,4.918,0,0,0,4.917,4.917V25.2h-2.95l.983,6.884H22.356v-2.95h-5.9v-2.95h8.851V12.414H5.639V26.181h8.851v2.95h-5.9v2.95H4.655v3.934h2.95v23.6H58.742v-23.6h2.95V32.082H57.758l.983-6.884H56.775V20.281A4.918,4.918,0,0,0,61.692,15.364Z" transform="translate(-4.655 -11.43)" fill="#1bb884"/>
          <path id="Path_2265" data-name="Path 2265" d="M54.419,10.862H46.552A5.887,5.887,0,0,0,48.683,15.4a5.9,5.9,0,1,0,5.736-4.538Z" transform="translate(-20 -10.862)" fill="#1bb884"/>
          <path id="Path_2266" data-name="Path 2266" d="M48.1,36.412V37.4H61.871v-.983a6.878,6.878,0,0,0-5.9-6.805v5.822H54V29.607A6.878,6.878,0,0,0,48.1,36.412Z" transform="translate(-20.568 -17.728)" fill="#1bb884"/>
        </g>
      </g>
    </g>
  </g>
</svg>
