<svg xmlns="http://www.w3.org/2000/svg" xmlns:xlink="http://www.w3.org/1999/xlink" width="381" height="403" viewBox="0 0 381 403">
  <defs>
    <filter id="Rectangle_400" x="0" y="0" width="381" height="403" filterUnits="userSpaceOnUse">
      <feOffset dy="3" input="SourceAlpha"/>
      <feGaussianBlur stdDeviation="3" result="blur"/>
      <feFlood flood-opacity="0.161"/>
      <feComposite operator="in" in2="blur"/>
      <feComposite in="SourceGraphic"/>
    </filter>
    <clipPath id="clip-path">
      <rect id="Rectangle_343" data-name="Rectangle 343" width="57" height="57" transform="translate(-0.229 0.174)" fill="#1bb884" stroke="#707070" stroke-width="1"/>
    </clipPath>
  </defs>
  <g id="_4" data-name="4" transform="translate(8.863 6.468)">
    <g transform="matrix(1, 0, 0, 1, -8.86, -6.47)" filter="url(#Rectangle_400)">
      <rect id="Rectangle_400-2" data-name="Rectangle 400" width="363" height="385" rx="10" transform="translate(9 6)" fill="#fff"/>
    </g>
    <text id="Data_Never_Lies" data-name="Data Never Lies" transform="translate(182.137 295.532)" fill="#323232" font-size="32" font-family="Roboto-MediumItalic, Roboto" font-weight="500" font-style="italic"><tspan x="-110.305" y="0">Data Never Lies</tspan></text>
    <g id="Group_666" data-name="Group 666" transform="translate(118.51 54.502)">
      <rect id="Rectangle_344" data-name="Rectangle 344" width="127" height="127" rx="63.5" transform="translate(-0.373 0.03)" fill="#d9fff2"/>
      <g id="Mask_Group_34" data-name="Mask Group 34" transform="translate(34.856 34.856)" clip-path="url(#clip-path)">
        <g id="binary" transform="translate(0.111 0)">
          <path id="Path_2267" data-name="Path 2267" d="M30.736,63.633H28.508a3.9,3.9,0,0,0-3.9,3.9v8.912a3.9,3.9,0,0,0,3.9,3.9h2.228a3.9,3.9,0,0,0,3.9-3.9V67.532A3.9,3.9,0,0,0,30.736,63.633Zm.557,12.811a.558.558,0,0,1-.557.557H28.508a.558.558,0,0,1-.557-.557V67.532a.558.558,0,0,1,.557-.557h2.228a.558.558,0,0,1,.557.557Zm0,0" transform="translate(-9.013 -23.306)" fill="#1bb884"/>
          <path id="Path_2268" data-name="Path 2268" d="M8.355,77H6.684V65.3a1.671,1.671,0,0,0-1.671-1.671H1.671a1.671,1.671,0,1,0,0,3.342H3.342V77H1.671a1.671,1.671,0,1,0,0,3.342H8.355a1.671,1.671,0,1,0,0-3.342Zm0,0" transform="translate(0 -23.306)" fill="#1bb884"/>
          <path id="Path_2269" data-name="Path 2269" d="M79.955,63.633H77.727a3.9,3.9,0,0,0-3.9,3.9v8.912a3.9,3.9,0,0,0,3.9,3.9h2.228a3.9,3.9,0,0,0,3.9-3.9V67.532A3.9,3.9,0,0,0,79.955,63.633Zm.557,12.811a.558.558,0,0,1-.557.557H77.727a.558.558,0,0,1-.557-.557V67.532a.558.558,0,0,1,.557-.557h2.228a.558.558,0,0,1,.557.557Zm0,0" transform="translate(-27.04 -23.306)" fill="#1bb884"/>
          <path id="Path_2270" data-name="Path 2270" d="M57.574,77H55.9V65.3a1.671,1.671,0,0,0-1.671-1.671H50.89a1.671,1.671,0,0,0,0,3.342h1.671V77H50.89a1.671,1.671,0,0,0,0,3.342h6.684a1.671,1.671,0,1,0,0-3.342Zm0,0" transform="translate(-18.027 -23.306)" fill="#1bb884"/>
          <path id="Path_2271" data-name="Path 2271" d="M30.736,31.816H28.508a3.9,3.9,0,0,0-3.9,3.9v8.912a3.9,3.9,0,0,0,3.9,3.9h2.228a3.9,3.9,0,0,0,3.9-3.9V35.715A3.9,3.9,0,0,0,30.736,31.816Zm.557,12.811a.558.558,0,0,1-.557.557H28.508a.558.558,0,0,1-.557-.557V35.715a.558.558,0,0,1,.557-.557h2.228a.558.558,0,0,1,.557.557Zm0,0" transform="translate(-9.013 -11.653)" fill="#1bb884"/>
          <path id="Path_2272" data-name="Path 2272" d="M8.355,45.184H6.684v-11.7a1.671,1.671,0,0,0-1.671-1.671H1.671a1.671,1.671,0,1,0,0,3.342H3.342V45.184H1.671a1.671,1.671,0,1,0,0,3.342H8.355a1.671,1.671,0,1,0,0-3.342Zm0,0" transform="translate(0 -11.653)" fill="#1bb884"/>
          <path id="Path_2273" data-name="Path 2273" d="M55.346,31.816H53.118a3.9,3.9,0,0,0-3.9,3.9v8.912a3.9,3.9,0,0,0,3.9,3.9h2.228a3.9,3.9,0,0,0,3.9-3.9V35.715A3.9,3.9,0,0,0,55.346,31.816ZM55.9,44.627a.558.558,0,0,1-.557.557H53.118a.558.558,0,0,1-.557-.557V35.715a.558.558,0,0,1,.557-.557h2.228a.558.558,0,0,1,.557.557Zm0,0" transform="translate(-18.027 -11.653)" fill="#1bb884"/>
          <path id="Path_2274" data-name="Path 2274" d="M82.183,45.184H80.512v-11.7a1.671,1.671,0,0,0-1.671-1.671H75.5a1.671,1.671,0,1,0,0,3.342H77.17V45.184H75.5a1.671,1.671,0,1,0,0,3.342h6.684a1.671,1.671,0,0,0,0-3.342Zm0,0" transform="translate(-27.04 -11.653)" fill="#1bb884"/>
          <path id="Path_2275" data-name="Path 2275" d="M6.127,0H3.9A3.9,3.9,0,0,0,0,3.9v8.912a3.9,3.9,0,0,0,3.9,3.9H6.127a3.9,3.9,0,0,0,3.9-3.9V3.9A3.9,3.9,0,0,0,6.127,0Zm.557,12.811a.558.558,0,0,1-.557.557H3.9a.558.558,0,0,1-.557-.557V3.9A.558.558,0,0,1,3.9,3.342H6.127a.558.558,0,0,1,.557.557Zm0,0" fill="#1bb884"/>
          <path id="Path_2276" data-name="Path 2276" d="M32.964,13.368H31.293V1.671A1.671,1.671,0,0,0,29.622,0H26.28a1.671,1.671,0,0,0,0,3.342h1.671V13.368H26.28a1.671,1.671,0,0,0,0,3.342h6.684a1.671,1.671,0,0,0,0-3.342Zm0,0" transform="translate(-9.013)" fill="#1bb884"/>
          <path id="Path_2277" data-name="Path 2277" d="M79.955,0H77.727a3.9,3.9,0,0,0-3.9,3.9v8.912a3.9,3.9,0,0,0,3.9,3.9h2.228a3.9,3.9,0,0,0,3.9-3.9V3.9A3.9,3.9,0,0,0,79.955,0Zm.557,12.811a.558.558,0,0,1-.557.557H77.727a.558.558,0,0,1-.557-.557V3.9a.558.558,0,0,1,.557-.557h2.228a.558.558,0,0,1,.557.557Zm0,0" transform="translate(-27.04)" fill="#1bb884"/>
          <path id="Path_2278" data-name="Path 2278" d="M57.574,13.368H55.9V1.671A1.671,1.671,0,0,0,54.232,0H50.89a1.671,1.671,0,0,0,0,3.342h1.671V13.368H50.89a1.671,1.671,0,0,0,0,3.342h6.684a1.671,1.671,0,1,0,0-3.342Zm0,0" transform="translate(-18.027)" fill="#1bb884"/>
        </g>
      </g>
    </g>
  </g>
</svg>
