<svg xmlns="http://www.w3.org/2000/svg" xmlns:xlink="http://www.w3.org/1999/xlink" width="381" height="403" viewBox="0 0 381 403">
  <defs>
    <filter id="Rectangle_401" x="0" y="0" width="381" height="403" filterUnits="userSpaceOnUse">
      <feOffset dy="3" input="SourceAlpha"/>
      <feGaussianBlur stdDeviation="3" result="blur"/>
      <feFlood flood-opacity="0.161"/>
      <feComposite operator="in" in2="blur"/>
      <feComposite in="SourceGraphic"/>
    </filter>
  </defs>
  <g id="_5" data-name="5" transform="translate(9 6.468)">
    <g transform="matrix(1, 0, 0, 1, -9, -6.47)" filter="url(#Rectangle_401)">
      <rect id="Rectangle_401-2" data-name="Rectangle 401" width="363" height="385" rx="10" transform="translate(9 6)" fill="#fff"/>
    </g>
    <text id="No_Human_Biase" data-name="No Human Biase" transform="translate(182 270.532)" fill="#323232" font-size="32" font-family="Roboto-MediumItalic, Roboto" font-weight="500" font-style="italic"><tspan x="-117.352" y="0">No Human Biase</tspan></text>
    <g id="Group_667" data-name="Group 667" transform="translate(118.51 54.502)">
      <rect id="Rectangle_344" data-name="Rectangle 344" width="126" height="127" rx="63" transform="translate(0.49 0.03)" fill="#d9fff2"/>
      <g id="user_4_" data-name="user (4)" transform="translate(44.491 41.03)">
        <path id="Path_1973" data-name="Path 1973" d="M98.075,22.087a10.685,10.685,0,0,0,7.809-3.235,10.685,10.685,0,0,0,3.235-7.808,10.687,10.687,0,0,0-3.235-7.808,11.041,11.041,0,0,0-15.616,0,10.686,10.686,0,0,0-3.235,7.808,10.685,10.685,0,0,0,3.236,7.809A10.688,10.688,0,0,0,98.075,22.087Zm0,0" transform="translate(-79.238 0)" fill="#1bb884"/>
        <path id="Path_1974" data-name="Path 1974" d="M38.161,260.426a27.277,27.277,0,0,0-.372-2.9,22.828,22.828,0,0,0-.713-2.913,14.387,14.387,0,0,0-1.2-2.717,10.25,10.25,0,0,0-1.806-2.353,7.962,7.962,0,0,0-2.594-1.63,8.965,8.965,0,0,0-3.311-.6,3.361,3.361,0,0,0-1.795.761c-.538.351-1.167.757-1.87,1.205a10.712,10.712,0,0,1-2.419,1.066,9.4,9.4,0,0,1-5.918,0,10.691,10.691,0,0,1-2.418-1.066c-.7-.445-1.325-.85-1.872-1.206a3.357,3.357,0,0,0-1.794-.761,8.953,8.953,0,0,0-3.311.6,7.954,7.954,0,0,0-2.594,1.63A10.252,10.252,0,0,0,2.373,251.9a14.419,14.419,0,0,0-1.2,2.717,22.883,22.883,0,0,0-.712,2.913,27.18,27.18,0,0,0-.372,2.9C.031,261.3,0,262.215,0,263.134a7.614,7.614,0,0,0,2.261,5.76,8.14,8.14,0,0,0,5.827,2.125H30.165a8.139,8.139,0,0,0,5.827-2.125,7.61,7.61,0,0,0,2.262-5.76c0-.924-.031-1.835-.093-2.708Zm0,0" transform="translate(0 -225.168)" fill="#1bb884"/>
      </g>
    </g>
  </g>
</svg>
