<svg xmlns="http://www.w3.org/2000/svg" xmlns:xlink="http://www.w3.org/1999/xlink" width="540" height="94" viewBox="0 0 540 94">
  <defs>
    <clipPath id="clip-path">
      <rect width="540" height="94" fill="none"/>
    </clipPath>
  </defs>
  <g id="Alert" clip-path="url(#clip-path)">
    <g id="upload" transform="translate(0 -87)">
      <rect id="Rectangle_316" data-name="Rectangle 316" width="540" height="94" transform="translate(0 87)" fill="#f8fffd"/>
      <text id="Portfolio_Alerts" data-name="Portfolio Alerts" transform="translate(86 131)" fill="#262626" font-size="20" font-family="Roboto-Bold, Roboto" font-weight="700"><tspan x="0" y="0">Portfolio Alerts</tspan></text>
      <text id="Our_alerts_keeps_you_updated_with_current_market" data-name="Our alerts keeps you updated with current market" transform="translate(86 153)" fill="#262626" font-size="15" font-family="Roboto-Regular, Roboto" opacity="0.4"><tspan x="0" y="0">Our alerts keeps you updated with current market</tspan></text>
      <g id="warning" transform="translate(34 105.241)">
        <g id="Group_530" data-name="Group 530" transform="translate(0 14.759)">
          <path id="Path_1980" data-name="Path 1980" d="M28.595,35.815,18.279,16.853a4.278,4.278,0,0,0-7.357,0L.607,35.815a4.276,4.276,0,0,0,3.678,6.461H24.916A4.276,4.276,0,0,0,28.595,35.815ZM14.6,38.855a1.711,1.711,0,1,1,1.711-1.711A1.713,1.713,0,0,1,14.6,38.855Zm1.711-6.844a1.711,1.711,0,0,1-3.422,0V23.455a1.711,1.711,0,1,1,3.422,0Z" transform="translate(0 -14.759)" fill="#4fcaae"/>
        </g>
      </g>
    </g>
  </g>
</svg>
