<svg xmlns="http://www.w3.org/2000/svg" width="58.182" height="48.485" viewBox="0 0 58.182 48.485">
  <g id="balance" transform="translate(0 -4.849)">
    <g id="Group_532" data-name="Group 532">
      <path id="Path_1997" data-name="Path 1997" d="M58.168,30.707,50.175,12.022A3.875,3.875,0,0,0,43.4,8.4H34.453a5.821,5.821,0,0,0-10.724,0H14.783a3.874,3.874,0,0,0-6.776,3.619L.014,30.707H0C0,36.775,5.211,41.7,11.637,41.7s11.636-4.922,11.636-10.99h-.014l-7.6-17.777h8.074A5.843,5.843,0,0,0,25.858,15.5V44.283H14.222v2.586a6.484,6.484,0,0,0,6.465,6.465H37.5a6.484,6.484,0,0,0,6.465-6.465V44.283H32.323V15.5a5.851,5.851,0,0,0,2.129-2.573h8.073L34.91,30.707h0l0,.009.005,0C34.917,36.782,40.124,41.7,46.546,41.7s11.636-4.922,11.636-10.99Zm-38.425,0H3.53l6.984-16.328a3.867,3.867,0,0,0,2.245,0Zm18.682,0L45.42,14.379a3.866,3.866,0,0,0,2.248,0l6.985,16.328Z" fill="#cacaca"/>
    </g>
  </g>
</svg>
