<svg id="blog" xmlns="http://www.w3.org/2000/svg" width="22" height="22" viewBox="0 0 22 22">
  <g id="Group_659" data-name="Group 659">
    <g id="Group_658" data-name="Group 658">
      <path id="Path_2159" data-name="Path 2159" d="M20.066,0H1.934A1.936,1.936,0,0,0,0,1.934V5.2H22V1.934A1.936,1.936,0,0,0,20.066,0ZM3.223,3.867a.645.645,0,1,1,.645-.645A.645.645,0,0,1,3.223,3.867Zm2.578,0a.645.645,0,1,1,.645-.645A.645.645,0,0,1,5.8,3.867Zm2.578,0a.645.645,0,1,1,.645-.645A.645.645,0,0,1,8.379,3.867Z" fill="#cacaca"/>
    </g>
  </g>
  <g id="Group_661" data-name="Group 661" transform="translate(0 6.488)">
    <g id="Group_660" data-name="Group 660">
      <path id="Path_2160" data-name="Path 2160" d="M0,151v13.578a1.936,1.936,0,0,0,1.934,1.934H20.066A1.936,1.936,0,0,0,22,164.578V151Zm2.578,1.977a.644.644,0,0,1,.645-.645H9.668a.644.644,0,0,1,.645.645v5.156a.644.644,0,0,1-.645.645H3.223a.644.644,0,0,1-.645-.645Zm16.2,10.957H3.223a.645.645,0,0,1,0-1.289H18.777a.645.645,0,0,1,0,1.289Zm0-2.578H3.223a.645.645,0,0,1,0-1.289H18.777a.645.645,0,0,1,0,1.289Zm0-2.578H12.246a.645.645,0,0,1,0-1.289h6.531a.645.645,0,0,1,0,1.289Zm0-2.578H12.246a.645.645,0,0,1,0-1.289h6.531a.645.645,0,0,1,0,1.289Z" transform="translate(0 -151)" fill="#cacaca"/>
    </g>
  </g>
  <g id="Group_663" data-name="Group 663" transform="translate(4.4 8.8)">
    <g id="Group_662" data-name="Group 662" transform="translate(0 0)">
      <rect id="Rectangle_397" data-name="Rectangle 397" width="5" height="4" transform="translate(-0.4 0.2)" fill="#cacaca"/>
    </g>
  </g>
</svg>
