<svg xmlns="http://www.w3.org/2000/svg" width="36.194" height="48.724" viewBox="0 0 36.194 48.724">
  <g id="calculator" transform="translate(-65.834)">
    <g id="Group_607" data-name="Group 607" transform="translate(65.834)">
      <path id="Path_2036" data-name="Path 2036" d="M97.341,0H70.521a4.693,4.693,0,0,0-4.687,4.687V44.037a4.693,4.693,0,0,0,4.687,4.687H97.341a4.693,4.693,0,0,0,4.687-4.687V4.687A4.693,4.693,0,0,0,97.341,0ZM72.258,8.1a1.427,1.427,0,0,1,1.427-1.427h20.49A1.427,1.427,0,0,1,95.6,8.1v2.819a1.427,1.427,0,0,1-1.427,1.427H73.686a1.427,1.427,0,0,1-1.427-1.427Zm4.806,32.053a1.427,1.427,0,0,1-1.427,1.427H73.686a1.427,1.427,0,0,1-1.427-1.427V38.8a1.427,1.427,0,0,1,1.427-1.427h1.951A1.427,1.427,0,0,1,77.064,38.8Zm0-8.448a1.427,1.427,0,0,1-1.427,1.427H73.686A1.427,1.427,0,0,1,72.259,31.7V30.351a1.427,1.427,0,0,1,1.427-1.427h1.951a1.427,1.427,0,0,1,1.427,1.427Zm9.386,8.448a1.427,1.427,0,0,1-1.427,1.427H83.072a1.427,1.427,0,0,1-1.427-1.427V38.8a1.427,1.427,0,0,1,1.427-1.427h1.951A1.427,1.427,0,0,1,86.451,38.8Zm0-8.448a1.427,1.427,0,0,1-1.427,1.427H83.072A1.427,1.427,0,0,1,81.645,31.7V30.351a1.427,1.427,0,0,1,1.427-1.427h1.951a1.427,1.427,0,0,1,1.427,1.427Zm0-8.448a1.427,1.427,0,0,1-1.427,1.427H73.686a1.427,1.427,0,0,1-1.427-1.427V21.9a1.427,1.427,0,0,1,1.427-1.427H85.023A1.427,1.427,0,0,1,86.451,21.9Zm9.386,16.9a1.427,1.427,0,0,1-1.427,1.427H92.459a1.427,1.427,0,0,1-1.427-1.427V38.8a1.427,1.427,0,0,1,1.427-1.427H94.41A1.427,1.427,0,0,1,95.837,38.8Zm0-8.448a1.427,1.427,0,0,1-1.427,1.427H92.459A1.427,1.427,0,0,1,91.031,31.7V30.351a1.427,1.427,0,0,1,1.427-1.427H94.41a1.427,1.427,0,0,1,1.427,1.427Zm0-8.448a1.427,1.427,0,0,1-1.427,1.427H92.459a1.427,1.427,0,0,1-1.427-1.427V21.9a1.427,1.427,0,0,1,1.427-1.427H94.41A1.427,1.427,0,0,1,95.837,21.9Z" transform="translate(-65.834)" fill="#cacaca"/>
    </g>
  </g>
</svg>
