<svg xmlns="http://www.w3.org/2000/svg" width="24" height="24" viewBox="0 0 24 24">
  <g id="chart" transform="translate(-47 -520)">
    <path id="Subtraction_10" data-name="Subtraction 10" d="M-4233-2576a11.92,11.92,0,0,1-8.485-3.515A11.919,11.919,0,0,1-4245-2588a11.919,11.919,0,0,1,3.515-8.485A11.92,11.92,0,0,1-4233-2600a11.92,11.92,0,0,1,8.485,3.515A11.919,11.919,0,0,1-4221-2588a11.919,11.919,0,0,1-3.515,8.486A11.92,11.92,0,0,1-4233-2576Zm0-20a8.009,8.009,0,0,0-8,8,8.009,8.009,0,0,0,8,8,8.009,8.009,0,0,0,8-8A8.008,8.008,0,0,0-4233-2596Z" transform="translate(4292 3120)" fill="#4fcaae"/>
    <line id="Line_2" data-name="Line 2" y2="5" transform="translate(59 520)" fill="none" stroke="#fff" stroke-width="1"/>
    <line id="Line_3" data-name="Line 3" y2="6" transform="translate(59 538)" fill="none" stroke="#fff" stroke-width="1"/>
    <line id="Line_4" data-name="Line 4" x1="6" transform="translate(65 532)" fill="none" stroke="#fff" stroke-width="1"/>
  </g>
</svg>
