<svg xmlns="http://www.w3.org/2000/svg" width="30.971" height="37.625" viewBox="0 0 30.971 37.625">
  <g id="create" transform="translate(-45.278)">
    <path id="Path_2575" data-name="Path 2575" d="M50.046.1,45.377,4.769h4.669Z" transform="translate(-0.092 -0.093)" fill="#4fcaae"/>
    <path id="Path_2576" data-name="Path 2576" d="M62.541,23.918a9.26,9.26,0,0,1,6.591-2.73q.232,0,.462.011V0H52.159V6.881H45.278V32.1H59.945a9.434,9.434,0,0,1-.134-1.59A9.26,9.26,0,0,1,62.541,23.918ZM49.819,9.727H65.053v2.2H49.819Zm0,4.684H65.053v2.2H49.819Zm0,4.684H65.053v2.2H49.819Z" fill="#4fcaae"/>
    <path id="Path_2577" data-name="Path 2577" d="M285.188,320.4a7.116,7.116,0,1,0,0,10.064A7.116,7.116,0,0,0,285.188,320.4Zm-1.908,6.134h-2.022v2.022h-2.2v-2.022h-2.022v-2.2h2.022V322.31h2.2v2.022h2.022Z" transform="translate(-211.024 -294.926)" fill="#4fcaae"/>
  </g>
</svg>
