<svg xmlns="http://www.w3.org/2000/svg" width="24.833" height="26.742" viewBox="0 0 24.833 26.742">
  <g id="download_1_" data-name="download (1)" transform="translate(-17.067)">
    <g id="Group_862" data-name="Group 862" transform="translate(17.067 8.596)">
      <g id="Group_861" data-name="Group 861">
        <path id="Path_2584" data-name="Path 2584" d="M39.034,153.6h-8.6v8.2l3.145-3.145a.955.955,0,0,1,1.35,1.35l-4.775,4.776a.955.955,0,0,1-1.351,0l0,0-4.775-4.775a.955.955,0,0,1,1.35-1.35l3.147,3.145v-8.2h-8.6a2.865,2.865,0,0,0-2.865,2.865v12.416a2.865,2.865,0,0,0,2.865,2.865h19.1a2.865,2.865,0,0,0,2.865-2.865V156.465A2.865,2.865,0,0,0,39.034,153.6Z" transform="translate(-17.067 -153.6)" fill="#4fcaae"/>
      </g>
    </g>
    <g id="Group_864" data-name="Group 864" transform="translate(28.528)">
      <g id="Group_863" data-name="Group 863">
        <path id="Path_2585" data-name="Path 2585" d="M222.821,0a.955.955,0,0,0-.955.955V8.6h1.91V.955A.955.955,0,0,0,222.821,0Z" transform="translate(-221.866)" fill="#4fcaae"/>
      </g>
    </g>
  </g>
</svg>
