<svg xmlns="http://www.w3.org/2000/svg" width="540" height="94" viewBox="0 0 540 94">
  <g id="edit-profile" transform="translate(0 -87)">
    <rect id="Rectangle_316" data-name="Rectangle 316" width="540" height="94" transform="translate(0 87)" fill="#f8fffd"/>
    <text id="Edit_Profile" data-name="Edit Profile" transform="translate(86 131)" fill="#262626" font-size="20" font-family="Roboto-Bold, Roboto" font-weight="700"><tspan x="0" y="0">Edit Profile</tspan></text>
    <text id="Edit_your_profile" data-name="Edit your profile" transform="translate(86 153)" fill="#262626" font-size="15" font-family="Roboto-Regular, Roboto" opacity="0.4"><tspan x="0" y="0">Edit your profile</tspan></text>
    <g id="user_4_" data-name="user (4)" transform="translate(37.26 118.914)">
      <path id="Path_1973" data-name="Path 1973" d="M94.037,14.011a6.778,6.778,0,0,0,4.953-2.052,6.778,6.778,0,0,0,2.052-4.953A6.779,6.779,0,0,0,98.99,2.052a7,7,0,0,0-9.906,0,6.779,6.779,0,0,0-2.052,4.953,6.778,6.778,0,0,0,2.053,4.953A6.78,6.78,0,0,0,94.037,14.011Zm0,0" transform="translate(-82.088 0)" fill="#4fcaae"/>
      <path id="Path_1974" data-name="Path 1974" d="M24.207,255.632a17.3,17.3,0,0,0-.236-1.838,14.481,14.481,0,0,0-.452-1.848,9.127,9.127,0,0,0-.76-1.723,6.5,6.5,0,0,0-1.145-1.493,5.051,5.051,0,0,0-1.645-1.034,5.687,5.687,0,0,0-2.1-.38,2.132,2.132,0,0,0-1.139.483c-.341.223-.74.48-1.186.765a6.8,6.8,0,0,1-1.535.676,5.96,5.96,0,0,1-3.754,0,6.782,6.782,0,0,1-1.534-.676c-.441-.282-.841-.539-1.187-.765a2.129,2.129,0,0,0-1.138-.483,5.679,5.679,0,0,0-2.1.381,5.046,5.046,0,0,0-1.646,1.034,6.5,6.5,0,0,0-1.145,1.492,9.147,9.147,0,0,0-.76,1.724,14.516,14.516,0,0,0-.452,1.848,17.242,17.242,0,0,0-.236,1.839C.019,256.189,0,256.767,0,257.35A4.83,4.83,0,0,0,1.434,261a5.164,5.164,0,0,0,3.7,1.348h14a5.163,5.163,0,0,0,3.7-1.348,4.828,4.828,0,0,0,1.435-3.654c0-.586-.02-1.164-.059-1.718Zm0,0" transform="translate(0 -233.267)" fill="#4fcaae"/>
    </g>
  </g>
</svg>
