<svg xmlns="http://www.w3.org/2000/svg" xmlns:xlink="http://www.w3.org/1999/xlink" width="540" height="160" viewBox="0 0 540 160"><defs><filter id="a" x="16" y="30" width="508" height="130" filterUnits="userSpaceOnUse"><feOffset input="SourceAlpha"/><feGaussianBlur stdDeviation="3" result="b"/><feFlood flood-opacity="0.161"/><feComposite operator="in" in2="b"/><feComposite in="SourceGraphic"/></filter><filter id="c" x="53.262" y="73.246" width="49.477" height="54.723" filterUnits="userSpaceOnUse"><feOffset dy="3" input="SourceAlpha"/><feGaussianBlur stdDeviation="3" result="d"/><feFlood flood-color="#38ad92" flood-opacity="0.588"/><feComposite operator="in" in2="d"/><feComposite in="SourceGraphic"/></filter></defs><g transform="translate(0 -71)"><g transform="translate(0 26.978)"><g transform="translate(0 44)"><rect width="540" height="95" transform="translate(0 0.022)" fill="#4fcaae"/><g transform="matrix(1, 0, 0, 1, 0, 0.02)" filter="url(#a)"><rect width="490" height="112" rx="13" transform="translate(25 39)" fill="#4fcaae"/></g><text transform="translate(129 104.022)" fill="#fff" font-size="25" font-family="Roboto-Bold, Roboto" font-weight="700"><tspan x="0" y="0">Your Equity Portfolio</tspan></text><g transform="translate(-1.738 74.022)"><g transform="translate(71.869)"><g transform="translate(0)"><path d="M174.427,2.623h-2.849a3.936,3.936,0,0,0-7.421,0h-2.846A1.312,1.312,0,0,0,160,3.935V9.181a1.312,1.312,0,0,0,1.312,1.312h13.115a1.312,1.312,0,0,0,1.312-1.312V3.935A1.312,1.312,0,0,0,174.427,2.623Z" transform="translate(-160)" fill="#fff"/></g></g><g transform="translate(64 5.246)"><g transform="translate(0)"><g transform="matrix(1, 0, 0, 1, -62.26, -79.25)" filter="url(#c)"><path d="M92.854,64H90.231v3.935A3.939,3.939,0,0,1,86.3,71.869H73.181a3.939,3.939,0,0,1-3.935-3.935V64H66.623A2.627,2.627,0,0,0,64,66.623V98.1a2.594,2.594,0,0,0,2.623,2.623H92.854A2.594,2.594,0,0,0,95.477,98.1V66.623A2.594,2.594,0,0,0,92.854,64Zm-13.5,23.225-5.246,5.246a1.317,1.317,0,0,1-1.857,0l-2.623-2.623a1.311,1.311,0,0,1,1.854-1.854l1.7,1.694L77.5,85.37a1.312,1.312,0,0,1,1.857,1.854Zm0-10.492-5.246,5.246a1.317,1.317,0,0,1-1.857,0l-2.623-2.623A1.311,1.311,0,0,1,71.484,77.5l1.7,1.694L77.5,74.878a1.312,1.312,0,0,1,1.857,1.855Zm9.564,13.5H83.673a1.312,1.312,0,1,1,0-2.623h5.246a1.312,1.312,0,0,1,0,2.623Zm0-10.492H83.673a1.312,1.312,0,1,1,0-2.623h5.246a1.312,1.312,0,0,1,0,2.623Z" transform="translate(-1.74 15.25)" fill="#fff"/></g></g></g></g></g></g></g></svg>