<svg id="event" xmlns="http://www.w3.org/2000/svg" width="22" height="22" viewBox="0 0 22 22">
  <g id="Group_657" data-name="Group 657">
    <path id="Path_2158" data-name="Path 2158" d="M20.167,13.072V3.667a1.835,1.835,0,0,0-1.833-1.833H16.042a.458.458,0,0,0-.458.458V4.583a.917.917,0,1,1-1.221-.858.459.459,0,0,0,.3-.432V.458a.458.458,0,1,0-.917,0V1.833H6.875a.458.458,0,0,0-.458.458V4.583A.917.917,0,1,1,5.2,3.725a.459.459,0,0,0,.3-.432V.458a.458.458,0,1,0-.917,0V1.833H1.833A1.835,1.835,0,0,0,0,3.667V18.333a1.835,1.835,0,0,0,1.833,1.833H13.072a5.04,5.04,0,1,0,7.094-7.094Zm-8.25,3.886a5.018,5.018,0,0,0,.2,1.375H1.833v-11h16.5v4.779a5.028,5.028,0,0,0-6.417,4.846Zm7.657-1.051-3.208,3.208a.458.458,0,0,1-.648,0l-1.375-1.375a.458.458,0,0,1,.648-.648l1.051,1.051,2.884-2.884a.458.458,0,0,1,.648.648Z" fill="#cacaca"/>
  </g>
</svg>
