<svg xmlns="http://www.w3.org/2000/svg" width="23.576" height="31.432" viewBox="0 0 23.576 31.432">
  <g id="file" transform="translate(-0.25)">
    <path id="Path_1977" data-name="Path 1977" d="M854,229.76h3.7l-3.7-3.7Zm0,0" transform="translate(-838.034 -221.902)" fill="#c9c9c9"/>
    <path id="Path_1978" data-name="Path 1978" d="M14.843,188v-5.052H.25v28.064H20.456V188.558H15.4A.561.561,0,0,1,14.843,188ZM3.618,186.313h4.49v1.123H3.618Zm0,6.735H12.6v1.123H3.618Zm0,6.735H7.547v1.123H3.618Zm2.245,7.858H3.618v-1.123H5.863Zm11.226,0H6.985v-1.123h10.1Zm0-3.368H3.618v-1.123H17.088Zm0-3.368H8.669v-1.123h8.419Zm0-3.368H3.618v-1.123H17.088Zm0-3.368H13.721v-1.123h3.368Zm0-3.368H3.618V189.68H17.088Zm0,0" transform="translate(0 -179.577)" fill="#c9c9c9"/>
    <path id="Path_1979" data-name="Path 1979" d="M183.2,0V2.245h11.787c.012,0,.023.006.035.007a.537.537,0,0,1,.145.029.518.518,0,0,1,.052.019.543.543,0,0,1,.165.112l5.613,5.613a.555.555,0,0,1,.112.164.469.469,0,0,1,.019.053.539.539,0,0,1,.029.144c0,.012.007.023.007.035V28.064H203.4V0Zm0,0" transform="translate(-179.577)" fill="#c9c9c9"/>
  </g>
</svg>
