<svg xmlns="http://www.w3.org/2000/svg" xmlns:xlink="http://www.w3.org/1999/xlink" width="141" height="141" viewBox="0 0 141 141">
  <defs>
    <clipPath id="clip-path">
      <rect id="Rectangle_612" data-name="Rectangle 612" width="62" height="62" rx="20" transform="translate(6308 4191)" fill="#23ad8d"/>
    </clipPath>
  </defs>
  <g id="fixed_income" data-name="fixed income" transform="translate(-6256 -4147)">
    <rect id="Rectangle_606" data-name="Rectangle 606" width="141" height="141" rx="10" transform="translate(6256 4147)" fill="#fff"/>
    <g id="Group_842" data-name="Group 842" transform="translate(0 -10)">
      <text id="Fixed_Income-2" data-name="Fixed Income" transform="translate(6327 4260)" fill="#262626" font-size="20" font-family="Roboto-Bold, Roboto" font-weight="700"><tspan x="-60.098" y="0">FI and Equity</tspan></text>
      <g id="Mask_Group_60" data-name="Mask Group 60" transform="translate(-12)" clip-path="url(#clip-path)">
        <path id="speed" d="M49.489,32.324a24.745,24.745,0,0,0-42.242-17.5A24.583,24.583,0,0,0,0,32.324v1.45H19.817a5.2,5.2,0,0,0,9.4,1,5.243,5.243,0,0,0,.456-1H49.489ZM26.722,33.3a2.3,2.3,0,1,1,.246-1.74,2.3,2.3,0,0,1-.246,1.74Zm3.063-2.425c0-.012-.006-.025-.009-.038a5.165,5.165,0,0,0-1.246-2.264L32.7,21.515l-2.5-1.474L26.033,27.1A5.2,5.2,0,0,0,19.7,30.874H2.947a21.682,21.682,0,0,1,2.2-8.191l3.22,1.859,1.45-2.511L6.6,20.174a22.024,22.024,0,0,1,5.995-5.995L14.451,17.4l2.511-1.45L15.1,12.725a21.682,21.682,0,0,1,8.191-2.2v3.721h2.9V10.528a21.682,21.682,0,0,1,8.191,2.2l-1.859,3.22,2.511,1.45,1.857-3.216a22.026,22.026,0,0,1,5.995,5.995l-3.216,1.857,1.45,2.511,3.22-1.859a21.682,21.682,0,0,1,2.2,8.191Z" transform="translate(6314.255 4191.389)" fill="#23ad8d"/>
      </g>
    </g>
  </g>
</svg>
