<svg xmlns="http://www.w3.org/2000/svg" xmlns:xlink="http://www.w3.org/1999/xlink" width="540" height="160" viewBox="0 0 540 160"><defs><filter id="a" x="16" y="30" width="508" height="130" filterUnits="userSpaceOnUse"><feOffset input="SourceAlpha"/><feGaussianBlur stdDeviation="3" result="b"/><feFlood flood-opacity="0.161"/><feComposite operator="in" in2="b"/><feComposite in="SourceGraphic"/></filter><filter id="c" x="43.355" y="63" width="69.292" height="56.866" filterUnits="userSpaceOnUse"><feOffset dy="3" input="SourceAlpha"/><feGaussianBlur stdDeviation="3" result="d"/><feFlood flood-color="#38ad92" flood-opacity="0.588"/><feComposite operator="in" in2="d"/><feComposite in="SourceGraphic"/></filter><filter id="e" x="70.504" y="98.466" width="27.016" height="33.826" filterUnits="userSpaceOnUse"><feOffset dy="3" input="SourceAlpha"/><feGaussianBlur stdDeviation="3" result="f"/><feFlood flood-color="#38ad92" flood-opacity="0.588"/><feComposite operator="in" in2="f"/><feComposite in="SourceGraphic"/></filter><filter id="g" x="58.482" y="98.466" width="27.016" height="33.826" filterUnits="userSpaceOnUse"><feOffset dy="3" input="SourceAlpha"/><feGaussianBlur stdDeviation="3" result="h"/><feFlood flood-color="#38ad92" flood-opacity="0.588"/><feComposite operator="in" in2="h"/><feComposite in="SourceGraphic"/></filter></defs><g transform="translate(0 -71)"><g transform="translate(0 26.978)"><g transform="translate(0 44)"><rect width="540" height="95" transform="translate(0 0.022)" fill="#4fcaae"/><g transform="matrix(1, 0, 0, 1, 0, 0.02)" filter="url(#a)"><rect width="490" height="112" rx="13" transform="translate(25 39)" fill="#4fcaae"/></g><text transform="translate(129 104.022)" fill="#fff" font-size="25" font-family="Roboto-Bold, Roboto" font-weight="700"><tspan x="0" y="0">Asset Allocation</tspan></text><g transform="translate(52.355 69.022)"><g transform="matrix(1, 0, 0, 1, -52.36, -69)" filter="url(#c)"><path d="M36.165,21.138H30.154V30l-3.005-1.9V15.127h6.011V0H18.132V15.127h6.011V28.1L21.138,30V21.138H15.127V15.127H0V30.154H15.127V24.143h3.005V31.9l-1.5.951,9.016,6.011,9.016-6.011-1.5-.951V24.143h3.005v6.011H51.292V15.127H36.165ZM24.143,6.111h3.005V9.116H24.143ZM9.116,24.143H6.111V21.138H9.116Zm33.059-3.005h3.005v3.005H42.175Z" transform="translate(52.36 69)" fill="#fff"/></g><g transform="matrix(1, 0, 0, 1, -52.36, -69)" filter="url(#e)"><path d="M271,360.037v9.814l9.016-6.011v-9.814Z" transform="translate(-191.5 -249.56)" fill="#fff"/></g><g transform="matrix(1, 0, 0, 1, -52.36, -69)" filter="url(#g)"><path d="M151,354.026v9.814l9.016,6.011v-9.814Z" transform="translate(-83.52 -249.56)" fill="#fff"/></g></g></g></g></g></svg>