<svg xmlns="http://www.w3.org/2000/svg" width="52.03" height="38.095" viewBox="0 0 52.03 38.095">
  <g id="Group_914" data-name="Group 914" transform="translate(-2.248 -6.45)">
    <g id="Group_905" data-name="Group 905" transform="translate(2.248 6.45)">
      <g id="fyuk" transform="translate(0 19.047) rotate(-45)">
        <path id="Path_4079" data-name="Path 4079" d="M23.722,3.215a11.007,11.007,0,0,0-15.549,0L.189,11.2a.644.644,0,0,0,0,.911l4.782,4.782a.644.644,0,0,0,.911,0l7.984-7.984a2.943,2.943,0,1,1,4.162,4.162l-7.984,7.984a.644.644,0,0,0,0,.911l4.782,4.782a.644.644,0,0,0,.911,0l7.984-7.984A11.007,11.007,0,0,0,23.722,3.215ZM5.426,15.526,1.555,11.655l1.72-1.72,3.871,3.871Zm9.856,9.856-3.871-3.871,1.72-1.72L17,23.662Z" transform="translate(0 0)" fill="#ff2020"/>
      </g>
      <g id="fyuk-2" data-name="fyuk" transform="translate(13.936 19.047) rotate(-45)">
        <path id="Path_4079-2" data-name="Path 4079" d="M23.722,3.215a11.007,11.007,0,0,0-15.549,0L.189,11.2a.644.644,0,0,0,0,.911l4.782,4.782a.644.644,0,0,0,.911,0l7.984-7.984a2.943,2.943,0,1,1,4.162,4.162l-7.984,7.984a.644.644,0,0,0,0,.911l4.782,4.782a.644.644,0,0,0,.911,0l7.984-7.984A11.007,11.007,0,0,0,23.722,3.215ZM5.426,15.526,1.555,11.655l1.72-1.72,3.871,3.871Zm9.856,9.856-3.871-3.871,1.72-1.72L17,23.662Z" transform="translate(0 0)" fill="#02a9fa"/>
      </g>
    </g>
  </g>
</svg>
