<svg xmlns="http://www.w3.org/2000/svg" xmlns:xlink="http://www.w3.org/1999/xlink" width="474" height="200" viewBox="0 0 474 200">
  <defs>
    <linearGradient id="linear-gradient" x1="0.5" x2="0.5" y2="1" gradientUnits="objectBoundingBox">
      <stop offset="0" stop-color="#1fc28b"/>
      <stop offset="1" stop-color="#26c462"/>
    </linearGradient>
    <linearGradient id="linear-gradient-2" x1="-103.571" y1="-69.064" x2="-104.571" y2="-69.064" gradientUnits="objectBoundingBox">
      <stop offset="0.005" stop-color="#fed816"/>
      <stop offset="1" stop-color="#feb744"/>
    </linearGradient>
    <linearGradient id="linear-gradient-3" x1="-5.251" y1="-18.973" x2="-6.251" y2="-18.973" xlink:href="#linear-gradient-2"/>
    <linearGradient id="linear-gradient-4" x1="-105.929" y1="-70.841" x2="-106.93" y2="-70.841" xlink:href="#linear-gradient-2"/>
  </defs>
  <g id="Group_568" data-name="Group 568" transform="translate(-33 -325)">
    <rect id="Rectangle_336" data-name="Rectangle 336" width="474" height="200" rx="15" transform="translate(33 325)" fill="url(#linear-gradient)"/>
    <g id="Group_569" data-name="Group 569" transform="translate(-10 66)">
      <text id="Build" transform="translate(63 346)" fill="#bdffe1" font-size="20" font-family="Roboto-Regular, Roboto"><tspan x="0" y="0">Build</tspan></text>
      <text id="New_Investment_portfolio" data-name="New Investment portfolio" transform="translate(63 384)" fill="#fff" font-size="25" font-family="Roboto-Bold, Roboto" font-weight="700"><tspan x="0" y="0">New Investment portfolio</tspan></text>
    </g>
    <g id="Group_611" data-name="Group 611" transform="translate(336.1 309)">
      <g id="Group_153" data-name="Group 153" transform="translate(48.848 104.54)">
        <g id="Group_151" data-name="Group 151" transform="translate(0)">
          <ellipse id="Ellipse_40" data-name="Ellipse 40" cx="11.317" cy="11.317" rx="11.317" ry="11.317" fill="#feb04f"/>
        </g>
        <g id="Group_152" data-name="Group 152" transform="translate(2.558 2.56)">
          <ellipse id="Ellipse_41" data-name="Ellipse 41" cx="8.759" cy="8.759" rx="8.759" ry="8.759" fill="url(#linear-gradient-2)"/>
        </g>
        <path id="Path_771" data-name="Path 771" d="M1208.671,295.365a2.671,2.671,0,0,0,3.194-1.122c1.08-1.886-.254-3.3-1.141-4.242-.951-1.01-1.092-1.3-.838-1.732.275-.479,1.139-.154,1.608.114a2.662,2.662,0,0,1,1.21,1.53.316.316,0,0,0,.147.2.331.331,0,0,0,.249.04l1.272-.309a.325.325,0,0,0,.242-.4,4.418,4.418,0,0,0-1.31-2.157l.372-.65a.326.326,0,0,0-.119-.446l-1.136-.652a.329.329,0,0,0-.448.119l-.354.617a2.7,2.7,0,0,0-3.431,1c-1.042,1.779.252,3.153,1.111,4.062,1.006,1.067,1.16,1.405.866,1.917s-1.2.18-1.692-.1a3.133,3.133,0,0,1-1.143-1.132.33.33,0,0,0-.443-.142l-1.162.6a.322.322,0,0,0-.142.441,4.848,4.848,0,0,0,1.334,1.549l-.337.588a.329.329,0,0,0,.119.448l1.137.652a.327.327,0,0,0,.448-.121Z" transform="translate(-1198.685 -279.411)" fill="#fff" fill-rule="evenodd"/>
      </g>
      <g id="Group_159" data-name="Group 159" transform="translate(108.928 96.269)">
        <path id="Path_778" data-name="Path 778" d="M1180.672,312.613c-.306.455-9.334,14.89-21.115,9.813a65.046,65.046,0,0,1,15.7-45.233q9.848,3.117,19.7,6.23A66.223,66.223,0,0,0,1180.672,312.613Z" transform="translate(-1159.497 -277.193)" fill="#3dc7c8"/>
        <path id="Path_779" data-name="Path 779" d="M1178.745,312.776c-.819,1.231-3.073.864-6.472,4.448h0c-3.869,2.463-7.536,4.235-11.307,2.925a62.531,62.531,0,0,1,14.873-42.2c5.576,1.765,11.277,3.91,16.855,5.673A74.77,74.77,0,0,0,1178.745,312.776Zm-2.506-33.591c-9.552,11.616-14.895,25.415-14.589,40.378,3.346.992,5.886-.14,9.234-1.875a61.664,61.664,0,0,1,7.274-4.869,76.89,76.89,0,0,1,13.365-28.779C1188.822,283.187,1178.641,279.944,1176.238,279.185Z" transform="translate(-1159.73 -276.646)" fill="#88e6e8"/>
        <g id="Group_158" data-name="Group 158" transform="translate(4.338 16.282)">
          <ellipse id="Ellipse_47" data-name="Ellipse 47" cx="6.242" cy="7.704" rx="6.242" ry="7.704" transform="translate(18.621 4.991) rotate(108.899)" fill="#88e6e8"/>
          <g id="Group_157" data-name="Group 157" transform="translate(4.741 5.467)">
            <path id="Path_780" data-name="Path 780" d="M1178.43,294.579l-1.117-.384a3.4,3.4,0,0,1-1.063,1.523l-.648-.519a3.144,3.144,0,0,0,1.02-1.428,1.228,1.228,0,0,0-.633-1.684c-.607-.207-1.129.1-1.741.8-.828.973-1.573,1.5-2.532,1.167a1.911,1.911,0,0,1-1.207-2.273l-1.117-.382.235-.685,1.072.365a3.135,3.135,0,0,1,.876-1.3l.634.527a2.813,2.813,0,0,0-.852,1.26c-.29.85.109,1.345.55,1.5.574.2,1-.112,1.725-.939.854-.978,1.623-1.353,2.607-1.018a2.03,2.03,0,0,1,1.279,2.385l1.148.394Z" transform="translate(-1169.393 -289.775)" fill="#fff"/>
          </g>
        </g>
        <ellipse id="Ellipse_48" data-name="Ellipse 48" cx="2.216" cy="2.216" rx="2.216" ry="2.216" transform="translate(8.484 34.651)" fill="#88e6e8"/>
        <ellipse id="Ellipse_49" data-name="Ellipse 49" cx="2.216" cy="2.216" rx="2.216" ry="2.216" transform="translate(16.505 11.229)" fill="#88e6e8"/>
        <ellipse id="Ellipse_50" data-name="Ellipse 50" cx="2.214" cy="2.214" rx="2.214" ry="2.214" transform="translate(14.916 2.1)" fill="#88e6e8"/>
        <ellipse id="Ellipse_51" data-name="Ellipse 51" cx="2.216" cy="2.216" rx="2.216" ry="2.216" transform="translate(1.311 39.318)" fill="#88e6e8"/>
        <path id="Path_781" data-name="Path 781" d="M1166.308,283.07c-.947,1.094-1.561,2.774-2.93,2.3a2.619,2.619,0,0,1-1.632-3.328c.468-1.369,1.981-1.666,3.35-1.2S1167.276,281.952,1166.308,283.07Z" transform="translate(-1134.917 -274.68)" fill="#88e6e8"/>
        <path id="Path_782" data-name="Path 782" d="M1167.764,307.966s9.829-4.55,10-9.288c0,0,5.96,4.1,9.834-1C1186.433,299.856,1177.6,311.712,1167.764,307.966Z" transform="translate(-1166.433 -262.265)" fill="#def1ff"/>
        <path id="Path_783" data-name="Path 783" d="M1169.109,307.225c.176-.081,6.714-3.338,8.684-7.556a6.331,6.331,0,0,0,6.546-.14C1181.226,303.171,1175.5,308.2,1169.109,307.225Z" transform="translate(-1165.496 -260.92)" fill="#fff"/>
      </g>
      <g id="Group_612" data-name="Group 612" transform="translate(69.928 78.269)">
        <path id="Path_778-2" data-name="Path 778" d="M1173.78,312.613c.306.455,9.334,14.89,21.115,9.813a65.047,65.047,0,0,0-15.7-45.233q-9.848,3.117-19.7,6.23A66.224,66.224,0,0,1,1173.78,312.613Z" transform="translate(-1159.497 -277.193)" fill="#3dc7c8"/>
        <path id="Path_779-2" data-name="Path 779" d="M1174.89,312.777c.819,1.231,3.073.864,6.472,4.448h0c3.869,2.463,7.536,4.235,11.307,2.925a62.532,62.532,0,0,0-14.873-42.205c-5.576,1.765-11.277,3.91-16.855,5.673A74.771,74.771,0,0,1,1174.89,312.777Zm2.506-33.592c9.552,11.616,14.895,25.415,14.589,40.378-3.346.992-5.886-.14-9.234-1.875a61.663,61.663,0,0,0-7.274-4.869,76.891,76.891,0,0,0-13.365-28.779C1164.812,283.187,1174.993,279.944,1177.4,279.185Z" transform="translate(-1158.446 -276.646)" fill="#88e6e8"/>
        <g id="Group_158-2" data-name="Group 158" transform="translate(12.499 16.282)">
          <ellipse id="Ellipse_47-2" data-name="Ellipse 47" cx="6.242" cy="7.704" rx="6.242" ry="7.704" transform="translate(14.578 0) rotate(71.101)" fill="#88e6e8"/>
          <g id="Group_157-2" data-name="Group 157" transform="translate(4.607 5.467)">
            <path id="Path_780-2" data-name="Path 780" d="M1169.63,294.579l1.117-.384a3.4,3.4,0,0,0,1.063,1.523l.648-.519a3.144,3.144,0,0,1-1.02-1.428,1.228,1.228,0,0,1,.633-1.684c.607-.207,1.129.1,1.741.8.828.973,1.573,1.5,2.532,1.167a1.911,1.911,0,0,0,1.207-2.273l1.117-.382-.235-.685-1.072.365a3.135,3.135,0,0,0-.876-1.3l-.634.527a2.813,2.813,0,0,1,.852,1.26c.29.85-.109,1.345-.55,1.5-.574.2-1-.112-1.725-.939-.854-.978-1.623-1.354-2.607-1.018a2.03,2.03,0,0,0-1.279,2.385l-1.148.394Z" transform="translate(-1169.393 -289.775)" fill="#fff"/>
          </g>
        </g>
        <ellipse id="Ellipse_48-2" data-name="Ellipse 48" cx="2.216" cy="2.216" rx="2.216" ry="2.216" transform="translate(22.542 34.651)" fill="#88e6e8"/>
        <ellipse id="Ellipse_49-2" data-name="Ellipse 49" cx="2.216" cy="2.216" rx="2.216" ry="2.216" transform="translate(14.522 11.229)" fill="#88e6e8"/>
        <ellipse id="Ellipse_50-2" data-name="Ellipse 50" cx="2.214" cy="2.214" rx="2.214" ry="2.214" transform="translate(16.114 2.1)" fill="#88e6e8"/>
        <ellipse id="Ellipse_51-2" data-name="Ellipse 51" cx="2.216" cy="2.216" rx="2.216" ry="2.216" transform="translate(29.716 39.318)" fill="#88e6e8"/>
        <path id="Path_781-2" data-name="Path 781" d="M1162.029,283.07c.947,1.094,1.561,2.774,2.93,2.3a2.62,2.62,0,0,0,1.632-3.328c-.468-1.369-1.981-1.666-3.35-1.2S1161.061,281.952,1162.029,283.07Z" transform="translate(-1157.961 -274.68)" fill="#88e6e8"/>
        <path id="Path_782-2" data-name="Path 782" d="M1187.6,307.966s-9.829-4.55-10-9.288c0,0-5.96,4.1-9.834-1C1168.932,299.856,1177.765,311.712,1187.6,307.966Z" transform="translate(-1153.474 -262.264)" fill="#def1ff"/>
        <path id="Path_783-2" data-name="Path 783" d="M1184.339,307.225c-.176-.081-6.714-3.338-8.684-7.556a6.331,6.331,0,0,1-6.546-.14C1172.222,303.171,1177.944,308.2,1184.339,307.225Z" transform="translate(-1152.494 -260.919)" fill="#fff"/>
      </g>
      <g id="Group_614" data-name="Group 614" transform="translate(92.928 69.269)">
        <path id="Path_778-3" data-name="Path 778" d="M1180.672,312.613c-.306.455-9.334,14.89-21.115,9.813a65.047,65.047,0,0,1,15.7-45.233q9.848,3.117,19.7,6.23A66.224,66.224,0,0,0,1180.672,312.613Z" transform="translate(-1159.497 -277.193)" fill="#3dc7c8"/>
        <path id="Path_779-3" data-name="Path 779" d="M1178.745,312.777c-.819,1.231-3.073.864-6.472,4.448h0c-3.869,2.463-7.536,4.235-11.307,2.925a62.532,62.532,0,0,1,14.873-42.205c5.576,1.765,11.277,3.91,16.855,5.673A74.771,74.771,0,0,0,1178.745,312.777Zm-2.506-33.592c-9.552,11.616-14.895,25.415-14.589,40.378,3.346.992,5.886-.14,9.234-1.875a61.663,61.663,0,0,1,7.274-4.869,76.891,76.891,0,0,1,13.365-28.779C1188.822,283.187,1178.641,279.944,1176.238,279.185Z" transform="translate(-1159.73 -276.646)" fill="#88e6e8"/>
        <g id="Group_158-3" data-name="Group 158" transform="translate(4.338 16.282)">
          <ellipse id="Ellipse_47-3" data-name="Ellipse 47" cx="6.242" cy="7.704" rx="6.242" ry="7.704" transform="translate(18.621 4.991) rotate(108.899)" fill="#88e6e8"/>
          <g id="Group_157-3" data-name="Group 157" transform="translate(4.741 5.467)">
            <path id="Path_780-3" data-name="Path 780" d="M1178.43,294.579l-1.117-.384a3.4,3.4,0,0,1-1.063,1.523l-.648-.519a3.144,3.144,0,0,0,1.02-1.428,1.228,1.228,0,0,0-.633-1.684c-.607-.207-1.129.1-1.741.8-.828.973-1.573,1.5-2.532,1.167a1.911,1.911,0,0,1-1.207-2.273l-1.117-.382.235-.685,1.072.365a3.135,3.135,0,0,1,.876-1.3l.634.527a2.813,2.813,0,0,0-.852,1.26c-.29.85.109,1.345.55,1.5.574.2,1-.112,1.725-.939.854-.978,1.623-1.354,2.607-1.018a2.03,2.03,0,0,1,1.279,2.385l1.148.394Z" transform="translate(-1169.393 -289.775)" fill="#fff"/>
          </g>
        </g>
        <ellipse id="Ellipse_48-3" data-name="Ellipse 48" cx="2.216" cy="2.216" rx="2.216" ry="2.216" transform="translate(8.484 34.651)" fill="#88e6e8"/>
        <ellipse id="Ellipse_49-3" data-name="Ellipse 49" cx="2.216" cy="2.216" rx="2.216" ry="2.216" transform="translate(16.505 11.229)" fill="#88e6e8"/>
        <ellipse id="Ellipse_50-3" data-name="Ellipse 50" cx="2.214" cy="2.214" rx="2.214" ry="2.214" transform="translate(14.916 2.1)" fill="#88e6e8"/>
        <ellipse id="Ellipse_51-3" data-name="Ellipse 51" cx="2.216" cy="2.216" rx="2.216" ry="2.216" transform="translate(1.311 39.318)" fill="#88e6e8"/>
        <path id="Path_781-3" data-name="Path 781" d="M1166.308,283.07c-.947,1.094-1.561,2.774-2.93,2.3a2.62,2.62,0,0,1-1.632-3.328c.468-1.369,1.981-1.666,3.35-1.2S1167.276,281.952,1166.308,283.07Z" transform="translate(-1134.917 -274.68)" fill="#88e6e8"/>
        <path id="Path_782-3" data-name="Path 782" d="M1167.764,307.966s9.829-4.55,10-9.288c0,0,5.96,4.1,9.834-1C1186.433,299.856,1177.6,311.712,1167.764,307.966Z" transform="translate(-1166.433 -262.264)" fill="#def1ff"/>
        <path id="Path_783-3" data-name="Path 783" d="M1169.109,307.225c.176-.081,6.714-3.338,8.684-7.556a6.331,6.331,0,0,0,6.546-.14C1181.226,303.171,1175.5,308.2,1169.109,307.225Z" transform="translate(-1165.496 -260.919)" fill="#fff"/>
      </g>
      <g id="Group_613" data-name="Group 613" transform="translate(61.928 88.269)">
        <path id="Path_778-4" data-name="Path 778" d="M1173.78,312.613c.306.455,9.334,14.89,21.115,9.813a65.047,65.047,0,0,0-15.7-45.233q-9.848,3.117-19.7,6.23A66.224,66.224,0,0,1,1173.78,312.613Z" transform="translate(-1159.497 -277.193)" fill="#3dc7c8"/>
        <path id="Path_779-4" data-name="Path 779" d="M1174.89,312.777c.819,1.231,3.073.864,6.472,4.448h0c3.869,2.463,7.536,4.235,11.307,2.925a62.532,62.532,0,0,0-14.873-42.205c-5.576,1.765-11.277,3.91-16.855,5.673A74.771,74.771,0,0,1,1174.89,312.777Zm2.506-33.592c9.552,11.616,14.895,25.415,14.589,40.378-3.346.992-5.886-.14-9.234-1.875a61.663,61.663,0,0,0-7.274-4.869,76.891,76.891,0,0,0-13.365-28.779C1164.812,283.187,1174.993,279.944,1177.4,279.185Z" transform="translate(-1158.446 -276.646)" fill="#88e6e8"/>
        <g id="Group_158-4" data-name="Group 158" transform="translate(12.499 16.282)">
          <ellipse id="Ellipse_47-4" data-name="Ellipse 47" cx="6.242" cy="7.704" rx="6.242" ry="7.704" transform="translate(14.578 0) rotate(71.101)" fill="#88e6e8"/>
          <g id="Group_157-4" data-name="Group 157" transform="translate(4.607 5.467)">
            <path id="Path_780-4" data-name="Path 780" d="M1169.63,294.579l1.117-.384a3.4,3.4,0,0,0,1.063,1.523l.648-.519a3.144,3.144,0,0,1-1.02-1.428,1.228,1.228,0,0,1,.633-1.684c.607-.207,1.129.1,1.741.8.828.973,1.573,1.5,2.532,1.167a1.911,1.911,0,0,0,1.207-2.273l1.117-.382-.235-.685-1.072.365a3.135,3.135,0,0,0-.876-1.3l-.634.527a2.813,2.813,0,0,1,.852,1.26c.29.85-.109,1.345-.55,1.5-.574.2-1-.112-1.725-.939-.854-.978-1.623-1.354-2.607-1.018a2.03,2.03,0,0,0-1.279,2.385l-1.148.394Z" transform="translate(-1169.393 -289.775)" fill="#fff"/>
          </g>
        </g>
        <ellipse id="Ellipse_48-4" data-name="Ellipse 48" cx="2.216" cy="2.216" rx="2.216" ry="2.216" transform="translate(22.542 34.651)" fill="#88e6e8"/>
        <ellipse id="Ellipse_49-4" data-name="Ellipse 49" cx="2.216" cy="2.216" rx="2.216" ry="2.216" transform="translate(14.522 11.229)" fill="#88e6e8"/>
        <ellipse id="Ellipse_50-4" data-name="Ellipse 50" cx="2.214" cy="2.214" rx="2.214" ry="2.214" transform="translate(16.114 2.1)" fill="#88e6e8"/>
        <ellipse id="Ellipse_51-4" data-name="Ellipse 51" cx="2.216" cy="2.216" rx="2.216" ry="2.216" transform="translate(29.716 39.318)" fill="#88e6e8"/>
        <path id="Path_781-4" data-name="Path 781" d="M1162.029,283.07c.947,1.094,1.561,2.774,2.93,2.3a2.62,2.62,0,0,0,1.632-3.328c-.468-1.369-1.981-1.666-3.35-1.2S1161.061,281.952,1162.029,283.07Z" transform="translate(-1157.961 -274.68)" fill="#88e6e8"/>
        <path id="Path_782-4" data-name="Path 782" d="M1187.6,307.966s-9.829-4.55-10-9.288c0,0-5.96,4.1-9.834-1C1168.932,299.856,1177.765,311.712,1187.6,307.966Z" transform="translate(-1153.474 -262.264)" fill="#def1ff"/>
        <path id="Path_783-4" data-name="Path 783" d="M1184.339,307.225c-.176-.081-6.714-3.338-8.684-7.556a6.331,6.331,0,0,1-6.546-.14C1172.222,303.171,1177.944,308.2,1184.339,307.225Z" transform="translate(-1152.494 -260.919)" fill="#fff"/>
      </g>
      <g id="Group_162" data-name="Group 162" transform="translate(62.044 106.702)">
        <path id="Path_784" data-name="Path 784" d="M1196.107,306.09c-.543-.064-17.517-1.431-18.432-14.224a65.039,65.039,0,0,1,47.384-6.887q1.766,10.177,3.535,20.35A66.262,66.262,0,0,0,1196.107,306.09Z" transform="translate(-1177.676 -283.229)" fill="#3dc7c8"/>
        <path id="Path_785" data-name="Path 785" d="M1193.442,304.05c-1.469-.162-2.183-2.332-6.928-3.7h0c-3.969-2.3-7.232-4.74-7.8-8.69a62.539,62.539,0,0,1,44.312-6.23c1,5.763,1.722,11.811,2.724,17.574A74.588,74.588,0,0,0,1193.442,304.05Zm28.66-17.7c-14.71-3.132-29.42-1.521-42.562,5.64.66,3.428,2.836,5.161,5.915,7.334a61.662,61.662,0,0,1,7.673,4.214,76.909,76.909,0,0,1,31.7-1.385C1224.349,299.366,1222.534,288.823,1222.1,286.346Z" transform="translate(-1176.618 -282.765)" fill="#88e6e8"/>
        <g id="Group_161" data-name="Group 161" transform="translate(17.176 2.763)">
          <ellipse id="Ellipse_52" data-name="Ellipse 52" cx="6.242" cy="7.706" rx="6.242" ry="7.706" transform="translate(14.629 15.242) rotate(171.483)" fill="#88e6e8"/>
          <g id="Group_160" data-name="Group 160" transform="translate(5.09 3.71)">
            <path id="Path_786" data-name="Path 786" d="M1194.154,296.567l-.177-1.167a3.375,3.375,0,0,1-1.839-.244l.163-.816a3.126,3.126,0,0,0,1.735.249c.819-.123,1.3-.679,1.2-1.336-.1-.633-.6-.959-1.511-1.177-1.245-.287-2.052-.707-2.2-1.71a1.915,1.915,0,0,1,1.464-2.121l-.176-1.165.716-.107.169,1.118a3.132,3.132,0,0,1,1.559.178l-.174.807a2.818,2.818,0,0,0-1.513-.176c-.89.133-1.144.714-1.075,1.175.09.6.562.835,1.628,1.1,1.26.306,1.948.816,2.1,1.841a2.03,2.03,0,0,1-1.53,2.235l.18,1.2Z" transform="translate(-1191.506 -286.973)" fill="#fff"/>
          </g>
        </g>
        <ellipse id="Ellipse_53" data-name="Ellipse 53" cx="2.216" cy="2.216" rx="2.216" ry="2.216" transform="translate(10.114 12.014)" fill="#88e6e8"/>
        <ellipse id="Ellipse_54" data-name="Ellipse 54" cx="2.216" cy="2.216" rx="2.216" ry="2.216" transform="translate(34.608 8.348)" fill="#88e6e8"/>
        <ellipse id="Ellipse_55" data-name="Ellipse 55" cx="2.216" cy="2.216" rx="2.216" ry="2.216" transform="translate(41.971 2.741)" fill="#88e6e8"/>
        <ellipse id="Ellipse_56" data-name="Ellipse 56" cx="2.216" cy="2.216" rx="2.216" ry="2.216" transform="translate(2.664 7.797)" fill="#88e6e8"/>
        <path id="Path_787" data-name="Path 787" d="M1182.427,296.42c-1.407-.337-3.184-.109-3.4-1.542a2.621,2.621,0,0,1,2.2-2.982c1.431-.214,2.391.992,2.607,2.423S1183.862,296.764,1182.427,296.42Z" transform="translate(-1135.284 -276.931)" fill="#88e6e8"/>
        <path id="Path_788" data-name="Path 788" d="M1196.464,289s8.563,6.631,12.852,4.6c0,0-.894,7.177,5.412,8.271C1212.263,301.848,1197.674,299.463,1196.464,289Z" transform="translate(-1196.286 -279.02)" fill="#def1ff"/>
        <path id="Path_789" data-name="Path 789" d="M1198.722,290.337c.152.117,6.053,4.423,10.7,4.23a6.331,6.331,0,0,0,3.137,5.746C1207.9,299.23,1200.8,296.461,1198.722,290.337Z" transform="translate(-1198.025 -278.049)" fill="#fff"/>
      </g>
      <g id="Group_165" data-name="Group 165" transform="translate(93.423 97.583)">
        <g id="Group_163" data-name="Group 163">
          <ellipse id="Ellipse_57" data-name="Ellipse 57" cx="14.347" cy="14.347" rx="14.347" ry="14.347" fill="#feb04f"/>
        </g>
        <g id="Group_164" data-name="Group 164" transform="translate(3.243 3.243)">
          <ellipse id="Ellipse_58" data-name="Ellipse 58" cx="11.104" cy="11.104" rx="11.104" ry="11.104" fill="url(#linear-gradient-3)"/>
        </g>
        <path id="Path_790" data-name="Path 790" d="M1180.338,283.942l-.23-.92a.417.417,0,0,1,.3-.5l1.615-.4a.418.418,0,0,1,.5.3l.216.876c1.953-.114,3.44.809,3.837,2.413.65,2.531-1.405,3.756-2.767,4.567-1.6.951-1.9,1.312-1.723,2.036s1.407.638,2.1.467a3.976,3.976,0,0,0,1.786-.984.415.415,0,0,1,.588-.017l1.208,1.136a.412.412,0,0,1,.019.588,6.156,6.156,0,0,1-2.166,1.424l.206.833a.419.419,0,0,1-.3.5l-1.614.4a.414.414,0,0,1-.5-.3l-.24-.966a3.385,3.385,0,0,1-3.5-2.482c-.664-2.674,1.461-3.938,2.866-4.774,1.509-.9,1.782-1.2,1.623-1.82-.169-.683-1.334-.584-2-.42a3.378,3.378,0,0,0-2.005,1.445.405.405,0,0,1-.251.2.432.432,0,0,1-.318-.038l-1.445-.818a.417.417,0,0,1-.157-.567A5.627,5.627,0,0,1,1180.338,283.942Z" transform="translate(-1168.808 -274.926)" fill="#fff" fill-rule="evenodd"/>
      </g>
      <g id="Group_168" data-name="Group 168" transform="translate(104.888 73.158)">
        <g id="Group_166" data-name="Group 166" transform="translate(0)">
          <ellipse id="Ellipse_59" data-name="Ellipse 59" cx="11.317" cy="11.317" rx="11.317" ry="11.317" fill="#feb04f"/>
        </g>
        <g id="Group_167" data-name="Group 167" transform="translate(2.576 2.56)">
          <ellipse id="Ellipse_60" data-name="Ellipse 60" cx="8.759" cy="8.759" rx="8.759" ry="8.759" fill="url(#linear-gradient-4)"/>
        </g>
        <path id="Path_791" data-name="Path 791" d="M1176.251,277.211a2.67,2.67,0,0,0,3.194-1.124c1.08-1.884-.254-3.3-1.141-4.24-.951-1.01-1.092-1.3-.838-1.732.275-.481,1.139-.156,1.608.114a2.656,2.656,0,0,1,1.21,1.53.325.325,0,0,0,.147.2.332.332,0,0,0,.249.038l1.272-.308a.326.326,0,0,0,.242-.4,4.435,4.435,0,0,0-1.31-2.157l.372-.648a.325.325,0,0,0-.119-.446l-1.137-.653a.326.326,0,0,0-.446.121l-.354.617a2.693,2.693,0,0,0-3.431,1c-1.042,1.779.252,3.153,1.111,4.064,1.006,1.065,1.16,1.405.866,1.915s-1.2.18-1.694-.1a3.149,3.149,0,0,1-1.141-1.13.328.328,0,0,0-.443-.142l-1.161.6a.323.323,0,0,0-.142.441,4.847,4.847,0,0,0,1.334,1.549l-.337.588a.33.33,0,0,0,.121.449l1.136.652a.328.328,0,0,0,.448-.121Z" transform="translate(-1166.265 -261.255)" fill="#fff" fill-rule="evenodd"/>
      </g>
      <g id="Group_171" data-name="Group 171" transform="translate(39.727 124.367)">
        <g id="Group_169" data-name="Group 169" transform="translate(28.845 0)">
          <rect id="Rectangle_221" data-name="Rectangle 221" width="78.506" height="67.291" fill="#fff"/>
        </g>
        <g id="Group_170" data-name="Group 170" transform="translate(0 0)">
          <rect id="Rectangle_222" data-name="Rectangle 222" width="28.839" height="67.291" fill="#d9e3e4"/>
        </g>
      </g>
      <g id="Group_172" data-name="Group 172" transform="translate(68.48 124.367)">
        <path id="Path_792" data-name="Path 792" d="M1236.538,335.1h-65.53l-13.068-41.657h78.6Z" transform="translate(-1157.94 -293.448)" fill="#d9e3e4"/>
      </g>
      <g id="Group_173" data-name="Group 173" transform="translate(39.716 124.367)">
        <path id="Path_793" data-name="Path 793" d="M1231.864,295.291l-12.722,54.236H1203.36V293.448h28.85Z" transform="translate(-1203.36 -293.448)" fill="#b1bfde"/>
      </g>
      <g id="Group_174" data-name="Group 174" transform="translate(68.41 124.27)">
        <path id="Path_794" data-name="Path 794" d="M1242.967,320.987h-80.62l-13.137-27.595h78.183Z" transform="translate(-1149.21 -293.392)" fill="#fff"/>
      </g>
      <g id="Group_175" data-name="Group 175" transform="translate(27.893 124.27)">
        <path id="Path_795" data-name="Path 795" d="M1243.851,293.392l-11.789,33.194H1203.61l11.789-33.194Z" transform="translate(-1203.61 -293.392)" fill="#d9e3e4"/>
      </g>
    </g>
  </g>
</svg>
