<svg xmlns="http://www.w3.org/2000/svg" xmlns:xlink="http://www.w3.org/1999/xlink" width="540" height="533" viewBox="0 0 540 533"><defs><filter id="a" x="130" y="234" width="264" height="264" filterUnits="userSpaceOnUse"><feOffset dy="3" input="SourceAlpha"/><feGaussianBlur stdDeviation="3" result="b"/><feFlood flood-color="#38ad92" flood-opacity="0.302"/><feComposite operator="in" in2="b"/><feComposite in="SourceGraphic"/></filter><filter id="c" x="16" y="30" width="508" height="130" filterUnits="userSpaceOnUse"><feOffset input="SourceAlpha"/><feGaussianBlur stdDeviation="3" result="d"/><feFlood flood-opacity="0.161"/><feComposite operator="in" in2="d"/><feComposite in="SourceGraphic"/></filter><filter id="e" x="43.355" y="63" width="69.292" height="56.866" filterUnits="userSpaceOnUse"><feOffset dy="3" input="SourceAlpha"/><feGaussianBlur stdDeviation="3" result="f"/><feFlood flood-color="#38ad92" flood-opacity="0.588"/><feComposite operator="in" in2="f"/><feComposite in="SourceGraphic"/></filter><filter id="g" x="70.504" y="98.466" width="27.016" height="33.826" filterUnits="userSpaceOnUse"><feOffset dy="3" input="SourceAlpha"/><feGaussianBlur stdDeviation="3" result="h"/><feFlood flood-color="#38ad92" flood-opacity="0.588"/><feComposite operator="in" in2="h"/><feComposite in="SourceGraphic"/></filter><filter id="i" x="58.482" y="98.466" width="27.016" height="33.826" filterUnits="userSpaceOnUse"><feOffset dy="3" input="SourceAlpha"/><feGaussianBlur stdDeviation="3" result="j"/><feFlood flood-color="#38ad92" flood-opacity="0.588"/><feComposite operator="in" in2="j"/><feComposite in="SourceGraphic"/></filter><filter id="k" x="16" y="192" width="508" height="341" filterUnits="userSpaceOnUse"><feOffset input="SourceAlpha"/><feGaussianBlur stdDeviation="3" result="l"/><feFlood flood-opacity="0.161"/><feComposite operator="in" in2="l"/><feComposite in="SourceGraphic"/></filter><clipPath id="m"><g transform="matrix(1, 0, 0, 1, 0, 0)" filter="url(#a)"><path d="M-2160,441a123.906,123.906,0,0,1-24.789-2.5,122.381,122.381,0,0,1-23.088-7.167,123,123,0,0,1-20.893-11.341,123.887,123.887,0,0,1-18.2-15.019,123.886,123.886,0,0,1-15.019-18.2,123,123,0,0,1-11.341-20.893,122.387,122.387,0,0,1-7.167-23.088A123.907,123.907,0,0,1-2283,318a123.907,123.907,0,0,1,2.5-24.789,122.388,122.388,0,0,1,7.167-23.088,123,123,0,0,1,11.341-20.893,123.9,123.9,0,0,1,15.019-18.2,123.879,123.879,0,0,1,18.2-15.019,123.005,123.005,0,0,1,20.893-11.34,122.383,122.383,0,0,1,23.088-7.167A123.909,123.909,0,0,1-2160,195a123.909,123.909,0,0,1,24.789,2.5,122.386,122.386,0,0,1,23.089,7.167,123.007,123.007,0,0,1,20.893,11.34,123.879,123.879,0,0,1,18.2,15.019,123.9,123.9,0,0,1,15.02,18.2,123.018,123.018,0,0,1,11.34,20.893,122.361,122.361,0,0,1,7.167,23.088A123.911,123.911,0,0,1-2037,318a123.912,123.912,0,0,1-2.5,24.789,122.37,122.37,0,0,1-7.167,23.088,123.018,123.018,0,0,1-11.34,20.893,123.9,123.9,0,0,1-15.02,18.2,123.889,123.889,0,0,1-18.2,15.019,123.016,123.016,0,0,1-20.893,11.341,122.384,122.384,0,0,1-23.089,7.167A123.906,123.906,0,0,1-2160,441Zm0-185a62.07,62.07,0,0,0-62,62,62.07,62.07,0,0,0,62,62,62.07,62.07,0,0,0,62-62A62.07,62.07,0,0,0-2160,256Z" transform="translate(5493 -515)" fill="#ffcb39"/></g></clipPath><filter id="n" x="130" y="234" width="264" height="264" filterUnits="userSpaceOnUse"><feOffset dy="3" input="SourceAlpha"/><feGaussianBlur stdDeviation="3" result="o"/><feFlood flood-color="#38ad92" flood-opacity="0.302"/><feComposite operator="in" in2="o"/><feComposite in="SourceGraphic"/></filter><clipPath id="p"><path d="M160,0,320,277H0Z" transform="translate(3403.522 -312.48) rotate(38)" fill="#344ade" stroke="#707070" stroke-width="1"/></clipPath></defs><g transform="translate(0 -71)"><g transform="translate(0 26.978)"><g transform="translate(0 44)"><rect width="540" height="95" transform="translate(0 0.022)" fill="#4fcaae"/><g transform="matrix(1, 0, 0, 1, 0, 0.02)" filter="url(#c)"><rect width="490" height="112" rx="13" transform="translate(25 39)" fill="#4fcaae"/></g><text transform="translate(129 104.022)" fill="#fff" font-size="25" font-family="Roboto-Bold, Roboto" font-weight="700"><tspan x="0" y="0">Asset Allocation</tspan></text><g transform="translate(52.355 69.022)"><g transform="matrix(1, 0, 0, 1, -52.36, -69)" filter="url(#e)"><path d="M36.165,21.138H30.154V30l-3.005-1.9V15.127h6.011V0H18.132V15.127h6.011V28.1L21.138,30V21.138H15.127V15.127H0V30.154H15.127V24.143h3.005V31.9l-1.5.951,9.016,6.011,9.016-6.011-1.5-.951V24.143h3.005v6.011H51.292V15.127H36.165ZM24.143,6.111h3.005V9.116H24.143ZM9.116,24.143H6.111V21.138H9.116Zm33.059-3.005h3.005v3.005H42.175Z" transform="translate(52.36 69)" fill="#fff"/></g><g transform="matrix(1, 0, 0, 1, -52.36, -69)" filter="url(#g)"><path d="M271,360.037v9.814l9.016-6.011v-9.814Z" transform="translate(-191.5 -249.56)" fill="#fff"/></g><g transform="matrix(1, 0, 0, 1, -52.36, -69)" filter="url(#i)"><path d="M151,354.026v9.814l9.016,6.011v-9.814Z" transform="translate(-83.52 -249.56)" fill="#fff"/></g></g></g></g><g transform="matrix(1, 0, 0, 1, 0, 71)" filter="url(#k)"><rect width="490" height="323" rx="13" transform="translate(25 201)" fill="#fff"/></g><g transform="translate(-8 -25)"><g transform="translate(-3063 656)" clip-path="url(#m)"><g transform="translate(3063 -644)"><g transform="matrix(1, 0, 0, 1, 8, 84)" filter="url(#n)"><path d="M-2160,441a123.906,123.906,0,0,1-24.789-2.5,122.381,122.381,0,0,1-23.088-7.167,123,123,0,0,1-20.893-11.341,123.887,123.887,0,0,1-18.2-15.019,123.886,123.886,0,0,1-15.019-18.2,123,123,0,0,1-11.341-20.893,122.387,122.387,0,0,1-7.167-23.088A123.907,123.907,0,0,1-2283,318a123.907,123.907,0,0,1,2.5-24.789,122.388,122.388,0,0,1,7.167-23.088,123,123,0,0,1,11.341-20.893,123.9,123.9,0,0,1,15.019-18.2,123.879,123.879,0,0,1,18.2-15.019,123.005,123.005,0,0,1,20.893-11.34,122.383,122.383,0,0,1,23.088-7.167A123.909,123.909,0,0,1-2160,195a123.909,123.909,0,0,1,24.789,2.5,122.386,122.386,0,0,1,23.089,7.167,123.007,123.007,0,0,1,20.893,11.34,123.879,123.879,0,0,1,18.2,15.019,123.9,123.9,0,0,1,15.02,18.2,123.018,123.018,0,0,1,11.34,20.893,122.361,122.361,0,0,1,7.167,23.088A123.911,123.911,0,0,1-2037,318a123.912,123.912,0,0,1-2.5,24.789,122.37,122.37,0,0,1-7.167,23.088,123.018,123.018,0,0,1-11.34,20.893,123.9,123.9,0,0,1-15.02,18.2,123.889,123.889,0,0,1-18.2,15.019,123.016,123.016,0,0,1-20.893,11.341,122.384,122.384,0,0,1-23.089,7.167A123.906,123.906,0,0,1-2160,441Zm0-185a62.07,62.07,0,0,0-62,62,62.07,62.07,0,0,0,62,62,62.07,62.07,0,0,0,62-62A62.07,62.07,0,0,0-2160,256Z" transform="translate(2422 45)" fill="#ffcb39"/></g><g transform="translate(-2992 543)" clip-path="url(#p)"><path d="M-2160,441a123.906,123.906,0,0,1-24.789-2.5,122.381,122.381,0,0,1-23.088-7.167,123,123,0,0,1-20.893-11.341,123.887,123.887,0,0,1-18.2-15.019,123.886,123.886,0,0,1-15.019-18.2,123,123,0,0,1-11.341-20.893,122.387,122.387,0,0,1-7.167-23.088A123.907,123.907,0,0,1-2283,318a123.907,123.907,0,0,1,2.5-24.789,122.388,122.388,0,0,1,7.167-23.088,123,123,0,0,1,11.341-20.893,123.9,123.9,0,0,1,15.019-18.2,123.879,123.879,0,0,1,18.2-15.019,123.005,123.005,0,0,1,20.893-11.34,122.383,122.383,0,0,1,23.088-7.167A123.909,123.909,0,0,1-2160,195a123.909,123.909,0,0,1,24.789,2.5,122.386,122.386,0,0,1,23.089,7.167,123.007,123.007,0,0,1,20.893,11.34,123.879,123.879,0,0,1,18.2,15.019,123.9,123.9,0,0,1,15.02,18.2,123.018,123.018,0,0,1,11.34,20.893,122.361,122.361,0,0,1,7.167,23.088A123.911,123.911,0,0,1-2037,318a123.912,123.912,0,0,1-2.5,24.789,122.37,122.37,0,0,1-7.167,23.088,123.018,123.018,0,0,1-11.34,20.893,123.9,123.9,0,0,1-15.02,18.2,123.889,123.889,0,0,1-18.2,15.019,123.016,123.016,0,0,1-20.893,11.341,122.384,122.384,0,0,1-23.089,7.167A123.906,123.906,0,0,1-2160,441Zm0-185a62.07,62.07,0,0,0-62,62,62.07,62.07,0,0,0,62,62,62.07,62.07,0,0,0,62-62A62.07,62.07,0,0,0-2160,256Z" transform="translate(5422 -414)" fill="#344ade"/></g></g></g><path d="M2474.2,377.326l-75.782-75.782H2368" transform="translate(-2283 120)" fill="none" stroke="#141414" stroke-width="1"/><path d="M2368,301.544l75.782,75.782H2474.2" transform="translate(-2003.198 153)" fill="none" stroke="#141414" stroke-width="1"/><g transform="translate(188 494)" stroke="#fff" stroke-width="1"><circle cx="3" cy="3" r="3" stroke="none"/><circle cx="3" cy="3" r="3.5" fill="none"/></g><g transform="translate(362 452)" stroke="#fff" stroke-width="1"><circle cx="3" cy="3" r="3" stroke="none"/><circle cx="3" cy="3" r="3.5" fill="none"/></g><text transform="translate(85 429)" fill="#1b1b1b" font-size="18" font-family="Roboto-Regular, Roboto"><tspan x="-33.398" y="0">70%</tspan></text><text transform="translate(504 539)" fill="#1b1b1b" font-size="18" font-family="Roboto-Regular, Roboto"><tspan x="-33.398" y="0">30%</tspan></text></g></g></svg>