<svg xmlns="http://www.w3.org/2000/svg" width="50.568" height="51.938" viewBox="0 0 50.568 51.938">
  <g id="holdings" transform="translate(-4.853 0)">
    <g id="Group_533" data-name="Group 533" transform="translate(4.853 0)">
      <path id="Path_2000" data-name="Path 2000" d="M52.064,209.193c-2.989.182-6.921,3.172-10.713,4.889-4.648,2.1-11.883.41-11.884.41,1.115-.521,5.651-1.6,6.565-2,4.855-2.134,4.443-6.588,2.131-6.55-3.054.049-4.848.8-10.944,1.632-4.621.629-10.085.4-12.706,1.4-3.7,1.414-9.659,10.92-9.659,10.92l9.215,8.929s5.7-5.618,8.479-5.618c6.324,0,6.58-.085,12.452-.4a12.9,12.9,0,0,0,4.448-.72c7.612-2.574,15.785-9.427,15.936-10.251C55.732,209.918,53.643,209.095,52.064,209.193Z" transform="translate(-4.853 -176.879)" fill="#cacaca"/>
      <path id="Path_2001" data-name="Path 2001" d="M221.588,102.866a.412.412,0,0,0-.413.412v10.494a.412.412,0,0,0,.413.411h3.761a.412.412,0,0,0,.414-.411V103.278a.412.412,0,0,0-.414-.412Z" transform="translate(-190.652 -88.352)" fill="#cacaca"/>
      <path id="Path_2002" data-name="Path 2002" d="M273.191,66.539V82.215a.411.411,0,0,0,.413.411h3.762a.411.411,0,0,0,.413-.411V66.539a.412.412,0,0,0-.413-.414H273.6A.413.413,0,0,0,273.191,66.539Z" transform="translate(-235.329 -56.795)" fill="#cacaca"/>
      <path id="Path_2003" data-name="Path 2003" d="M169.567,76.848a.413.413,0,0,0-.413.414V91.425a.411.411,0,0,0,.413.411h3.762a.411.411,0,0,0,.413-.411V77.262a.413.413,0,0,0-.413-.414Z" transform="translate(-145.971 -66.005)" fill="#cacaca"/>
      <path id="Path_2004" data-name="Path 2004" d="M117.551,108.072a.411.411,0,0,0-.412.411v9.76a.411.411,0,0,0,.412.411h3.762a.411.411,0,0,0,.413-.411v-9.76a.411.411,0,0,0-.413-.411Z" transform="translate(-101.296 -92.823)" fill="#cacaca"/>
      <path id="Path_2005" data-name="Path 2005" d="M117.813,13.861a.552.552,0,0,0,.421.195.539.539,0,0,0,.355-.132l7.517-6.355,6.594,5.044a.547.547,0,0,0,.75-.077l6.091-7.029.853.739a.551.551,0,0,0,.9-.312L142.312.655a.556.556,0,0,0-.179-.521.558.558,0,0,0-.541-.1l-5.08,1.759a.55.55,0,0,0-.181.936l.853.741-4.508,5.2-6.316-4.832a.548.548,0,0,0-.69.018l-9.095,7.687a.55.55,0,0,0-.194.375.559.559,0,0,0,.129.4Z" transform="translate(-100.643 0)" fill="#cacaca"/>
    </g>
  </g>
</svg>
