<svg xmlns="http://www.w3.org/2000/svg" xmlns:xlink="http://www.w3.org/1999/xlink" width="474" height="107" viewBox="0 0 474 107">
  <defs>
    <clipPath id="clip-path">
      <rect id="Rectangle_373" data-name="Rectangle 373" width="20" height="20" transform="translate(322 501)" fill="#4fcaae" stroke="#707070" stroke-width="1"/>
    </clipPath>
  </defs>
  <g id="keyboard-up" transform="translate(-33 -363)">
    <g id="Rectangle_372" data-name="Rectangle 372" transform="translate(33 363)" fill="#fff" stroke="#4fcaae" stroke-width="1">
      <rect width="474" height="107" rx="10" stroke="none"/>
      <rect x="0.5" y="0.5" width="473" height="106" rx="9.5" fill="none"/>
    </g>
    <text id="Enter_stock_details" data-name="Enter stock details" transform="translate(127 413)" fill="#4fcaae" font-size="20" font-family="Roboto-Bold, Roboto" font-weight="700"><tspan x="0" y="0">Enter stock details</tspan></text>
    <text id="If_you_re_having_less_than_10_stocks" data-name="If you&apos;re having less than 10 stocks" transform="translate(127 435)" fill="#262626" font-size="15" font-family="Roboto-Regular, Roboto" opacity="0.4"><tspan x="0" y="0">If you&apos;re having less than 10 stocks</tspan></text>
    <g id="Mask_Group_27" data-name="Mask Group 27" transform="translate(131 -94)" clip-path="url(#clip-path)">
      <path id="right-arrow" d="M15.575,5.23a.833.833,0,0,0-1.149,1.207L20.818,12.5H4.167a.833.833,0,0,0,0,1.667H20.791L14.425,20.23a.833.833,0,1,0,1.149,1.207l7.27-6.925a1.666,1.666,0,0,0-.015-2.371Z" transform="translate(318.667 497.667)" fill="#4fcaae"/>
    </g>
    <path id="tool" d="M26.983,18.6V16.332a4.49,4.49,0,0,1,4.485-4.485,7.481,7.481,0,0,0,7.473-7.473V.5H35.954V4.374a4.491,4.491,0,0,1-4.486,4.486A7.481,7.481,0,0,0,24,16.332V18.6H0V45.5H50.979V18.6ZM9.047,30.555v2.987H6.058V30.555ZM6.058,27.564V24.577H9.047v2.987Zm2.989,8.97v2.987H6.058V36.534Zm5.979-5.979v2.987H12.037V30.555Zm-2.989-2.992V24.577h2.989v2.987Zm2.989,8.97v2.987H12.037V36.534Zm5.979-5.979v2.987H18.016V30.555Zm-2.989-2.992V24.577h2.989v2.987Zm14.947,8.97v2.987H18.016V36.534Zm-5.979-5.979v2.987H23.995V30.555Zm-2.989-2.992V24.577h2.989v2.987Zm8.968,2.992v2.987H29.973V30.555Zm-2.989-2.992V24.577h2.989v2.987Zm8.968,2.992v2.987H35.953V30.555Zm-2.989-2.992V24.577h2.989v2.987Zm8.968,8.97v2.987H35.953V36.534Zm0-5.979v2.987H41.931V30.555Zm-2.989-2.992V24.577h2.989v2.987Zm0,0" transform="translate(57 393.5)" fill="#4fcaae" opacity="0.5"/>
  </g>
</svg>
