<svg xmlns="http://www.w3.org/2000/svg" width="23.849" height="23.847" viewBox="0 0 23.849 23.847">
  <g id="layers" transform="translate(0 -0.009)">
    <g id="Group_856" data-name="Group 856" transform="translate(0 10.272)">
      <g id="Group_855" data-name="Group 855">
        <path id="Path_2581" data-name="Path 2581" d="M23.474,206.61a.843.843,0,0,0-.074-.045l-1.692-.911-9.385,4.969a.852.852,0,0,1-.8,0L2.14,205.654l-1.692.911a.843.843,0,0,0-.3,1.215l11.781,6.237L23.7,207.78A.843.843,0,0,0,23.474,206.61Z" transform="translate(0 -205.654)" fill="#4fcaae"/>
      </g>
    </g>
    <g id="Group_858" data-name="Group 858" transform="translate(0 15.382)">
      <g id="Group_857" data-name="Group 857">
        <path id="Path_2582" data-name="Path 2582" d="M23.759,309.31a.852.852,0,0,0-.345-.345l-1.692-.911-9.385,4.969a.852.852,0,0,1-.8,0l-9.385-4.969-1.692.911a.852.852,0,0,0,0,1.5l11.072,5.962a.852.852,0,0,0,.807,0l11.072-5.962A.852.852,0,0,0,23.759,309.31Z" transform="translate(-0.014 -308.054)" fill="#4fcaae"/>
      </g>
    </g>
    <g id="Group_860" data-name="Group 860" transform="translate(0 0.009)">
      <g id="Group_859" data-name="Group 859" transform="translate(0 0)">
        <path id="Path_2583" data-name="Path 2583" d="M23.474,6.117a.843.843,0,0,0-.074-.045L12.328.111a.852.852,0,0,0-.807,0L.448,6.073a.843.843,0,0,0-.3,1.215l11.781,6.237L23.7,7.287A.843.843,0,0,0,23.474,6.117Z" transform="translate(0 -0.009)" fill="#4fcaae"/>
      </g>
    </g>
  </g>
</svg>
