<svg xmlns="http://www.w3.org/2000/svg" xmlns:xlink="http://www.w3.org/1999/xlink" width="381" height="403" viewBox="0 0 381 403">
  <defs>
    <filter id="Rectangle_401" x="0" y="0" width="381" height="403" filterUnits="userSpaceOnUse">
      <feOffset dy="3" input="SourceAlpha"/>
      <feGaussianBlur stdDeviation="3" result="blur"/>
      <feFlood flood-opacity="0.161"/>
      <feComposite operator="in" in2="blur"/>
      <feComposite in="SourceGraphic"/>
    </filter>
    <clipPath id="clip-path">
      <rect id="Rectangle_343" data-name="Rectangle 343" width="57" height="57" transform="translate(34.49 35.03)" fill="#27bc8b" stroke="#707070" stroke-width="1"/>
    </clipPath>
  </defs>
  <g id="marketsenti" transform="translate(9 6.468)">
    <g transform="matrix(1, 0, 0, 1, -9, -6.47)" filter="url(#Rectangle_401)">
      <rect id="Rectangle_401-2" data-name="Rectangle 401" width="363" height="385" rx="10" transform="translate(9 6)" fill="#fff"/>
    </g>
    <text id="Market_sentiment" data-name="Market sentiment" transform="translate(182 270.532)" fill="#323232" font-size="30" font-family="Roboto-MediumItalic, Roboto" font-weight="500" font-style="italic"><tspan x="-115.986" y="0">Market sentiment</tspan></text>
    <g id="Group_667" data-name="Group 667" transform="translate(118.51 54.502)">
      <rect id="Rectangle_344" data-name="Rectangle 344" width="126" height="127" rx="63" transform="translate(0.49 0.03)" fill="#d9fff2"/>
      <g id="Mask_Group_38" data-name="Mask Group 38" clip-path="url(#clip-path)">
        <g id="line-chart" transform="translate(34.49 35.03)">
          <path id="Path_2285" data-name="Path 2285" d="M29.983,14.255a9.728,9.728,0,0,0-9.433,12.1L23.7,23.2l2.722,2.722,3.21-3.21H26.484v-3.34h8.795v8.795h-3.34V25.128l-5.517,5.517L23.7,27.924l-1.661,1.661a9.724,9.724,0,1,0,7.944-15.33Z" fill="#27bc8b"/>
          <path id="Path_2286" data-name="Path 2286" d="M.675,50.152H41.615V57H.675Z" fill="#27bc8b"/>
          <path id="Path_2287" data-name="Path 2287" d="M36.7,42.322a19.571,19.571,0,0,1-20.525-4.537q-.588-.588-1.118-1.217l-4.3,4.3-3.31-3.31L.675,44.329v2.484H41.188Z" fill="#27bc8b"/>
          <path id="Path_2288" data-name="Path 2288" d="M10.759,36.141,13.1,33.8A19.534,19.534,0,0,1,41.616,8.294V0H.675V39.606l6.774-6.774Z" fill="#27bc8b"/>
          <path id="Path_2289" data-name="Path 2289" d="M48.558,35.5l-2.349,2.349-3.584-3.584a16.294,16.294,0,1,0-2.361,2.361l3.584,3.584L41.5,42.556,47.8,48.862a4.992,4.992,0,0,0,7.06-7.06ZM17.028,23.981A12.954,12.954,0,1,1,29.983,36.936,12.954,12.954,0,0,1,17.028,23.981Z" fill="#27bc8b"/>
        </g>
      </g>
    </g>
  </g>
</svg>
