<svg xmlns="http://www.w3.org/2000/svg" width="48.905" height="42.985" viewBox="0 0 48.905 42.985">
  <g id="megaphone" transform="translate(0 -30.99)">
    <path id="Path_1991" data-name="Path 1991" d="M233.115,32.425V69.677a1.433,1.433,0,0,1-2.446,1.013c-.105-.106-10.414-10.067-20.669-10.955V42.367c10.272-.887,20.564-10.85,20.669-10.956a1.433,1.433,0,0,1,2.446,1.013Z" transform="translate(-189.941 0)" fill="#cacaca"/>
    <path id="Path_1992" data-name="Path 1992" d="M484.866,194.022A5.734,5.734,0,0,1,482,198.984V189.06A5.734,5.734,0,0,1,484.866,194.022Z" transform="translate(-435.961 -142.971)" fill="#cacaca"/>
    <path id="Path_1993" data-name="Path 1993" d="M92.918,365.069a1.43,1.43,0,0,0,.207-1.282,21.105,21.105,0,0,1-.825-3.53,15.412,15.412,0,0,0-2.905-.326,19.934,19.934,0,0,0,.473,2.86H87.741a29.179,29.179,0,0,1-.789-2.866H79.273a11.22,11.22,0,0,1-1.133-.115,48.969,48.969,0,0,0,2.668,10.676,1.433,1.433,0,0,0,1.331.9H89.3a1.433,1.433,0,0,0,1.228-2.169,34.883,34.883,0,0,1-1.726-3.562H91.76A1.433,1.433,0,0,0,92.918,365.069Z" transform="translate(-70.676 -297.413)" fill="#cacaca"/>
    <path id="Path_1994" data-name="Path 1994" d="M8.6,168.2h8.6V151.01H8.6a8.6,8.6,0,0,0,0,17.193Z" transform="translate(0 -108.556)" fill="#cacaca"/>
  </g>
</svg>
