<svg xmlns="http://www.w3.org/2000/svg" width="540" height="94" viewBox="0 0 540 94">
  <g id="New_investment" transform="translate(0 -87)">
    <rect id="Rectangle_316" data-name="Rectangle 316" width="540" height="94" transform="translate(0 87)" fill="#f8fffd"/>
    <text id="New_Portfolio" data-name="New Portfolio" transform="translate(86 131)" fill="#262626" font-size="20" font-family="Roboto-Bold, Roboto" font-weight="700"><tspan x="0" y="0">New Portfolio</tspan></text>
    <text id="Building_a_new_investment_portfolio" data-name="Building a new investment portfolio" transform="translate(86 153)" fill="#262626" font-size="15" font-family="Roboto-Regular, Roboto" opacity="0.4"><tspan x="0" y="0">Building a new investment portfolio</tspan></text>
    <g id="portfolio" transform="translate(33 119)">
      <path id="Path_1963" data-name="Path 1963" d="M18.133,20.625h5.977v1.992H18.133Zm0,0" transform="translate(-4.121 -4.687)" fill="#4fcaae"/>
      <path id="Path_1964" data-name="Path 1964" d="M27.584,19.442h-5.6v1a1,1,0,0,1-1,1H13.016a1,1,0,0,1-1-1v-1h-5.6A2.985,2.985,0,0,1,3.582,17.4L0,6.652V28.406a2.992,2.992,0,0,0,2.988,2.988H31.012A2.992,2.992,0,0,0,34,28.406V6.653L30.418,17.4a2.984,2.984,0,0,1-2.834,2.043Zm0,0" transform="translate(0 -1.512)" fill="#4fcaae"/>
      <path id="Path_1965" data-name="Path 1965" d="M21.488,0H13.52a2.992,2.992,0,0,0-2.988,2.988v1H2.218L5.975,15.257a1,1,0,0,0,.946.681h5.6v-1a1,1,0,0,1,1-1h7.969a1,1,0,0,1,1,1v1h5.6a1,1,0,0,0,.946-.681L32.791,3.984H24.477v-1A2.992,2.992,0,0,0,21.489,0ZM12.524,3.984v-1a1,1,0,0,1,1-1h7.969a1,1,0,0,1,1,1v1Zm0,0" transform="translate(-0.504)" fill="#4fcaae"/>
    </g>
  </g>
</svg>
