<svg xmlns="http://www.w3.org/2000/svg" width="22" height="26.278" viewBox="0 0 22 26.278">
  <g id="news1" transform="translate(-10 -3)">
    <circle id="Ellipse_295" data-name="Ellipse 295" cx="0.5" cy="0.5" r="0.5" transform="translate(12 17)" fill="#cacaca"/>
    <path id="Path_2161" data-name="Path 2161" d="M22,46.049a3.491,3.491,0,0,0,2.7-4.871L22,42.867Z" transform="translate(-6 -19.089)" fill="#cacaca"/>
    <circle id="Ellipse_296" data-name="Ellipse 296" cx="0.5" cy="0.5" r="0.5" transform="translate(17 15)" fill="#cacaca"/>
    <circle id="Ellipse_297" data-name="Ellipse 297" cx="0.5" cy="0.5" r="0.5" transform="translate(23 18)" fill="#cacaca"/>
    <path id="Path_2163" data-name="Path 2163" d="M17,46.049V42.866l-2.7-1.688A3.491,3.491,0,0,0,17,46.049Z" transform="translate(-2 -19.089)" fill="#cacaca"/>
    <circle id="Ellipse_298" data-name="Ellipse 298" cx="0.5" cy="0.5" r="0.5" transform="translate(29 15)" fill="#cacaca"/>
    <path id="Path_2164" data-name="Path 2164" d="M21,38.242a3.49,3.49,0,0,0-5.339,0l2.67,1.668Z" transform="translate(-2.83 -17)" fill="#cacaca"/>
    <path id="Path_2165" data-name="Path 2165" d="M10,39.278A1.979,1.979,0,0,1,11,39H32V23H10ZM31,38H21V37H31ZM21,36V35h2v1Zm10,0H24V35h7Zm0-2H21V33H31ZM21,32V31h1v1Zm10,0H23V31h8ZM12.5,26a1.49,1.49,0,0,1,1.12.513l2.386-.955C16,25.539,16,25.52,16,25.5a1.5,1.5,0,0,1,3,0,1.449,1.449,0,0,1-.019.181l3.48,1.74a1.489,1.489,0,0,1,2.077,0l3.48-1.74A1.467,1.467,0,0,1,28,25.5a1.508,1.508,0,1,1,.462,1.078l-3.48,1.74A1.467,1.467,0,0,1,25,28.5a1.5,1.5,0,0,1-3,0,1.457,1.457,0,0,1,.018-.182l-3.48-1.74a1.484,1.484,0,0,1-2.159-.091l-2.386.955c0,.02.006.038.006.059A1.5,1.5,0,1,1,12.5,26Zm3,3A4.5,4.5,0,1,1,11,33.5,4.505,4.505,0,0,1,15.5,29Z" transform="translate(0 -10)" fill="#cacaca"/>
    <path id="Path_2166" data-name="Path 2166" d="M11,3a1,1,0,0,0-1,1v8H32V3Zm4.5,7H14.153L13,6.924V10H12V5h1.346L14.5,8.076V5h1Zm4-4h-2V7h2V8h-2V9h2v1h-3V5h3ZM26,8.676a1.324,1.324,0,0,1-2.622.259L23.25,8.3l-.127.635A1.324,1.324,0,0,1,20.5,8.676V5h1V8.676a.324.324,0,0,0,.642.063L22.59,6.5h1.32l.448,2.24A.324.324,0,0,0,25,8.676V5h1ZM30,6.5H29V6h-.5a.5.5,0,0,0,0,1,1.5,1.5,0,0,1,0,3H27V8.5h1V9h.5a.5.5,0,0,0,0-1,1.5,1.5,0,0,1,0-3H30Z" fill="#cacaca"/>
  </g>
</svg>
