<svg xmlns="http://www.w3.org/2000/svg" xmlns:xlink="http://www.w3.org/1999/xlink" width="508" height="341" viewBox="0 0 508 341"><defs><filter id="a" x="114" y="42" width="264" height="264" filterUnits="userSpaceOnUse"><feOffset dy="3" input="SourceAlpha"/><feGaussianBlur stdDeviation="3" result="b"/><feFlood flood-color="#38ad92" flood-opacity="0.302"/><feComposite operator="in" in2="b"/><feComposite in="SourceGraphic"/></filter><filter id="c" x="0" y="0" width="508" height="341" filterUnits="userSpaceOnUse"><feOffset input="SourceAlpha"/><feGaussianBlur stdDeviation="3" result="d"/><feFlood flood-opacity="0.161"/><feComposite operator="in" in2="d"/><feComposite in="SourceGraphic"/></filter><clipPath id="e"><g transform="matrix(1, 0, 0, 1, 0, 0)" filter="url(#a)"><path d="M-2160,441a123.906,123.906,0,0,1-24.789-2.5,122.381,122.381,0,0,1-23.088-7.167,123,123,0,0,1-20.893-11.341,123.887,123.887,0,0,1-18.2-15.019,123.886,123.886,0,0,1-15.019-18.2,123,123,0,0,1-11.341-20.893,122.387,122.387,0,0,1-7.167-23.088A123.907,123.907,0,0,1-2283,318a123.907,123.907,0,0,1,2.5-24.789,122.388,122.388,0,0,1,7.167-23.088,123,123,0,0,1,11.341-20.893,123.9,123.9,0,0,1,15.019-18.2,123.879,123.879,0,0,1,18.2-15.019,123.005,123.005,0,0,1,20.893-11.34,122.383,122.383,0,0,1,23.088-7.167A123.909,123.909,0,0,1-2160,195a123.909,123.909,0,0,1,24.789,2.5,122.386,122.386,0,0,1,23.089,7.167,123.007,123.007,0,0,1,20.893,11.34,123.879,123.879,0,0,1,18.2,15.019,123.9,123.9,0,0,1,15.02,18.2,123.018,123.018,0,0,1,11.34,20.893,122.361,122.361,0,0,1,7.167,23.088A123.911,123.911,0,0,1-2037,318a123.912,123.912,0,0,1-2.5,24.789,122.37,122.37,0,0,1-7.167,23.088,123.018,123.018,0,0,1-11.34,20.893,123.9,123.9,0,0,1-15.02,18.2,123.889,123.889,0,0,1-18.2,15.019,123.016,123.016,0,0,1-20.893,11.341,122.384,122.384,0,0,1-23.089,7.167A123.906,123.906,0,0,1-2160,441Zm0-185a62.07,62.07,0,0,0-62,62,62.07,62.07,0,0,0,62,62,62.07,62.07,0,0,0,62-62A62.07,62.07,0,0,0-2160,256Z" transform="translate(5493 -515)" fill="#ffcb39"/></g></clipPath><filter id="f" x="114" y="42" width="264" height="264" filterUnits="userSpaceOnUse"><feOffset dy="3" input="SourceAlpha"/><feGaussianBlur stdDeviation="3" result="g"/><feFlood flood-color="#38ad92" flood-opacity="0.302"/><feComposite operator="in" in2="g"/><feComposite in="SourceGraphic"/></filter><clipPath id="h"><path d="M160,0,320,277H0Z" transform="translate(3403.522 -312.48) rotate(38)" fill="#344ade" stroke="#707070" stroke-width="1"/></clipPath></defs><g transform="translate(-16 -263)"><g transform="matrix(1, 0, 0, 1, 16, 263)" filter="url(#c)"><rect width="490" height="323" rx="13" transform="translate(9 9)" fill="#fff"/></g><g transform="translate(-8 -25)"><g transform="translate(-3063 656)" clip-path="url(#e)"><g transform="translate(3063 -644)"><g transform="matrix(1, 0, 0, 1, 24, 276)" filter="url(#f)"><path d="M-2160,441a123.906,123.906,0,0,1-24.789-2.5,122.381,122.381,0,0,1-23.088-7.167,123,123,0,0,1-20.893-11.341,123.887,123.887,0,0,1-18.2-15.019,123.886,123.886,0,0,1-15.019-18.2,123,123,0,0,1-11.341-20.893,122.387,122.387,0,0,1-7.167-23.088A123.907,123.907,0,0,1-2283,318a123.907,123.907,0,0,1,2.5-24.789,122.388,122.388,0,0,1,7.167-23.088,123,123,0,0,1,11.341-20.893,123.9,123.9,0,0,1,15.019-18.2,123.879,123.879,0,0,1,18.2-15.019,123.005,123.005,0,0,1,20.893-11.34,122.383,122.383,0,0,1,23.088-7.167A123.909,123.909,0,0,1-2160,195a123.909,123.909,0,0,1,24.789,2.5,122.386,122.386,0,0,1,23.089,7.167,123.007,123.007,0,0,1,20.893,11.34,123.879,123.879,0,0,1,18.2,15.019,123.9,123.9,0,0,1,15.02,18.2,123.018,123.018,0,0,1,11.34,20.893,122.361,122.361,0,0,1,7.167,23.088A123.911,123.911,0,0,1-2037,318a123.912,123.912,0,0,1-2.5,24.789,122.37,122.37,0,0,1-7.167,23.088,123.018,123.018,0,0,1-11.34,20.893,123.9,123.9,0,0,1-15.02,18.2,123.889,123.889,0,0,1-18.2,15.019,123.016,123.016,0,0,1-20.893,11.341,122.384,122.384,0,0,1-23.089,7.167A123.906,123.906,0,0,1-2160,441Zm0-185a62.07,62.07,0,0,0-62,62,62.07,62.07,0,0,0,62,62,62.07,62.07,0,0,0,62-62A62.07,62.07,0,0,0-2160,256Z" transform="translate(2406 -147)" fill="#ffcb39"/></g><g transform="translate(-2992 543)" clip-path="url(#h)"><path d="M-2160,441a123.906,123.906,0,0,1-24.789-2.5,122.381,122.381,0,0,1-23.088-7.167,123,123,0,0,1-20.893-11.341,123.887,123.887,0,0,1-18.2-15.019,123.886,123.886,0,0,1-15.019-18.2,123,123,0,0,1-11.341-20.893,122.387,122.387,0,0,1-7.167-23.088A123.907,123.907,0,0,1-2283,318a123.907,123.907,0,0,1,2.5-24.789,122.388,122.388,0,0,1,7.167-23.088,123,123,0,0,1,11.341-20.893,123.9,123.9,0,0,1,15.019-18.2,123.879,123.879,0,0,1,18.2-15.019,123.005,123.005,0,0,1,20.893-11.34,122.383,122.383,0,0,1,23.088-7.167A123.909,123.909,0,0,1-2160,195a123.909,123.909,0,0,1,24.789,2.5,122.386,122.386,0,0,1,23.089,7.167,123.007,123.007,0,0,1,20.893,11.34,123.879,123.879,0,0,1,18.2,15.019,123.9,123.9,0,0,1,15.02,18.2,123.018,123.018,0,0,1,11.34,20.893,122.361,122.361,0,0,1,7.167,23.088A123.911,123.911,0,0,1-2037,318a123.912,123.912,0,0,1-2.5,24.789,122.37,122.37,0,0,1-7.167,23.088,123.018,123.018,0,0,1-11.34,20.893,123.9,123.9,0,0,1-15.02,18.2,123.889,123.889,0,0,1-18.2,15.019,123.016,123.016,0,0,1-20.893,11.341,122.384,122.384,0,0,1-23.089,7.167A123.906,123.906,0,0,1-2160,441Zm0-185a62.07,62.07,0,0,0-62,62,62.07,62.07,0,0,0,62,62,62.07,62.07,0,0,0,62-62A62.07,62.07,0,0,0-2160,256Z" transform="translate(5422 -414)" fill="#344ade"/></g></g></g><path d="M2474.2,377.326l-75.782-75.782H2368" transform="translate(-2283 120)" fill="none" stroke="#141414" stroke-width="1"/><path d="M2368,301.544l75.782,75.782H2474.2" transform="translate(-2003.198 153)" fill="none" stroke="#141414" stroke-width="1"/><g transform="translate(188 494)" stroke="#fff" stroke-width="1"><circle cx="3" cy="3" r="3" stroke="none"/><circle cx="3" cy="3" r="3.5" fill="none"/></g><g transform="translate(362 452)" stroke="#fff" stroke-width="1"><circle cx="3" cy="3" r="3" stroke="none"/><circle cx="3" cy="3" r="3.5" fill="none"/></g><text transform="translate(85 429)" fill="#1b1b1b" font-size="18" font-family="Roboto-Regular, Roboto"><tspan x="-33.398" y="0">70%</tspan></text><text transform="translate(504 539)" fill="#1b1b1b" font-size="18" font-family="Roboto-Regular, Roboto"><tspan x="-33.398" y="0">30%</tspan></text></g></g></svg>