<svg xmlns="http://www.w3.org/2000/svg" xmlns:xlink="http://www.w3.org/1999/xlink" width="381" height="403" viewBox="0 0 381 403">
  <defs>
    <filter id="Rectangle_398" x="0" y="0" width="381" height="403" filterUnits="userSpaceOnUse">
      <feOffset dy="3" input="SourceAlpha"/>
      <feGaussianBlur stdDeviation="3" result="blur"/>
      <feFlood flood-opacity="0.161"/>
      <feComposite operator="in" in2="blur"/>
      <feComposite in="SourceGraphic"/>
    </filter>
    <clipPath id="clip-path">
      <rect id="Rectangle_343" data-name="Rectangle 343" width="57" height="57" transform="translate(31.49 35.132)" fill="#27bc8b" stroke="#707070" stroke-width="1"/>
    </clipPath>
  </defs>
  <g id="opm" transform="translate(9 6)">
    <g transform="matrix(1, 0, 0, 1, -9, -6)" filter="url(#Rectangle_398)">
      <rect id="Rectangle_398-2" data-name="Rectangle 398" width="363" height="385" rx="10" transform="translate(9 6)" fill="#fff"/>
    </g>
    <text id="Quality_of_management" data-name="Quality of management" transform="translate(182 289)" fill="#323232" font-size="30" font-family="Roboto-MediumItalic, Roboto" font-weight="500" font-style="italic"><tspan x="-153.552" y="0">Quality of management</tspan></text>
    <g id="Group_664" data-name="Group 664" transform="translate(118.51 53.868)">
      <rect id="Rectangle_344" data-name="Rectangle 344" width="126" height="127" rx="63" transform="translate(0.49 0.132)" fill="#d9fff2"/>
      <g id="Mask_Group_40" data-name="Mask Group 40" clip-path="url(#clip-path)">
        <g id="sports-and-competition" transform="translate(31.49 35.132)">
          <g id="Group_764" data-name="Group 764">
            <path id="Path_2293" data-name="Path 2293" d="M54.15,2.85H45.6V0H11.4V2.85H2.85A2.693,2.693,0,0,0,0,5.7v6.84A12.928,12.928,0,0,0,11.4,25.365v.285A17.141,17.141,0,0,0,24.8,42.465L22.8,48.45H16.245a2.737,2.737,0,0,0-2.565,2L11.4,57H45.6l-2.28-6.555a2.737,2.737,0,0,0-2.565-2H34.2l-2-5.985A17.141,17.141,0,0,0,45.6,25.65v-.285A12.928,12.928,0,0,0,57,12.54V5.7A2.693,2.693,0,0,0,54.15,2.85ZM11.4,19.665A7.611,7.611,0,0,1,5.7,12.54V8.55h5.7ZM34.2,28.5l-5.7-3.135L22.8,28.5l1.425-5.7L19.95,17.1h5.985L28.5,11.4l2.565,5.7H37.05l-4.275,5.7ZM51.3,12.54a7.354,7.354,0,0,1-5.7,7.125V8.55h5.7Z" fill="#27bc8b"/>
          </g>
        </g>
      </g>
    </g>
  </g>
</svg>
