<svg xmlns="http://www.w3.org/2000/svg" xmlns:xlink="http://www.w3.org/1999/xlink" width="540" height="94" viewBox="0 0 540 94">
  <defs>
    <clipPath id="clip-path">
      <rect id="Rectangle_455" data-name="Rectangle 455" width="34" height="34" transform="translate(32 117)" fill="#4fcaae" stroke="#707070" stroke-width="1"/>
    </clipPath>
  </defs>
  <g id="signup" transform="translate(0 -87)">
    <rect id="Rectangle_316" data-name="Rectangle 316" width="540" height="94" transform="translate(0 87)" fill="#f8fffd"/>
    <text id="OTP" data-name="OTP" transform="translate(86 131)" fill="#262626" font-size="20" font-family="Roboto-Bold, Roboto" font-weight="700"><tspan x="0" y="0">OTP</tspan></text>
    <text id="Enter_otp_to_join_us" data-name="Enter otp to join us" transform="translate(86 153)" fill="#262626" font-size="15" font-family="Roboto-Regular, Roboto" opacity="0.4"><tspan x="0" y="0">Enter otp to join us</tspan></text>
    <g id="Mask_Group_58" data-name="Mask Group 58" clip-path="url(#clip-path)">
      <g id="add" transform="translate(32 117)">
        <g id="Group_834" data-name="Group 834">
          <g id="Group_833" data-name="Group 833">
            <path id="Path_2563" data-name="Path 2563" d="M3.4,6.8H0V30.6A3.4,3.4,0,0,0,3.4,34H27.2V30.6H3.4Z" fill="#4fcaae"/>
            <path id="Path_2564" data-name="Path 2564" d="M30.6,0H10.2A3.4,3.4,0,0,0,6.8,3.4V23.8a3.4,3.4,0,0,0,3.4,3.4H30.6A3.4,3.4,0,0,0,34,23.8V3.4A3.4,3.4,0,0,0,30.6,0ZM28.9,15.3H22.1v6.8H18.7V15.3H11.9V11.9h6.8V5.1h3.4v6.8h6.8Z" fill="#4fcaae"/>
          </g>
        </g>
      </g>
    </g>
  </g>
</svg>
