<svg xmlns="http://www.w3.org/2000/svg" xmlns:xlink="http://www.w3.org/1999/xlink" width="1272.998" height="796.75" viewBox="0 0 1272.998 796.75">
  <defs>
    <linearGradient id="linear-gradient" x1="1.207" y1="1.037" x2="-0.104" y2="-0.007" gradientUnits="objectBoundingBox">
      <stop offset="0" stop-color="#fff"/>
      <stop offset="0.004" stop-color="#fff"/>
      <stop offset="1" stop-color="#f1f1f1"/>
    </linearGradient>
    <clipPath id="clip-path">
      <path id="Path_2174" data-name="Path 2174" d="M1121.306,4440.819s9.268-1.539,11.849-9.563-4.927-11.1-4.927-11.1a6.913,6.913,0,0,0-.727-9.014c-4.2-4.617-7.544-2.858-7.544-2.858s3.168-6.486-2.288-9.234-11.2,2.089-11.2,2.089a19.815,19.815,0,0,0-19.416-7.255c-12.905,2.2-10.441,9.894-19.475,9.894s-14.664,2.309-16.659,8.464,1.877,11.433,1.877,11.433-7.508,4.617-5.4,15.28,4.341,10.993,2.581,18.248,5.24,10.223,7.587,10.3,3.676,1.1,4.614,4.617,9.268,8.941,19.123,4.4,18.145-21.033,18.145-21.033Z" transform="translate(-1047.022 -4393.548)" fill="#0b0b6d"/>
    </clipPath>
    <clipPath id="clip-path-2">
      <path id="Path_2178" data-name="Path 2178" d="M1170.17,4507.643s3.285,23.012,1.721,39.135-15.017,14.217-18.614,14.071-4.025,8.709-3.243,14.278c0,0-9.271,14.6-23.818-2.7,0,0,7.352-14.217,3.128-21.766,0,0,1.955-6.156-2.034-10.553,0,0-7.43-.513-6.8-10.114s7.117-5.936,7.117-5.936,9.385-9.82,10.011-17.149C1137.635,4506.91,1164.148,4514.532,1170.17,4507.643Z" transform="translate(-1120.469 -4506.91)" fill="#fdb2d0"/>
    </clipPath>
    <clipPath id="clip-path-3">
      <path id="Path_2182" data-name="Path 2182" d="M1237.348,4719.649a3.192,3.192,0,0,1,2.744-3.249c2.94-.667,13.424,7.165,21.634,25.227s17.605,45.977,17.605,45.977-10.61,21.22-30.567,15.663Z" transform="translate(-1237.345 -4716.361)" fill="#dee7ff"/>
    </clipPath>
    <clipPath id="clip-path-4">
      <path id="Path_2186" data-name="Path 2186" d="M1382.538,5190.38s38.146,1.516,54.945,1.895,45.219,2.4,59.113,12.252,14.4,32.083,12.5,48.25-41.43,136.793-41.43,136.793l-10.61-2.273,7.958-129.972-104.964-39.788Z" transform="translate(-1360.055 -5190.38)" fill="#0627b5"/>
    </clipPath>
    <clipPath id="clip-path-5">
      <path id="Path_2191" data-name="Path 2191" d="M1354.589,5224.708s52.292,4.042,70.986,5.053,48.6,14.9,45.265,54.06-25.065,134.394-25.065,134.394-23.232,14.146-38.641-3.032c0,0,5.807-44.284,7.957-67.954,2.238-24.634,6.715-46.853,2.926-55.948s-83.891-1.271-83.891-1.271Z" transform="translate(-1334.127 -5224.708)" fill="#122fd8"/>
    </clipPath>
    <clipPath id="clip-path-6">
      <path id="Path_2195" data-name="Path 2195" d="M1057.923,4696.332s-24.726.531-32.979,14.678-9.6,55.913-8.589,71.238,5.293,113.832,24.336,143.572c15.124,23.62,87.967,19.575,87.967,19.575l32.154-80.2s-32.588,1.082-42.819-15.374-11.368-33.886-9.852-53.591,5.557-36.377,1.01-57.345-10.736-34.988-16.167-37.261a38.427,38.427,0,0,0-11.242-2.59Z" transform="translate(-1016.065 -4696.332)" fill="#fff"/>
    </clipPath>
    <clipPath id="clip-path-7">
      <path id="Path_2199" data-name="Path 2199" d="M1332.438,4687.563c-.253-8.463-3.537-9.6-11.747-9.726s-6.189-8.21-6.189-8.21l-163.7,228.873c9.251,23.313,35.366,20.7,35.366,20.7l164.754-224.5a39.286,39.286,0,0,1-6.109-3.6C1341.658,4688.826,1332.691,4696.025,1332.438,4687.563Z" transform="translate(-1150.805 -4669.627)" fill="#ff9e1f"/>
    </clipPath>
    <clipPath id="clip-path-8">
      <path id="Path_2204" data-name="Path 2204" d="M944.162,4957.88s-7.41,17.994-9.768,36.027,31.662,34.033,41.6,38.749,47.492,21.725,47.492,21.725,22.39,23.109,37.725,22.736c13.81-.337,12.125-15.663-6.063-25.431-17.9-9.61-22.736-12.631-22.736-12.631s-61.133-37.219-65.681-43.282,3.629-22.439,3.629-22.439Z" transform="translate(-934.277 -4957.88)" fill="#fdb2d0"/>
    </clipPath>
    <clipPath id="clip-path-9">
      <path id="Path_2208" data-name="Path 2208" d="M999.468,4735.435c4.446,4.025,5.052,20.546,5.221,32.335s-16.5,61.471-16.5,61.471-27.114,6.905-36.041-21.894c0,0,11.789-40.082,19.368-56.082S987.005,4724.151,999.468,4735.435Z" transform="translate(-952.144 -4730.84)" fill="#149468"/>
    </clipPath>
    <clipPath id="clip-path-10">
      <path id="Path_2215" data-name="Path 2215" d="M1593.372,5828.091c-.806-1.736-5.45-7.295-10.736-13.7l-7.248,8.362-3.291-2.917s4.449-5.19,7.648-8.96q-.707-.864-1.413-1.732l-7.711,8.9-3.291-2.917s4.927-5.748,8.14-9.539q-.864-1.087-1.7-2.154l-8.6,9.927-3.291-2.917s6.035-7.041,9.1-10.676c-2.936-3.965-5.107-7.325-5.586-9.222a75.624,75.624,0,0,1-2.094-11.221l-30.071-4.742s-3.142,10.428-8.079,16.412-7.779,13.464,3.291,19.148,13.277,5.013,21.057,15.784,23.825,21.02,34,17.429S1595.317,5832.28,1593.372,5828.091Z" transform="translate(-1520.794 -5774.577)" fill="#fcaa23"/>
    </clipPath>
    <clipPath id="clip-path-11">
      <rect id="Rectangle_413" data-name="Rectangle 413" width="170.897" height="41.682" rx="20.841" fill="#3fdaa5"/>
    </clipPath>
    <clipPath id="clip-path-15">
      <path id="Path_2226" data-name="Path 2226" d="M3324.788,4424.223s-11.145,1.82-11.031-7.278,3.753-10.235-2.161-16.262-3.753-15.921,1.024-18.2,13.419,1.592,13.76-6.6,5.914-16.6,25.474-11.486,19.674,10.235,19.674,10.235,6.482-3.98,15.921,8.984,9.439,35.481,9.1,43.214,7.847,37.415,24.223,56.52,30.478,45.261,18.2,73.92-53.9,34.8-76.649,21.152-13.005-86.656-18.1-116.907S3355.039,4427.18,3324.788,4424.223Z" transform="translate(-3308.013 -4362.844)" fill="#0b0b6d"/>
    </clipPath>
    <clipPath id="clip-path-16">
      <path id="Path_2229" data-name="Path 2229" d="M3438.441,5630.97c-1.4-2.438-2.63-5.827-3.936-11.859-3.284-15.157-19.844-68.713-29.949-94.479s-14.787-29.1-14.787-29.1l-32.061,2.323s56.544,120.647,58.091,138.837A32.751,32.751,0,0,0,3438.441,5630.97Z" transform="translate(-3357.708 -5495.531)" fill="#fdb2d0"/>
    </clipPath>
    <clipPath id="clip-path-17">
      <path id="Path_2233" data-name="Path 2233" d="M3676.3,5472.692c-19.521-8.5-36.061-18.125-53.729-30.277-21.747-14.959-57.176-26.862-57.176-26.862l-12.178-16.877-27.459,18.393s13.239,20.968,26.5,25.515,104.458,37.009,109.763,50.271c.078.194.151.394.221.594C3673.252,5490.133,3675.763,5478.815,3676.3,5472.692Z" transform="translate(-3525.76 -5398.676)" fill="#fdb2d0"/>
    </clipPath>
    <clipPath id="clip-path-18">
      <path id="Path_2237" data-name="Path 2237" d="M3282.637,4974.236l-1.781,2.768s-2.653,62.4-4.018,98.56,21.945,87.34,21.945,87.34,50.128,13.745,96.1-33.436c34.572-35.48,54.132-41.167,54.132-41.167s-7.051-.91-29.113-22.29-29.34-25.246-38.666-48.9-28.279-43.973-35.633-45.868Z" transform="translate(-3276.78 -4971.242)" fill="#1f1fd6"/>
    </clipPath>
    <clipPath id="clip-path-19">
      <path id="Path_2243" data-name="Path 2243" d="M3218.515,4364.1l-1.441,2.578a51.942,51.942,0,0,1-14.633-1.972c-8.339-2.274-16-10.462-24.185-24.715s-22.745-45.337-22.745-45.337l18.5-65.2-16.528-15.314s-9.7,23.351-15.77,37.453-17.892,44.068-12.13,54.71,38.514,68.262,42.457,84.032-.758,15.163,6.217,36.24,5.307,55.193,5.307,55.193,5.611,13.8,30.326,12.585,34.42-18.347,34.42-18.347-4.094-7.582-1.82-19.712,4.67-38.291,18.923-53.454,43.7-47.077,56.741-73.764a44.938,44.938,0,0,0,3.745-17.589c.236-10.577-5.337-82.563-5.337-82.563l-22.289,7.506s4.321,66.964,3.411,74.65-28.959,44.385-34.418,48.646-21.434,14.364-29.873,9.229Z" transform="translate(-3128.044 -4214.14)" fill="#f0f5ff"/>
    </clipPath>
    <clipPath id="clip-path-20">
      <path id="Path_2246" data-name="Path 2246" d="M3348.093,4468.018s-15.921,36.694-1.972,42.3c5.156,1.971,11.827-.758,12.586,2.426s-2.729,19.105-2.729,19.105,8.188,9.628,20.318,2.274c0,0-9.325-13.874-2.729-15.921s2.2-7.658,4.777-12.813,12.054-3.412,12.054-10.235-7.506-6.293-7.278-11.6.834-16.907.834-16.907S3363.71,4474.917,3348.093,4468.018Z" transform="translate(-3340.394 -4466.653)" fill="#fdb2d0"/>
    </clipPath>
  </defs>
  <g id="Ourinvestment" transform="translate(-13175.704 7717.472)">
    <rect id="Rectangle_405" data-name="Rectangle 405" width="159.15" height="111.707" transform="translate(13857.427 -7034.407)" fill="#d5fff1"/>
    <rect id="Rectangle_406" data-name="Rectangle 406" width="159.15" height="171.486" transform="translate(14031.563 -7094.186)" fill="#d5fff1"/>
    <g id="Group_669" data-name="Group 669" transform="translate(13417.373 -7612.821)">
      <path id="Path_2168" data-name="Path 2168" d="M1875.7,4089a57.714,57.714,0,0,0-57.713-57.714H1253.128A57.714,57.714,0,0,0,1195.414,4089v1.651H1875.7Z" transform="translate(-1195.414 -4031.285)" fill="#1f1fd6" stroke="#4eeeb7" stroke-miterlimit="10" stroke-width="7"/>
      <path id="Path_2169" data-name="Path 2169" d="M1195.414,4202.922v347.74a57.714,57.714,0,0,0,57.714,57.714h564.856a57.714,57.714,0,0,0,57.713-57.714v-347.74Z" transform="translate(-1195.414 -4143.556)" stroke="#4eeeb7" stroke-miterlimit="10" stroke-width="7" fill="url(#linear-gradient)"/>
      <rect id="Rectangle_407" data-name="Rectangle 407" width="322.342" height="161.709" rx="44.092" transform="translate(308.144 258.918)" fill="#eef2ff" opacity="0.48"/>
    </g>
    <path id="Rectangle_408" data-name="Rectangle 408" d="M35.145,0h250a0,0,0,0,1,0,0V115.008a0,0,0,0,1,0,0h-250A35.145,35.145,0,0,1,0,79.863V35.145A35.145,35.145,0,0,1,35.145,0Z" transform="translate(13812.514 -7495.963)" fill="#eef2ff" opacity="0.48"/>
    <path id="Rectangle_409" data-name="Rectangle 409" d="M0,0H227.161a51.828,51.828,0,0,1,51.828,51.828V201.061a51.828,51.828,0,0,1-51.828,51.828H0a0,0,0,0,1,0,0V0A0,0,0,0,1,0,0Z" transform="translate(13417.373 -7493.008)" fill="#eef2ff" opacity="0.48"/>
    <rect id="Rectangle_410" data-name="Rectangle 410" width="356.932" height="252.889" rx="58.022" transform="translate(13327.052 -7505.71)" fill="#32d29b" opacity="0.1"/>
    <g id="Group_670" data-name="Group 670" transform="translate(13333.336 -7447.856)">
      <path id="Path_2170" data-name="Path 2170" d="M1178.92,4608.644c-12.518,0-26.68-10.416-42.706-22.2-15.159-11.149-32.34-23.787-51.946-30.906-42.571-15.458-127.045,51.045-127.893,51.718a2.421,2.421,0,1,1-3.011-3.792,407.593,407.593,0,0,1,48.815-32.306c15.844-8.819,30.376-15.169,43.192-18.874,16.3-4.712,29.946-5.148,40.55-1.3,20.26,7.357,37.74,20.214,53.162,31.558,17.729,13.039,33.04,24.3,44.7,20.513,8.342-2.708,18.631-18.986,29.524-36.218,8.7-13.762,18.56-29.361,29.175-40.771,12.551-13.492,24.395-19.233,36.205-17.55a2.421,2.421,0,0,1-.683,4.794c-10.126-1.442-20.585,3.809-31.977,16.055-10.308,11.08-20.04,26.476-28.628,40.06-11.868,18.774-22.117,34.988-32.121,38.237A20.453,20.453,0,0,1,1178.92,4608.644Z" transform="translate(-952.448 -4508.227)" fill="#1fc28a"/>
    </g>
    <g id="Group_672" data-name="Group 672" transform="translate(13366.048 -7487.522)">
      <path id="Path_2171" data-name="Path 2171" d="M1121.306,4440.819s9.268-1.539,11.849-9.563-4.927-11.1-4.927-11.1a6.913,6.913,0,0,0-.727-9.014c-4.2-4.617-7.544-2.858-7.544-2.858s3.168-6.486-2.288-9.234-11.2,2.089-11.2,2.089a19.815,19.815,0,0,0-19.416-7.255c-12.905,2.2-10.441,9.894-19.475,9.894s-14.664,2.309-16.659,8.464,1.877,11.433,1.877,11.433-7.508,4.617-5.4,15.28,4.341,10.993,2.581,18.248,5.24,10.223,7.587,10.3,3.676,1.1,4.614,4.617,9.268,8.941,19.123,4.4,18.145-21.033,18.145-21.033Z" transform="translate(-1047.022 -4393.548)" fill="#0b0b6d"/>
      <g id="Group_671" data-name="Group 671" transform="translate(0 0)" clip-path="url(#clip-path)">
        <path id="Path_2172" data-name="Path 2172" d="M1141.478,4436.883c0,.252,4.547,8.5-4.042,15.747s-36.882-1.853-36.882-1.853a19.814,19.814,0,0,1-3.2,15.073c-5.137,7.157-11.536,7.663-11.031,14.483s3.269,14.385-3.537,15.915a44.492,44.492,0,0,1-13.052.842l5.895,10.02,19.031,2.189s8.084-3.452,8.084-3.873,8.841-20.209,8.841-20.209l2.947-12.547,35.114,1.01,8.084-14.062-7.831-20.209Z" transform="translate(-1061.879 -4421.895)" fill="#05054c"/>
        <path id="Path_2173" data-name="Path 2173" d="M1034.447,4464.051s-5.495-1.769-3.79-8.4.379-10.231-1.389-17.557-.947-15.094,3.284-17.873c0,0-5.621-10.294.252-13.7s14.21.884,19.894-6.442,8.628-9.031,13.818-8.9,11.406,1.444,14.867,3.722h0l-.013-3.343-10.484-4.61-17.81-.695-26.083,11.62-10.357,21.473-6.063,32.588,15.157,15.242Z" transform="translate(-1023.181 -4388.771)" fill="#3333b5"/>
      </g>
    </g>
    <g id="Group_674" data-name="Group 674" transform="translate(13391.451 -7448.312)">
      <path id="Path_2175" data-name="Path 2175" d="M1170.17,4507.643s3.285,23.012,1.721,39.135-15.017,14.217-18.614,14.071-4.025,8.709-3.243,14.278c0,0-9.271,14.6-23.818-2.7,0,0,7.352-14.217,3.128-21.766,0,0,1.955-6.156-2.034-10.553,0,0-7.43-.513-6.8-10.114s7.117-5.936,7.117-5.936,9.385-9.82,10.011-17.149C1137.635,4506.91,1164.148,4514.532,1170.17,4507.643Z" transform="translate(-1120.469 -4506.91)" fill="#fdb2d0"/>
      <g id="Group_673" data-name="Group 673" transform="translate(0 0)" clip-path="url(#clip-path-2)">
        <path id="Path_2176" data-name="Path 2176" d="M1181.261,4650.542l-1.756-3.351s-10.875-3.57-17.106-8.774c0,0-1.179,10.963,8.083,13.995S1181.261,4650.542,1181.261,4650.542Z" transform="translate(-1147.865 -4592.932)" fill="#f476af"/>
        <path id="Path_2177" data-name="Path 2177" d="M1169.307,4500.525c.644.506,3.495,6.208,20.125,7.411,6.989.5,16.926.421,16.926.421l-2.1-10.61Z" transform="translate(-1152.415 -4500.917)" fill="#f476af"/>
      </g>
    </g>
    <path id="Path_2179" data-name="Path 2179" d="M1305.548,4925s6.9,30.943,12.4,29.974c11.242-.506,75.754-31.543,75.754-31.543l-23.746,31.2s-37.465,21.895-59.191,20.126-25.362-41.141-25.362-41.141Z" transform="translate(12163.093 -12227.679)" fill="#f476af"/>
    <g id="Group_676" data-name="Group 676" transform="translate(13431.876 -7375.867)">
      <path id="Path_2180" data-name="Path 2180" d="M1237.348,4719.649a3.192,3.192,0,0,1,2.744-3.249c2.94-.667,13.424,7.165,21.634,25.227s17.605,45.977,17.605,45.977-10.61,21.22-30.567,15.663Z" transform="translate(-1237.345 -4716.361)" fill="#dee7ff"/>
      <g id="Group_675" data-name="Group 675" transform="translate(0 0)" clip-path="url(#clip-path-3)">
        <path id="Path_2181" data-name="Path 2181" d="M1238.5,4711.259s4.126,3.621,9.516,17.178a109.494,109.494,0,0,1,7.831,37.556c.421,11.789-3.116,36.63-3.116,36.63l-3.705-1.011s3.685-40.419,3.274-41.093-13.379-44.125-13.379-44.125l-4.126-4.631Z" transform="translate(-1235.678 -4713.024)" fill="#149468"/>
      </g>
    </g>
    <path id="Path_2183" data-name="Path 2183" d="M1639.662,5753.813s-1.971,8.589,0,13.136,14.652,43.829,14.652,43.829l-10.155,3.284-26.146-38.145-3.789-17.683,15.41-9.853Z" transform="translate(11948.006 -12767.296)" fill="#e2890a"/>
    <g id="Group_678" data-name="Group 678" transform="translate(13474.319 -7211.915)">
      <path id="Path_2184" data-name="Path 2184" d="M1382.538,5190.38s38.146,1.516,54.945,1.895,45.219,2.4,59.113,12.252,14.4,32.083,12.5,48.25-41.43,136.793-41.43,136.793l-10.61-2.273,7.958-129.972-104.964-39.788Z" transform="translate(-1360.055 -5190.38)" fill="#1fc28a"/>
      <g id="Group_677" data-name="Group 677" transform="translate(0 0)" clip-path="url(#clip-path-4)">
        <path id="Path_2185" data-name="Path 2185" d="M1357.76,5205.071s74.189,1.614,97.721,9.95,33.005,24.63,29.595,52.671-28.974,119.241-28.974,119.241l-16.336-41.94,22.574-87.533-45.85-30.314-75.591.9,16.861-22.977" transform="translate(-1347.525 -5199.989)" fill="#149468"/>
      </g>
    </g>
    <path id="Path_2187" data-name="Path 2187" d="M1650.647,5711.535l-6.334,16.373a2.708,2.708,0,0,1-2.37,1.729,38.79,38.79,0,0,1-22.014-5.424,2.71,2.71,0,0,1-1.253-2.672l1.8-13.232a2.709,2.709,0,0,1,3.659-2.164,40.918,40.918,0,0,0,23.361,1.772A2.715,2.715,0,0,1,1650.647,5711.535Z" transform="translate(11945.11 -12739.547)" fill="#4ae2ae"/>
    <g id="Group_680" data-name="Group 680" transform="translate(13465.351 -7200.041)">
      <path id="Path_2188" data-name="Path 2188" d="M1354.589,5224.708s52.292,4.042,70.986,5.053,48.6,14.9,45.265,54.06-25.065,134.394-25.065,134.394-23.232,14.146-38.641-3.032c0,0,5.807-44.284,7.957-67.954,2.238-24.634,6.715-46.853,2.926-55.948s-83.891-1.271-83.891-1.271Z" transform="translate(-1334.127 -5224.708)" fill="#1fc28a"/>
      <g id="Group_679" data-name="Group 679" transform="translate(0 0)" clip-path="url(#clip-path-5)">
        <path id="Path_2189" data-name="Path 2189" d="M1325.773,5273.277s-3.41,25.388,30.693,28.419,49.387,1.516,43.072,32.967-16.473,96.885-16.473,96.885l-.832-105.222-81.295,5.577-6.616-23.386Z" transform="translate(-1308.09 -5256.478)" fill="#149468"/>
        <path id="Path_2190" data-name="Path 2190" d="M1375.238,5195.565s12.558,10.736,38.325,11.495,63.329,3.4,73.861,23.493-5.269,129.215-5.269,129.215l43.192-114.815-33.735-49.387s-44.535-15.41-46.7-15.41-47.238,10.989-47.238,10.989l-22.433,4.421" transform="translate(-1361.019 -5195.565)" fill="#1fc28a"/>
      </g>
    </g>
    <g id="Group_682" data-name="Group 682" transform="translate(13355.341 -7382.795)">
      <path id="Path_2192" data-name="Path 2192" d="M1057.923,4696.332s-24.726.531-32.979,14.678-9.6,55.913-8.589,71.238,5.293,113.832,24.336,143.572c15.124,23.62,87.967,19.575,87.967,19.575l32.154-80.2s-32.588,1.082-42.819-15.374-11.368-33.886-9.852-53.591,5.557-36.377,1.01-57.345-10.736-34.988-16.167-37.261a38.427,38.427,0,0,0-11.242-2.59Z" transform="translate(-1016.065 -4696.332)" fill="#fff"/>
      <g id="Group_681" data-name="Group 681" transform="translate(0 0)" clip-path="url(#clip-path-6)">
        <path id="Path_2193" data-name="Path 2193" d="M1053.3,4909.148s22.358,11.063,31.451-9.095,27.006-23.241,9.714-32.84-37.165-32.84-37.165-32.84,23.595,13.641,22.871-3.537,5.338-15.41,22.011-31.324,23.315-86.236,8.336-103.179l37.69,17.289,13.086,106.1,46.482,44.209L1171.4,4947.8l-18.694,8.084s-64.165-9.347-65.681-9.347-29.557-8.084-29.557-8.084Z" transform="translate(-1040.421 -4696.332)" fill="#f0f5ff"/>
        <path id="Path_2194" data-name="Path 2194" d="M985.328,4764.24s14.377,142.8,23.494,179.265c10.484,41.935,29.64,37.261,52.629,43.829,24.8,7.085,49.856-.792,49.856-.792l-2.2,3.958-78.438,2.9-37.888-29.556-5.689-56.46s-5.938-71.277-5.432-71.447.506-48.673.506-48.673Z" transform="translate(-993.543 -4740.752)" fill="#149468"/>
      </g>
    </g>
    <g id="Group_688" data-name="Group 688" transform="translate(13401.943 -7424.62)">
      <g id="Group_686" data-name="Group 686" transform="translate(0 32.588)">
        <path id="Path_2196" data-name="Path 2196" d="M1332.438,4687.563c-.253-8.463-3.537-9.6-11.747-9.726s-6.189-8.21-6.189-8.21l-163.7,228.873c9.251,23.313,35.366,20.7,35.366,20.7l164.754-224.5a39.286,39.286,0,0,1-6.109-3.6C1341.658,4688.826,1332.691,4696.025,1332.438,4687.563Z" transform="translate(-1150.805 -4669.627)" fill="#ff9e1f"/>
        <g id="Group_685" data-name="Group 685" clip-path="url(#clip-path-7)">
          <g id="Group_683" data-name="Group 683" transform="translate(-0.227 5.331)" opacity="0.55">
            <path id="Path_2197" data-name="Path 2197" d="M1151.386,4927.25a1.237,1.237,0,0,1-1-1.963l174.046-239.736a1.237,1.237,0,0,1,2,1.454L1152.388,4926.74A1.234,1.234,0,0,1,1151.386,4927.25Z" transform="translate(-1150.15 -4685.041)" fill="#fff"/>
          </g>
          <g id="Group_684" data-name="Group 684" transform="translate(16.952 14.928)" opacity="0.55">
            <path id="Path_2198" data-name="Path 2198" d="M1201.051,4953.7a1.237,1.237,0,0,1-1-1.963L1372.842,4713.3a1.237,1.237,0,1,1,2,1.451L1202.054,4953.19A1.237,1.237,0,0,1,1201.051,4953.7Z" transform="translate(-1199.815 -4712.786)" fill="#fff"/>
          </g>
        </g>
      </g>
      <g id="Group_687" data-name="Group 687" transform="translate(163.477 0)">
        <path id="Path_2200" data-name="Path 2200" d="M1721.839,4586.08a16.655,16.655,0,0,0,12.064,7.478l4.4-18.148Z" transform="translate(-1687.807 -4575.41)" fill="#208b66"/>
        <path id="Path_2201" data-name="Path 2201" d="M1657.479,4606.258l-33.811,21.918s-2.021,8.084,6.189,8.21,11.494,1.264,11.747,9.727,9.22,1.263,12.378,3.537a21.768,21.768,0,0,0,6.109,3.1l9.452-39.017A16.659,16.659,0,0,1,1657.479,4606.258Z" transform="translate(-1623.448 -4595.588)" fill="#ffe1ab"/>
      </g>
    </g>
    <g id="Group_690" data-name="Group 690" transform="translate(13327.052 -7292.332)">
      <path id="Path_2202" data-name="Path 2202" d="M944.162,4957.88s-7.41,17.994-9.768,36.027,31.662,34.033,41.6,38.749,47.492,21.725,47.492,21.725,22.39,23.109,37.725,22.736c13.81-.337,12.125-15.663-6.063-25.431-17.9-9.61-22.736-12.631-22.736-12.631s-61.133-37.219-65.681-43.282,3.629-22.439,3.629-22.439Z" transform="translate(-934.277 -4957.88)" fill="#fdb2d0"/>
      <g id="Group_689" data-name="Group 689" transform="translate(0 0)" clip-path="url(#clip-path-8)">
        <path id="Path_2203" data-name="Path 2203" d="M993.971,5007.006s2.88,3.429,2.627,13.534,6.848,15.473,19.367,21.561,47.076,23.8,47.076,23.8l1.174-3.677-49.766-40.25-4.126-15.158-16.352.192" transform="translate(-973.324 -4989.889)" fill="#f476af"/>
      </g>
    </g>
    <g id="Group_692" data-name="Group 692" transform="translate(13333.231 -7370.859)">
      <path id="Path_2205" data-name="Path 2205" d="M999.468,4735.435c4.446,4.025,5.052,20.546,5.221,32.335s-16.5,61.471-16.5,61.471-27.114,6.905-36.041-21.894c0,0,11.789-40.082,19.368-56.082S987.005,4724.151,999.468,4735.435Z" transform="translate(-952.144 -4730.84)" fill="#fff"/>
      <g id="Group_691" data-name="Group 691" transform="translate(0 0)" clip-path="url(#clip-path-9)">
        <path id="Path_2206" data-name="Path 2206" d="M971.864,4830.142s13.389-.777,17.431-11.64,23.2-36.8,27.007-70.189h0l8.612,40.275-23.241,49.619-8.589,1.01-14.652-2.993Z" transform="translate(-965.043 -4732.564)" fill="#dee7ff"/>
        <path id="Path_2207" data-name="Path 2207" d="M1064.917,4753.255s.379,20.967.252,31.072-18.441,63.044-18.441,63.044,7.452.11,7.452-.269,20.841-67.449,20.841-68.207-5.179-20.336-5.179-20.336Z" transform="translate(-1014.014 -4745.502)" fill="#149468"/>
      </g>
    </g>
    <path id="Path_2209" data-name="Path 2209" d="M1536.262,4910.96l-6.4,8.4s14.4-10.188,23.746-15.915,17.094-10.947,19.452-19.873-.842-14.82-9.768-13.978-15.418,12.569-10.45,18.085Z" transform="translate(12003.188 -12192.412)" fill="#fdb2d0"/>
    <g id="Group_695" data-name="Group 695" transform="translate(13529.915 -7009.854)">
      <path id="Path_2210" data-name="Path 2210" d="M1658.631,5876.676l7.711-8.9c-.967-1.19-1.927-2.382-2.863-3.559-3.213,3.791-8.14,9.539-8.14,9.539Z" transform="translate(-1608.803 -5833.214)" fill="#fff"/>
      <path id="Path_2211" data-name="Path 2211" d="M1672.413,5891.4l7.248-8.362c-.949-1.15-1.918-2.328-2.89-3.515-3.2,3.77-7.649,8.96-7.649,8.96Z" transform="translate(-1617.818 -5843.221)" fill="#fff"/>
      <path id="Path_2212" data-name="Path 2212" d="M1642.873,5860.984l8.6-9.927c-.983-1.261-1.921-2.49-2.793-3.667-3.067,3.635-9.1,10.676-9.1,10.676Z" transform="translate(-1598.496 -5822.206)" fill="#fff"/>
      <g id="Group_694" data-name="Group 694" transform="translate(0 0)">
        <path id="Path_2213" data-name="Path 2213" d="M1593.372,5828.091c-.806-1.736-5.45-7.295-10.736-13.7l-7.248,8.362-3.291-2.917s4.449-5.19,7.648-8.96q-.707-.864-1.413-1.732l-7.711,8.9-3.291-2.917s4.927-5.748,8.14-9.539q-.864-1.087-1.7-2.154l-8.6,9.927-3.291-2.917s6.035-7.041,9.1-10.676c-2.936-3.965-5.107-7.325-5.586-9.222a75.624,75.624,0,0,1-2.094-11.221l-30.071-4.742s-3.142,10.428-8.079,16.412-7.779,13.464,3.291,19.148,13.277,5.013,21.057,15.784,23.825,21.02,34,17.429S1595.317,5832.28,1593.372,5828.091Z" transform="translate(-1520.794 -5774.577)" fill="#fcaa23"/>
        <g id="Group_693" data-name="Group 693" clip-path="url(#clip-path-10)">
          <path id="Path_2214" data-name="Path 2214" d="M1544.915,5783.372s-27.861,7.184-15.483,16.39,17.178,14.258,20.209,21.584,39.156,14.146,39.156,14.146l-11.883,14.4s-28.03,4.547-33.714-4.547-32.316-34.471-32.316-34.471-4.44-.9-5.2-6.706,9.119-19.452,9.119-19.452l8.516-10.139Z" transform="translate(-1510.884 -5774.577)" fill="#e59013"/>
        </g>
      </g>
    </g>
    <path id="Path_2216" data-name="Path 2216" d="M1535.409,5733.74l1.034,17.382a2.715,2.715,0,0,0,1.742,2.374c6.19,2.368,28.5,9.981,42.616,2.7a2.714,2.714,0,0,0,1.421-1.93l3.245-17.915a2.71,2.71,0,0,0-3.189-3.145,92.339,92.339,0,0,1-43.374-2.222A2.712,2.712,0,0,0,1535.409,5733.74Z" transform="translate(11999.564 -12755.84)" fill="#32d29b"/>
    <g id="Group_697" data-name="Group 697" transform="translate(13346.999 -7136.634)">
      <rect id="Rectangle_411" data-name="Rectangle 411" width="170.897" height="41.682" rx="20.841" transform="translate(0)" fill="#d5fff1"/>
      <g id="Group_696" data-name="Group 696" transform="translate(0)" clip-path="url(#clip-path-11)">
        <path id="Path_2217" data-name="Path 2217" d="M979.9,5427.751s139.446,6.695,154.6-4.484,1.516-27.851,1.516-27.851l18.946-1.263,11.115,25.641-9.6,25.893-174.054,2.779Z" transform="translate(-984.066 -5398.953)" fill="#3fdaa5" opacity="0.71"/>
        <rect id="Rectangle_412" data-name="Rectangle 412" width="170.897" height="6.315" transform="translate(0 39.156)" fill="#3fdaa5"/>
      </g>
    </g>
    <g id="Group_699" data-name="Group 699" transform="translate(13346.999 -7094.952)">
      <rect id="Rectangle_414" data-name="Rectangle 414" width="170.897" height="41.682" rx="20.841" transform="translate(0 0)" fill="#d5fff1"/>
      <g id="Group_698" data-name="Group 698" transform="translate(0 0)" clip-path="url(#clip-path-11)">
        <path id="Path_2218" data-name="Path 2218" d="M979.9,5535.117s139.446,6.694,154.6-4.484,1.516-27.851,1.516-27.851l18.946-1.263,11.115,25.641-9.6,25.894-174.054,2.778Z" transform="translate(-984.066 -5510.865)" fill="#3fdaa5" opacity="0.71"/>
        <rect id="Rectangle_415" data-name="Rectangle 415" width="170.897" height="6.315" transform="translate(0 38.802)" fill="#3fdaa5"/>
      </g>
    </g>
    <g id="Group_701" data-name="Group 701" transform="translate(13346.999 -7053.27)">
      <rect id="Rectangle_417" data-name="Rectangle 417" width="170.897" height="41.682" rx="20.841" transform="translate(0 0)" fill="#d5fff1"/>
      <g id="Group_700" data-name="Group 700" transform="translate(0 0)" clip-path="url(#clip-path-11)">
        <path id="Path_2219" data-name="Path 2219" d="M969.886,5663.752s139.446,6.694,154.6-4.484,1.516-27.851,1.516-27.851l18.946-1.263,11.115,25.641-9.6,25.894-174.054,2.778Z" transform="translate(-977.517 -5636.69)" fill="#3fdaa5" opacity="0.71"/>
        <rect id="Rectangle_418" data-name="Rectangle 418" width="170.897" height="6.315" transform="translate(0 38.903)" fill="#3fdaa5"/>
      </g>
    </g>
    <g id="Group_703" data-name="Group 703" transform="translate(13346.999 -7011.587)">
      <rect id="Rectangle_420" data-name="Rectangle 420" width="170.897" height="41.682" rx="20.841" transform="translate(0 0)" fill="#d5fff1"/>
      <g id="Group_702" data-name="Group 702" transform="translate(0 0)" clip-path="url(#clip-path-11)">
        <path id="Path_2220" data-name="Path 2220" d="M969.886,5785.329s139.446,6.694,154.6-4.484,1.516-27.851,1.516-27.851l18.946-1.263,11.115,25.64-9.6,25.894-174.054,2.779Z" transform="translate(-977.517 -5757.898)" fill="#3fdaa5" opacity="0.71"/>
        <rect id="Rectangle_421" data-name="Rectangle 421" width="170.897" height="6.315" transform="translate(0 38.524)" fill="#3fdaa5"/>
      </g>
    </g>
    <g id="Group_704" data-name="Group 704" transform="translate(13218.542 -7137.426)">
      <path id="Path_2221" data-name="Path 2221" d="M701.535,5405.74h-33.5c-26.222,0-47.478,37.444-47.478,83.634s21.257,83.634,47.478,83.634h33.5c26.222,0,47.478-37.444,47.478-83.634S727.757,5405.74,701.535,5405.74Z" transform="translate(-620.557 -5405.74)" fill="#3fdaa5"/>
      <ellipse id="Ellipse_299" data-name="Ellipse 299" cx="47.479" cy="83.634" rx="47.479" ry="83.634" transform="translate(0 0)" fill="#d5fff1"/>
    </g>
    <ellipse id="Ellipse_300" data-name="Ellipse 300" cx="32.854" cy="57.873" rx="32.854" ry="57.873" transform="translate(13233.167 -7111.666)" fill="#3fdaa5"/>
    <path id="Rectangle_423" data-name="Rectangle 423" d="M45.724,0H280.806A45.724,45.724,0,0,1,326.53,45.724v0a0,0,0,0,1,0,0H0a0,0,0,0,1,0,0v0A45.724,45.724,0,0,1,45.724,0Z" transform="translate(13203.385 -6969.906)" fill="#1f1fd6"/>
    <g id="Group_705" data-name="Group 705" transform="translate(13933.201 -7593.369)">
      <circle id="Ellipse_301" data-name="Ellipse 301" cx="10.231" cy="10.231" r="10.231" transform="translate(0 0)" fill="#fff"/>
      <circle id="Ellipse_302" data-name="Ellipse 302" cx="10.231" cy="10.231" r="10.231" transform="translate(45.434 0)" fill="#fff"/>
      <circle id="Ellipse_303" data-name="Ellipse 303" cx="10.231" cy="10.231" r="10.231" transform="translate(90.868 0)" fill="#fff"/>
    </g>
    <rect id="Rectangle_424" data-name="Rectangle 424" width="292.533" height="115.008" rx="35.423" transform="translate(13823.817 -7505.71)" fill="#32d29b" opacity="0.52"/>
    <rect id="Rectangle_425" data-name="Rectangle 425" width="322.342" height="161.709" rx="44.092" transform="translate(13717.212 -7361.75)" fill="#32d29b" opacity="0.52"/>
    <circle id="Ellipse_304" data-name="Ellipse 304" cx="46.608" cy="46.608" r="46.608" transform="translate(13850.216 -7492.827)" fill="#c3ffeb"/>
    <path id="Path_2222" data-name="Path 2222" d="M2092.216,4518.03l27.419,24.61,38.894-45.072" transform="translate(11635.342 -11949.111)" fill="none" stroke="#1fc28a" stroke-linecap="round" stroke-linejoin="round" stroke-width="22"/>
    <g id="Group_706" data-name="Group 706" transform="translate(13951.011 -7489.069)">
      <rect id="Rectangle_426" data-name="Rectangle 426" width="156.497" height="10.61" rx="5.305" transform="translate(0 0)" fill="#c3ffeb"/>
      <rect id="Rectangle_427" data-name="Rectangle 427" width="156.497" height="10.61" rx="5.305" transform="translate(0 18.357)" fill="#c3ffeb"/>
      <rect id="Rectangle_428" data-name="Rectangle 428" width="156.497" height="10.61" rx="5.305" transform="translate(0 36.714)" fill="#c3ffeb"/>
      <rect id="Rectangle_429" data-name="Rectangle 429" width="156.497" height="10.61" rx="5.305" transform="translate(0 55.071)" fill="#c3ffeb"/>
      <rect id="Rectangle_430" data-name="Rectangle 430" width="156.497" height="10.61" rx="5.305" transform="translate(0 73.428)" fill="#c3ffeb"/>
    </g>
    <rect id="Rectangle_431" data-name="Rectangle 431" width="289.88" height="4.236" transform="translate(13732.748 -7225.75)" fill="#c3ffeb"/>
    <g id="Group_707" data-name="Group 707" transform="translate(13742.179 -7329.635)">
      <rect id="Rectangle_432" data-name="Rectangle 432" width="17.314" height="65.992" transform="translate(0 37.893)" fill="#c3ffeb"/>
      <rect id="Rectangle_433" data-name="Rectangle 433" width="17.314" height="53.613" transform="translate(36.356 50.271)" fill="#c3ffeb"/>
      <rect id="Rectangle_434" data-name="Rectangle 434" width="17.314" height="62.96" transform="translate(72.711 40.924)" fill="#c3ffeb"/>
      <rect id="Rectangle_435" data-name="Rectangle 435" width="17.314" height="71.044" transform="translate(109.067 32.84)" fill="#c3ffeb"/>
      <rect id="Rectangle_436" data-name="Rectangle 436" width="17.314" height="44.014" transform="translate(145.422 59.871)" fill="#c3ffeb"/>
      <rect id="Rectangle_437" data-name="Rectangle 437" width="17.314" height="60.939" transform="translate(181.778 42.945)" fill="#c3ffeb"/>
      <rect id="Rectangle_438" data-name="Rectangle 438" width="17.314" height="77.36" transform="translate(218.133 26.525)" fill="#c3ffeb"/>
      <rect id="Rectangle_439" data-name="Rectangle 439" width="17.314" height="103.885" transform="translate(254.489 0)" fill="#c3ffeb"/>
    </g>
    <g id="Group_709" data-name="Group 709" transform="translate(14148.076 -7498.142)">
      <path id="Path_2223" data-name="Path 2223" d="M3324.788,4424.223s-11.145,1.82-11.031-7.278,3.753-10.235-2.161-16.262-3.753-15.921,1.024-18.2,13.419,1.592,13.76-6.6,5.914-16.6,25.474-11.486,19.674,10.235,19.674,10.235,6.482-3.98,15.921,8.984,9.439,35.481,9.1,43.214,7.847,37.415,24.223,56.52,30.478,45.261,18.2,73.92-53.9,34.8-76.649,21.152-13.005-86.656-18.1-116.907S3355.039,4427.18,3324.788,4424.223Z" transform="translate(-3308.013 -4362.844)" fill="#0b0b6d"/>
      <g id="Group_708" data-name="Group 708" transform="translate(0 0)" clip-path="url(#clip-path-15)">
        <path id="Path_2224" data-name="Path 2224" d="M3362.836,4459.872l-.184-1.453s17.48,3.209,39.151-6.441c0,0-3.355,21.662,3.154,25.2s5.245,14.967,1.52,19.009-2.463,16.989,5.873,13.673,19.325-13.673,20.967-38.3l26.4,46.861s-9.094,21.22-23.241,36.377-28.8,28.545-20.968,51.787,35.619,35.114,35.619,35.114L3409.192,4650l-24-15.634s1.516-50.524,3.031-58.608,9.347-19.957,6.568-29.809S3362.836,4459.872,3362.836,4459.872Z" transform="translate(-3343.753 -4421.148)" fill="#040451"/>
        <path id="Path_2225" data-name="Path 2225" d="M3301.7,4408.751a8.433,8.433,0,0,0,2.906-7.452c-.632-4.716-4.21-6.105-4.758-10.736s.674-7.916,3.79-8.968,11.578.757,13.726-5.516-.168-11.368,6.568-13.894,16.841-2.273,16.841-2.273-17.262-3.368-17.936-3.368-22.567,13.389-22.567,13.389l-9.515,13.557,3.453,12.042Z" transform="translate(-3296.726 -4358.723)" fill="#2c2ca8"/>
      </g>
    </g>
    <g id="Group_712" data-name="Group 712" transform="translate(14165.265 -7106.369)">
      <g id="Group_711" data-name="Group 711" transform="translate(0 0)">
        <path id="Path_2227" data-name="Path 2227" d="M3438.441,5630.97c-1.4-2.438-2.63-5.827-3.936-11.859-3.284-15.157-19.844-68.713-29.949-94.479s-14.787-29.1-14.787-29.1l-32.061,2.323s56.544,120.647,58.091,138.837A32.751,32.751,0,0,0,3438.441,5630.97Z" transform="translate(-3357.708 -5495.531)" fill="#fdb2d0"/>
        <g id="Group_710" data-name="Group 710" clip-path="url(#clip-path-16)">
          <path id="Path_2228" data-name="Path 2228" d="M3420.884,5500.461s7.326.505,20.967,23.493,35.971,74.6,35.971,74.6l-17.278-88.75-16.673-19.754Z" transform="translate(-3399.033 -5491.948)" fill="#f476af"/>
        </g>
      </g>
      <path id="Path_2230" data-name="Path 2230" d="M3501.659,5897.483c-3.8-5.171-6.322-6.683-8.442-10.372a32.751,32.751,0,0,1-22.641,5.721c.019.216.032.422.034.608.229,15.915-27.788,20.968-29.063,29.3s10.094,9.6,20.451,8.589,16.777-11.812,30.924-13.327S3507.974,5906.072,3501.659,5897.483Z" transform="translate(-3412.485 -5751.672)" fill="#0b0b6d"/>
    </g>
    <g id="Group_715" data-name="Group 715" transform="translate(14223.391 -7139.87)">
      <g id="Group_714" data-name="Group 714" transform="translate(0 0)">
        <path id="Path_2231" data-name="Path 2231" d="M3676.3,5472.692c-19.521-8.5-36.061-18.125-53.729-30.277-21.747-14.959-57.176-26.862-57.176-26.862l-12.178-16.877-27.459,18.393s13.239,20.968,26.5,25.515,104.458,37.009,109.763,50.271c.078.194.151.394.221.594C3673.252,5490.133,3675.763,5478.815,3676.3,5472.692Z" transform="translate(-3525.76 -5398.676)" fill="#fdb2d0"/>
        <g id="Group_713" data-name="Group 713" clip-path="url(#clip-path-17)">
          <path id="Path_2232" data-name="Path 2232" d="M3543.751,5404.122s1.052-6.82,13.283-6.568,99.385,27.535,99.385,27.535-46.482-41.935-50.523-44.966-48.861-15.916-48.861-15.916-13.789,18.947-14.8,20.462-3.032,9.852-3.032,9.852Z" transform="translate(-3534.554 -5376.13)" fill="#f476af"/>
        </g>
      </g>
      <path id="Path_2234" data-name="Path 2234" d="M3947.437,5619.192c-5.647-2.111-11.007-4.277-16.162-6.52-.54,6.123-3.051,17.44-14.058,20.756,4.674,13.508-8.868,41.516,4.2,44.877,13.262,3.41,19.325-18.189,19.831-27.789C3941.721,5641.522,3955.395,5628.286,3947.437,5619.192Z" transform="translate(-3780.732 -5538.655)" fill="#0b0b6d"/>
    </g>
    <g id="Group_717" data-name="Group 717" transform="translate(14137.272 -7287.709)">
      <path id="Path_2235" data-name="Path 2235" d="M3282.637,4974.236l-1.781,2.768s-2.653,62.4-4.018,98.56,21.945,87.34,21.945,87.34,50.128,13.745,96.1-33.436c34.572-35.48,54.132-41.167,54.132-41.167s-7.051-.91-29.113-22.29-29.34-25.246-38.666-48.9-28.279-43.973-35.633-45.868Z" transform="translate(-3276.78 -4971.242)" fill="#1f1fd6"/>
      <g id="Group_716" data-name="Group 716" transform="translate(0 0)" clip-path="url(#clip-path-18)">
        <path id="Path_2236" data-name="Path 2236" d="M3335.2,4950.325l-10.1,3.969s12.288,21.07,29.971,16.859-11.284,39.409-7.073,51.7,30.988-12.125,40.082-1.348,13.551,48.082-5.245,70.817-51,36.377-22.964,43.577,108.433-23.872,110.677-27.662,23.843-32.209,28.39-34.483,9.852-35.619,9.852-35.619-44.326-48.5-53.993-60.629-26.716-24.058-40.585-36.222-35.82-25.8-39.4-18.47S3335.2,4950.325,3335.2,4950.325Z" transform="translate(-3308.389 -4938.219)" fill="#8787ff" opacity="0.59"/>
      </g>
    </g>
    <path id="Path_2238" data-name="Path 2238" d="M3222.781,4152.8c.52-.021,5.684-4.8,5.557-13.009s-2.526-38.651-13.515-40.924-10.1,6.063-7.326,16.672,2.274,23.241,1.389,25.641C3208.886,4141.177,3213.56,4153.176,3222.781,4152.8Z" transform="translate(10906.99 -11688.064)" fill="#fdb2d0"/>
    <path id="Path_2239" data-name="Path 2239" d="M3624.162,4194.182s-5.053-5.053-1.516-17.431,40.671-39.156,41.682-24.756-24,26.525-23.746,38.146Z" transform="translate(10635.076 -11720.354)" fill="#fdb2d0"/>
    <g id="Group_719" data-name="Group 719" transform="translate(14085.828 -7549.575)">
      <path id="Path_2240" data-name="Path 2240" d="M3218.515,4364.1l-1.441,2.578a51.942,51.942,0,0,1-14.633-1.972c-8.339-2.274-16-10.462-24.185-24.715s-22.745-45.337-22.745-45.337l18.5-65.2-16.528-15.314s-9.7,23.351-15.77,37.453-17.892,44.068-12.13,54.71,38.514,68.262,42.457,84.032-.758,15.163,6.217,36.24,5.307,55.193,5.307,55.193,5.611,13.8,30.326,12.585,34.42-18.347,34.42-18.347-4.094-7.582-1.82-19.712,4.67-38.291,18.923-53.454,43.7-47.077,56.741-73.764a44.938,44.938,0,0,0,3.745-17.589c.236-10.577-5.337-82.563-5.337-82.563l-22.289,7.506s4.321,66.964,3.411,74.65-28.959,44.385-34.418,48.646-21.434,14.364-29.873,9.229Z" transform="translate(-3128.044 -4214.14)" fill="#fff"/>
      <g id="Group_718" data-name="Group 718" transform="translate(0 0)" clip-path="url(#clip-path-19)">
        <path id="Path_2241" data-name="Path 2241" d="M3305.359,4573.58s17.346-8.758,15.494-21.725-.168-17.346,9.262-21.389-15.83-10.273-24.925-14.652-7.094-11.1,14.484-11.452,35.03-9.6,40.25-23.073,4.257-17.346,18.212-19.7,22.123-9.768,32.312-20.883,21.725-29.472,24.419-42.272.305-61.012.305-61.012l11.652,62.528-40.251,71.407-30.146,49.345-10.778,47.324-29.641,18.357Z" transform="translate(-3240.575 -4294.779)" fill="#f0f5ff"/>
        <path id="Path_2242" data-name="Path 2242" d="M3214.576,4243.579s-8.758,33.683-13.81,47.661-7.241,16.842-3.873,26.272,34.188,60.688,35.872,62.932-5.41,13.022,1.506,14.37,9-8.892,20.388-7.073,10.441-.842,10.441-.842l-12.631-6.455s-31.156-40.958-35.7-48.829.336-66.311.5-67.152,4.8-14.129,4.255-16.749S3214.576,4243.579,3214.576,4243.579Z" transform="translate(-3172.022 -4233.396)" fill="#f0f5ff"/>
      </g>
    </g>
    <g id="Group_721" data-name="Group 721" transform="translate(14159.275 -7462.236)">
      <path id="Path_2244" data-name="Path 2244" d="M3348.093,4468.018s-15.921,36.694-1.972,42.3c5.156,1.971,11.827-.758,12.586,2.426s-2.729,19.105-2.729,19.105,8.188,9.628,20.318,2.274c0,0-9.325-13.874-2.729-15.921s2.2-7.658,4.777-12.813,12.054-3.412,12.054-10.235-7.506-6.293-7.278-11.6.834-16.907.834-16.907S3363.71,4474.917,3348.093,4468.018Z" transform="translate(-3340.394 -4466.653)" fill="#fdb2d0"/>
      <g id="Group_720" data-name="Group 720" transform="translate(0 0)" clip-path="url(#clip-path-20)">
        <path id="Path_2245" data-name="Path 2245" d="M3355.03,4459.306s4.126,9.515,19.535,7.241,16.926-4.042,16.926-4.042-8.673,13.473-2.526,18.1,5.136,5.39.842,9.095-.842,7.976-8.336,11.2a39.792,39.792,0,0,1-14.652,3.115s5.393,4.9,9.852,14.484,10.947,10.695,10.947,10.695,6.989-5.979,7.41-7.158,9.852-30.062,9.852-30.062l-5.979-27.367-3.284-10.441-37.556,2.694Z" transform="translate(-3349.968 -4458.487)" fill="#f476af"/>
      </g>
    </g>
    <g id="Group_724" data-name="Group 724" transform="translate(13879.037 -7476.775)">
      <g id="Group_722" data-name="Group 722" transform="translate(0 8.045)">
        <path id="Path_2247" data-name="Path 2247" d="M2554.953,4495.955q-.5.126-1.013.232a26.342,26.342,0,0,1-11.253-.184c-7.2-1.73-10.285-5.562-11.606-8.405a2.577,2.577,0,0,1,2.2-3.637l3.451-.207s0-.03-.007-.086c.02.17.572,4.205,7.513,5.874,5.357,1.287,11.666.1,13.777-2.6.376-.48,1.374-1.756-.157-4.7-2.069-3.984-4.726-4.569-9.635-5.334-3.958-.618-8.444-1.317-12.78-4.829-4.524-3.665-6.284-8.741-4.706-13.58,1.986-6.091,8.557-10.145,17.149-10.579,5.6-.282,9.964,1.077,12.969,4.04a12.881,12.881,0,0,1,3.432,6.1,2.583,2.583,0,0,1-2.6,3.207l-3.64-.133v.039a6.815,6.815,0,0,0-1.907-4.529c-1.627-1.566-4.291-2.268-7.916-2.084-6.911.348-10.333,3.45-11.165,6-.711,2.18.2,4.436,2.57,6.354,2.945,2.385,6.188,2.891,9.621,3.426,5.06.79,10.794,1.684,14.51,8.839,3.045,5.865.99,9.949-.507,11.862A14.921,14.921,0,0,1,2554.953,4495.955Z" transform="translate(-2530.171 -4447.877)" fill="#1fc28a"/>
      </g>
      <g id="Group_723" data-name="Group 723" transform="translate(14.504 0)">
        <path id="Path_2248" data-name="Path 2248" d="M2576.386,4487.072a3.327,3.327,0,0,1-4.142-3.213l-.138-55.908a3.323,3.323,0,0,1,6.646-.016l.138,55.908A3.325,3.325,0,0,1,2576.386,4487.072Z" transform="translate(-2572.106 -4424.619)" fill="#1fc28a"/>
      </g>
    </g>
    <g id="Group_730" data-name="Group 730" transform="translate(14162.095 -7669.47)">
      <circle id="Ellipse_305" data-name="Ellipse 305" cx="47.578" cy="47.578" r="47.578" transform="translate(2.365 2.027)" fill="#fff"/>
      <g id="Group_729" data-name="Group 729" transform="translate(0 0)">
        <g id="Group_725" data-name="Group 725">
          <path id="Path_2249" data-name="Path 2249" d="M3398.172,3966.754a49.627,49.627,0,1,1,49.627-49.627A49.683,49.683,0,0,1,3398.172,3966.754Zm0-95.791a46.164,46.164,0,1,0,46.164,46.164A46.216,46.216,0,0,0,3398.172,3870.963Z" transform="translate(-3348.546 -3867.5)" fill="#1fc28a"/>
        </g>
        <g id="Group_728" data-name="Group 728" transform="translate(32.047 17.339)">
          <g id="Group_726" data-name="Group 726" transform="translate(0 8.045)">
            <path id="Path_2250" data-name="Path 2250" d="M3465.982,3988.967q-.5.127-1.013.233a26.348,26.348,0,0,1-11.253-.184c-7.2-1.73-10.286-5.562-11.607-8.406a2.577,2.577,0,0,1,2.2-3.637l3.451-.207a.841.841,0,0,0-.007-.087c.02.171.571,4.206,7.513,5.874,5.357,1.287,11.666.1,13.776-2.6.376-.48,1.374-1.756-.157-4.7-2.069-3.984-4.727-4.569-9.635-5.334-3.958-.618-8.444-1.317-12.779-4.828-4.524-3.665-6.284-8.742-4.706-13.58,1.986-6.092,8.557-10.146,17.149-10.579,5.6-.283,9.964,1.077,12.968,4.04a12.876,12.876,0,0,1,3.432,6.1,2.584,2.584,0,0,1-2.6,3.207l-3.639-.133v.039a6.809,6.809,0,0,0-1.907-4.529c-1.628-1.566-4.291-2.267-7.916-2.084-6.911.348-10.333,3.45-11.165,6-.71,2.179.2,4.436,2.571,6.354,2.945,2.385,6.188,2.891,9.621,3.426,5.059.79,10.794,1.684,14.51,8.839,3.045,5.864.99,9.949-.507,11.862A14.922,14.922,0,0,1,3465.982,3988.967Z" transform="translate(-3441.2 -3940.89)" fill="#1fc28a"/>
          </g>
          <g id="Group_727" data-name="Group 727" transform="translate(14.504)">
            <path id="Path_2251" data-name="Path 2251" d="M3487.415,3980.083a3.327,3.327,0,0,1-4.142-3.213l-.138-55.908a3.323,3.323,0,1,1,6.647-.016l.138,55.908A3.324,3.324,0,0,1,3487.415,3980.083Z" transform="translate(-3483.134 -3917.63)" fill="#1fc28a"/>
          </g>
        </g>
      </g>
    </g>
    <g id="Group_736" data-name="Group 736" transform="translate(14299.435 -7476.741)">
      <circle id="Ellipse_306" data-name="Ellipse 306" cx="47.578" cy="47.578" r="47.578" transform="translate(2.365 2.027)" fill="#fff"/>
      <g id="Group_735" data-name="Group 735" transform="translate(0 0)">
        <g id="Group_731" data-name="Group 731">
          <path id="Path_2252" data-name="Path 2252" d="M3795.247,4523.969a49.627,49.627,0,1,1,49.627-49.627A49.683,49.683,0,0,1,3795.247,4523.969Zm0-95.791a46.164,46.164,0,1,0,46.164,46.164A46.216,46.216,0,0,0,3795.247,4428.179Z" transform="translate(-3745.62 -4424.716)" fill="#1fc28a"/>
        </g>
        <g id="Group_734" data-name="Group 734" transform="translate(32.047 17.339)">
          <g id="Group_732" data-name="Group 732" transform="translate(0 8.045)">
            <path id="Path_2253" data-name="Path 2253" d="M3863.056,4546.183q-.5.127-1.013.233a26.348,26.348,0,0,1-11.253-.184c-7.2-1.729-10.286-5.562-11.606-8.406a2.577,2.577,0,0,1,2.2-3.637l3.451-.207a.841.841,0,0,0-.007-.087c.02.171.571,4.206,7.513,5.874,5.357,1.288,11.666.1,13.776-2.6.376-.48,1.374-1.757-.157-4.7-2.069-3.984-4.727-4.569-9.635-5.334-3.958-.618-8.444-1.317-12.78-4.829-4.524-3.665-6.283-8.741-4.706-13.58,1.986-6.091,8.557-10.146,17.149-10.578,5.6-.283,9.964,1.077,12.969,4.04a12.883,12.883,0,0,1,3.432,6.1,2.584,2.584,0,0,1-2.6,3.207l-3.64-.134v.039a6.809,6.809,0,0,0-1.907-4.529c-1.627-1.566-4.291-2.268-7.916-2.085-6.911.349-10.333,3.451-11.165,6-.711,2.18.2,4.437,2.571,6.354,2.945,2.385,6.188,2.891,9.621,3.426,5.059.79,10.794,1.684,14.51,8.838,3.045,5.865.989,9.95-.507,11.862A14.918,14.918,0,0,1,3863.056,4546.183Z" transform="translate(-3838.275 -4498.105)" fill="#1fc28a"/>
          </g>
          <g id="Group_733" data-name="Group 733" transform="translate(14.504)">
            <path id="Path_2254" data-name="Path 2254" d="M3884.489,4537.3a3.325,3.325,0,0,1-4.143-3.213l-.138-55.908a3.323,3.323,0,1,1,6.647-.016l.138,55.907A3.325,3.325,0,0,1,3884.489,4537.3Z" transform="translate(-3880.208 -4474.846)" fill="#1fc28a"/>
          </g>
        </g>
      </g>
    </g>
    <g id="Group_742" data-name="Group 742" transform="translate(13176.525 -7316.827)">
      <circle id="Ellipse_307" data-name="Ellipse 307" cx="47.578" cy="47.578" r="47.578" transform="translate(2.366 2.027)" fill="#fff"/>
      <g id="Group_741" data-name="Group 741" transform="translate(0)">
        <g id="Group_737" data-name="Group 737">
          <path id="Path_2255" data-name="Path 2255" d="M548.707,4986.313a49.627,49.627,0,1,1,49.627-49.627A49.683,49.683,0,0,1,548.707,4986.313Zm0-95.791a46.164,46.164,0,1,0,46.164,46.164A46.216,46.216,0,0,0,548.707,4890.523Z" transform="translate(-499.08 -4887.06)" fill="#1fc28a"/>
        </g>
        <g id="Group_740" data-name="Group 740" transform="translate(32.047 17.339)">
          <g id="Group_738" data-name="Group 738" transform="translate(0 8.045)">
            <path id="Path_2256" data-name="Path 2256" d="M616.516,5008.527q-.5.125-1.013.232a26.339,26.339,0,0,1-11.253-.184c-7.2-1.729-10.286-5.562-11.607-8.4a2.576,2.576,0,0,1,2.2-3.637l3.451-.207s0-.03-.007-.087c.02.171.571,4.206,7.513,5.874,5.357,1.288,11.666.1,13.776-2.6.376-.481,1.374-1.757-.157-4.7-2.069-3.983-4.726-4.568-9.635-5.334-3.958-.617-8.444-1.317-12.78-4.828-4.524-3.665-6.284-8.741-4.706-13.58,1.986-6.092,8.558-10.146,17.149-10.579,5.6-.283,9.965,1.077,12.969,4.039a12.887,12.887,0,0,1,3.432,6.1,2.584,2.584,0,0,1-2.6,3.207l-3.639-.134v.039a6.812,6.812,0,0,0-1.907-4.529c-1.628-1.566-4.291-2.268-7.916-2.085-6.911.349-10.333,3.451-11.165,6-.71,2.18.2,4.437,2.57,6.354,2.945,2.385,6.188,2.891,9.621,3.426,5.059.79,10.794,1.684,14.509,8.839,3.046,5.865.99,9.95-.507,11.862A14.923,14.923,0,0,1,616.516,5008.527Z" transform="translate(-591.734 -4960.45)" fill="#1fc28a"/>
          </g>
          <g id="Group_739" data-name="Group 739" transform="translate(14.504)">
            <path id="Path_2257" data-name="Path 2257" d="M637.949,4999.644a3.326,3.326,0,0,1-4.142-3.213l-.138-55.908a3.323,3.323,0,0,1,6.647-.016l.138,55.907A3.325,3.325,0,0,1,637.949,4999.644Z" transform="translate(-633.669 -4937.191)" fill="#1fc28a"/>
          </g>
        </g>
      </g>
    </g>
    <g id="Group_748" data-name="Group 748" transform="translate(14059.327 -7717.472)">
      <circle id="Ellipse_308" data-name="Ellipse 308" cx="31.03" cy="31.03" r="31.03" transform="translate(1.311 1.311)" fill="#fff"/>
      <g id="Group_747" data-name="Group 747" transform="translate(0 0)">
        <g id="Group_743" data-name="Group 743">
          <path id="Path_2258" data-name="Path 2258" d="M3083.765,3793.4a32.341,32.341,0,1,1,32.341-32.341A32.377,32.377,0,0,1,3083.765,3793.4Zm0-62.425a30.084,30.084,0,1,0,30.084,30.084A30.118,30.118,0,0,0,3083.765,3730.977Z" transform="translate(-3051.424 -3728.72)" fill="#1fc28a"/>
        </g>
        <g id="Group_746" data-name="Group 746" transform="translate(20.885 11.299)">
          <g id="Group_744" data-name="Group 744" transform="translate(0 5.243)">
            <path id="Path_2259" data-name="Path 2259" d="M3127.955,3807.878q-.324.082-.66.151a17.175,17.175,0,0,1-7.333-.12c-4.691-1.127-6.7-3.625-7.564-5.478a1.679,1.679,0,0,1,1.435-2.37l2.249-.135a.54.54,0,0,0,0-.057c.013.112.373,2.741,4.9,3.828,3.491.838,7.6.062,8.978-1.7.245-.313.9-1.145-.1-3.065-1.348-2.6-3.08-2.978-6.279-3.477-2.579-.4-5.5-.858-8.328-3.146-2.948-2.388-4.095-5.7-3.067-8.85,1.294-3.97,5.577-6.611,11.176-6.894,3.65-.184,6.493.7,8.451,2.632a8.392,8.392,0,0,1,2.237,3.976,1.683,1.683,0,0,1-1.7,2.089l-2.371-.087v.025a4.436,4.436,0,0,0-1.243-2.951c-1.061-1.021-2.8-1.478-5.159-1.359-4.5.228-6.734,2.249-7.276,3.911-.463,1.42.132,2.891,1.675,4.141,1.919,1.555,4.032,1.884,6.27,2.233,3.3.514,7.034,1.1,9.455,5.76,1.985,3.822.645,6.484-.33,7.73A9.727,9.727,0,0,1,3127.955,3807.878Z" transform="translate(-3111.806 -3776.547)" fill="#1fc28a"/>
          </g>
          <g id="Group_745" data-name="Group 745" transform="translate(9.452)">
            <path id="Path_2260" data-name="Path 2260" d="M3141.923,3802.088a2.168,2.168,0,0,1-2.7-2.094l-.09-36.434a2.166,2.166,0,1,1,4.332-.011l.09,36.434A2.168,2.168,0,0,1,3141.923,3802.088Z" transform="translate(-3139.133 -3761.389)" fill="#1fc28a"/>
          </g>
        </g>
      </g>
    </g>
    <g id="Group_749" data-name="Group 749" transform="translate(13175.704 -6924.213)">
      <rect id="Rectangle_440" data-name="Rectangle 440" width="682.402" height="3.492" transform="translate(0 0)" fill="#13aa76"/>
      <rect id="Rectangle_441" data-name="Rectangle 441" width="256.788" height="3.492" transform="translate(1016.212 0)" fill="#13aa76"/>
    </g>
  </g>
</svg>
