<svg id="news" xmlns="http://www.w3.org/2000/svg" width="36.328" height="31.929" viewBox="0 0 36.328 31.929">
  <path id="Path_2037" data-name="Path 2037" d="M211,240h6.386v2.129H211Zm0,0" transform="translate(-196.029 -222.971)" fill="#d6d6d6"/>
  <path id="Path_2038" data-name="Path 2038" d="M29.472,91.075H23.485v1.064A1.064,1.064,0,0,1,22.421,93.2H13.907a1.064,1.064,0,0,1-1.064-1.064V91.075H6.856a3.189,3.189,0,0,1-3.029-2.183L0,77.41v23.243a3.2,3.2,0,0,0,3.193,3.193H33.135a3.2,3.2,0,0,0,3.193-3.193V77.411L32.5,88.892a3.189,3.189,0,0,1-3.029,2.183Zm0,0" transform="translate(0 -71.918)" fill="#d6d6d6"/>
  <path id="Path_2039" data-name="Path 2039" d="M46.4,0H37.885a3.2,3.2,0,0,0-3.193,3.193V4.257H25.809L29.823,16.3a1.064,1.064,0,0,0,1.01.728H36.82V15.964A1.064,1.064,0,0,1,37.885,14.9H46.4a1.064,1.064,0,0,1,1.064,1.064v1.064H53.45a1.064,1.064,0,0,0,1.01-.728L58.475,4.257H49.592V3.193A3.2,3.2,0,0,0,46.4,0ZM36.82,4.257V3.193a1.065,1.065,0,0,1,1.064-1.064H46.4a1.065,1.065,0,0,1,1.064,1.064V4.257Zm0,0" transform="translate(-23.978)" fill="#d6d6d6"/>
</svg>
