<svg xmlns="http://www.w3.org/2000/svg" xmlns:xlink="http://www.w3.org/1999/xlink" width="540" height="94" viewBox="0 0 540 94">
  <defs>
    <clipPath id="clip-path">
      <rect id="Rectangle_455" data-name="Rectangle 455" width="34" height="34" transform="translate(-0.366 0.28)" fill="#4fcaae" stroke="#707070" stroke-width="1"/>
    </clipPath>
  </defs>
  <g id="performance" transform="translate(0 -87)">
    <rect id="Rectangle_316" data-name="Rectangle 316" width="540" height="94" transform="translate(0 87)" fill="#f8fffd"/>
    <text id="Performance-2" data-name="Performance" transform="translate(86 131)" fill="#262626" font-size="20" font-family="Roboto-Bold, Roboto" font-weight="700"><tspan x="0" y="0">Performance</tspan></text>
    <text id="Our_performance_till_date" data-name="Our performance till date" transform="translate(86 153)" fill="#262626" font-size="15" font-family="Roboto-Regular, Roboto" opacity="0.4"><tspan x="0" y="0">Our performance till date</tspan></text>
    <g id="Mask_Group_35" data-name="Mask Group 35" transform="translate(32.366 116.72)" clip-path="url(#clip-path)">
      <g id="statistics_2_" data-name="statistics (2)" transform="translate(-0.146 0.11)">
        <path id="Path_2279" data-name="Path 2279" d="M8.467,16.1a3,3,0,0,0,2.089-.849l2.978,1.489a2.956,2.956,0,0,0-.037.366,3.018,3.018,0,1,0,6.036,0,2.981,2.981,0,0,0-.3-1.293l4.04-4.04a2.981,2.981,0,0,0,1.293.3,3.022,3.022,0,0,0,3.018-3.018,2.973,2.973,0,0,0-.151-.894l3.51-2.632a3.016,3.016,0,1,0-1.347-2.51,2.973,2.973,0,0,0,.151.894l-3.51,2.632a3.005,3.005,0,0,0-4.386,3.8l-4.04,4.04a2.966,2.966,0,0,0-3.382.546l-2.978-1.489a2.956,2.956,0,0,0,.037-.366A3.018,3.018,0,1,0,8.467,16.1Zm0,0" transform="translate(-3.37 0)" fill="#4fcaae"/>
        <path id="Path_2280" data-name="Path 2280" d="M33.333,48.634H32.26V27.373a1.006,1.006,0,0,0-1.006-1.006H27.23a1.006,1.006,0,0,0-1.006,1.006V48.634H24.212V33.409A1.006,1.006,0,0,0,23.206,32.4H19.182a1.006,1.006,0,0,0-1.006,1.006V48.634H16.163V41.458a1.006,1.006,0,0,0-1.006-1.006H11.133a1.006,1.006,0,0,0-1.006,1.006v7.176H8.115v-11.2a1.006,1.006,0,0,0-1.006-1.006H3.085a1.006,1.006,0,0,0-1.006,1.006v11.2H1.006a1.006,1.006,0,0,0,0,2.012H33.333a1.006,1.006,0,0,0,0-2.012Zm0,0" transform="translate(0 -16.307)" fill="#4fcaae"/>
      </g>
    </g>
  </g>
</svg>
