<svg xmlns="http://www.w3.org/2000/svg" width="48.036" height="48.073" viewBox="0 0 48.036 48.073">
  <g id="media" transform="translate(-0.198 -0.001)">
    <g id="Group_535" data-name="Group 535" transform="translate(2.147 28.036)">
      <g id="Group_534" data-name="Group 534" transform="translate(0)">
        <path id="Path_2006" data-name="Path 2006" d="M20.949,298.483v15.028a5.015,5.015,0,0,0,5.009,5.009H62.026a5.014,5.014,0,0,0,5.009-5.009V298.483Z" transform="translate(-20.949 -298.483)" fill="#cacaca"/>
      </g>
    </g>
    <g id="Group_537" data-name="Group 537" transform="translate(16.421 4.582)">
      <g id="Group_536" data-name="Group 536">
        <path id="Path_2007" data-name="Path 2007" d="M180.425,48.776l-7.5,1.779,6.282,9.243,8.121-1.847Z" transform="translate(-172.927 -48.776)" fill="#cacaca"/>
      </g>
    </g>
    <g id="Group_539" data-name="Group 539" transform="translate(6.256 6.856)">
      <g id="Group_538" data-name="Group 538">
        <path id="Path_2008" data-name="Path 2008" d="M72.784,72.99,64.7,74.906l6.216,9.157,8.133-1.849Z" transform="translate(-64.703 -72.99)" fill="#cacaca"/>
      </g>
    </g>
    <g id="Group_541" data-name="Group 541" transform="translate(36.17 0.001)">
      <g id="Group_540" data-name="Group 540" transform="translate(0 0)">
        <path id="Path_2009" data-name="Path 2009" d="M395.219,8.744l-1.705-6.468a3.027,3.027,0,0,0-3.593-2.2l-6.733,1.6,6.388,9.418,4.9-1.114a1,1,0,0,0,.635-.459A1.01,1.01,0,0,0,395.219,8.744Z" transform="translate(-383.188 -0.001)" fill="#cacaca"/>
      </g>
    </g>
    <g id="Group_543" data-name="Group 543" transform="translate(26.047 2.169)">
      <g id="Group_542" data-name="Group 542">
        <path id="Path_2010" data-name="Path 2010" d="M283.45,23.091,275.413,25l6.917,9.2,7.5-1.705Z" transform="translate(-275.413 -23.091)" fill="#cacaca"/>
      </g>
    </g>
    <g id="Group_545" data-name="Group 545" transform="translate(9.038 18.019)">
      <g id="Group_544" data-name="Group 544">
        <path id="Path_2011" data-name="Path 2011" d="M97.52,191.838l-3.206,8.013h7.861l3.206-8.013Z" transform="translate(-94.314 -191.838)" fill="#cacaca"/>
      </g>
    </g>
    <g id="Group_547" data-name="Group 547" transform="translate(19.056 18.019)">
      <g id="Group_546" data-name="Group 546">
        <path id="Path_2012" data-name="Path 2012" d="M204.187,191.838l-3.206,8.013h7.861l3.206-8.013Z" transform="translate(-200.981 -191.838)" fill="#cacaca"/>
      </g>
    </g>
    <g id="Group_549" data-name="Group 549" transform="translate(39.094 18.019)">
      <g id="Group_548" data-name="Group 548">
        <path id="Path_2013" data-name="Path 2013" d="M422.452,191.838h-4.931l-3.206,8.015h9.139V192.84A1,1,0,0,0,422.452,191.838Z" transform="translate(-414.315 -191.838)" fill="#cacaca"/>
      </g>
    </g>
    <g id="Group_551" data-name="Group 551" transform="translate(29.075 18.019)">
      <g id="Group_550" data-name="Group 550">
        <path id="Path_2014" data-name="Path 2014" d="M310.853,191.838l-3.206,8.013h7.859l3.208-8.013Z" transform="translate(-307.647 -191.838)" fill="#cacaca"/>
      </g>
    </g>
    <g id="Group_553" data-name="Group 553" transform="translate(0.198 9.269)">
      <g id="Group_552" data-name="Group 552" transform="translate(0)">
        <path id="Path_2015" data-name="Path 2015" d="M4.172,98.675l-1.633.387a3,3,0,0,0-2.25,3.661l1.857,7.342v5.374H6.88l3.008-7.516.489-.11Z" transform="translate(-0.198 -98.675)" fill="#cacaca"/>
      </g>
    </g>
  </g>
</svg>
