<svg xmlns="http://www.w3.org/2000/svg" width="542.21" height="320.21" viewBox="0 0 542.21 320.21">
  <g id="Pillers" transform="translate(-9277 2785)">
    <g id="Group_649" data-name="Group 649" transform="translate(436 206)">
      <path id="Path_2135" data-name="Path 2135" d="M280.39,234.407a80.1,80.1,0,1,1,80.1-80.1A80.2,80.2,0,0,1,280.39,234.407Z" transform="translate(8640.714 -3065.2)" fill="#ffb44f"/>
      <text id="OPM_ROE_ROCE_Quality_of_management" data-name="OPM  ROE  ROCE
Quality of management" transform="translate(8921 -2914)" fill="#fff" font-size="14" font-family="Raleway-Bold, Raleway" font-weight="700"><tspan x="-55.538" y="0" xml:space="preserve">OPM  ROE  ROCE</tspan><tspan font-size="12" font-family="Raleway-MediumItalic, Raleway" font-weight="500" font-style="italic"><tspan x="-64.344" y="17">Quality of management</tspan></tspan></text>
    </g>
    <g id="Group_648" data-name="Group 648" transform="translate(883 152)">
      <path id="Path_2153" data-name="Path 2153" d="M280.392,234.41A80.1,80.1,0,1,1,360.5,154.3,80.2,80.2,0,0,1,280.392,234.41Z" transform="translate(8480.714 -2851.2)" fill="#ffb44f"/>
      <text id="Interest_average_assets_debt_Soundness_of_balance_sheet" data-name="Interest average
assets debt
Soundness of balance
sheet" transform="translate(8762 -2717)" fill="#fff" font-size="14" font-family="Raleway-Bold, Raleway" font-weight="700"><tspan x="-54.691" y="0">Interest average</tspan><tspan x="-38.773" y="17">assets debt</tspan><tspan font-size="12" font-family="Raleway-MediumItalic, Raleway" font-weight="500" font-style="italic"><tspan x="-60.456" y="34">Soundness of balance</tspan><tspan x="-14.718" y="51">sheet</tspan></tspan></text>
    </g>
    <g id="Group_647" data-name="Group 647" transform="translate(737 -28)">
      <path id="Path_2154" data-name="Path 2154" d="M280.392,234.41A80.1,80.1,0,1,1,360.5,154.3,80.2,80.2,0,0,1,280.392,234.41Z" transform="translate(8721.714 -2831.2)" fill="#ffb44f"/>
      <text id="Soundness_of_balance_sheet_Growth" data-name="Soundness of
balance sheet
Growth" transform="translate(9002 -2689)" fill="#fff" font-size="14" font-family="Raleway-Bold, Raleway" font-weight="700"><tspan x="-45.437" y="0">Soundness of</tspan><tspan x="-47.46" y="17">balance sheet</tspan><tspan font-size="12" font-family="Raleway-MediumItalic, Raleway" font-weight="500" font-style="italic"><tspan x="-19.572" y="34">Growth</tspan></tspan></text>
    </g>
    <g id="Group_646" data-name="Group 646" transform="translate(245 40)">
      <path id="Path_2155" data-name="Path 2155" d="M280.392,234.41A80.1,80.1,0,1,1,360.5,154.3,80.2,80.2,0,0,1,280.392,234.41Z" transform="translate(8926.714 -2739.2)" fill="#ffb44f"/>
      <text id="Historical_Valuation_Volatility_Market_sentiment" data-name="Historical Valuation
Volatility
Market sentiment" transform="translate(9207 -2597)" fill="#fff" font-size="14" font-family="Raleway-Bold, Raleway" font-weight="700"><tspan x="-65.1" y="0">Historical Valuation</tspan><tspan x="-29.75" y="17">Volatility</tspan><tspan font-size="12" font-family="Raleway-MediumItalic, Raleway" font-weight="500" font-style="italic"><tspan x="-47.388" y="34">Market sentiment</tspan></tspan></text>
    </g>
    <g id="Group_650" data-name="Group 650" transform="translate(452 206)">
      <path id="Path_2152" data-name="Path 2152" d="M280.392,234.41A80.105,80.105,0,1,1,360.5,154.3,80.2,80.2,0,0,1,280.392,234.41Z" transform="translate(8815.714 -3065.2)" fill="#ffb44f"/>
      <text id="Pledge_search_promoter_holding" data-name="Pledge search
promoter holding" transform="translate(9096 -2914)" fill="#fff" font-size="14" font-family="Raleway-Bold, Raleway" font-weight="700"><tspan x="-47.992" y="0">Pledge search</tspan><tspan x="-58.583" y="17">promoter holding</tspan></text>
    </g>
  </g>
</svg>
