<svg xmlns="http://www.w3.org/2000/svg" width="540" height="94" viewBox="0 0 540 94">
  <g id="remind" transform="translate(1 -87)">
    <rect id="Rectangle_316" data-name="Rectangle 316" width="540" height="94" transform="translate(-1 87)" fill="#f8fffd"/>
    <text id="Reminder" transform="translate(86 131)" fill="#262626" font-size="20" font-family="Roboto-Bold, Roboto" font-weight="700"><tspan x="0" y="0">Reminder</tspan></text>
    <text id="Remind_to_take_actions" data-name="Remind to take actions" transform="translate(86 153)" fill="#262626" font-size="15" font-family="Roboto-Regular, Roboto" opacity="0.4"><tspan x="0" y="0">Remind to take actions</tspan></text>
    <g id="add-reminder" transform="translate(29.008 112)">
      <path id="Path_2049" data-name="Path 2049" d="M140.714,273.012a1.708,1.708,0,0,0,0,3.417H157.2a1.708,1.708,0,0,0,0-3.417Z" transform="translate(-129.001 -249.692)" fill="#4fcaae"/>
      <path id="Path_2050" data-name="Path 2050" d="M312.006,8.554a1.708,1.708,0,0,0,1.708,1.708h5.125v5.125a1.708,1.708,0,1,0,3.417,0V10.262h5.125a1.708,1.708,0,0,0,0-3.417h-5.125V1.72a1.708,1.708,0,1,0-3.417,0V6.846h-5.125A1.708,1.708,0,0,0,312.006,8.554Z" transform="translate(-289.111 -0.011)" fill="#4fcaae"/>
      <path id="Path_2051" data-name="Path 2051" d="M257.664,0C257.775,0,257.553,0,257.664,0Z" transform="translate(-237.515)" fill="#4fcaae"/>
      <path id="Path_2052" data-name="Path 2052" d="M35.835,25.33,35.319,21.3a1.591,1.591,0,0,0-1.763-1.455,1.689,1.689,0,0,0-1.33,1.929l.7,5.467a1.615,1.615,0,0,0,1.546,1.471h.822a1.715,1.715,0,0,1,0,3.417H4.69a1.715,1.715,0,0,1,0-3.417h.822a1.615,1.615,0,0,0,1.546-1.471L8.74,14.121a12.53,12.53,0,0,1,4.887-8.592,11.255,11.255,0,0,1,6.522-2.1,10.636,10.636,0,0,1,4.29.968,1.513,1.513,0,0,0,2.055-.883,1.774,1.774,0,0,0-.807-2.249A13.819,13.819,0,0,0,20.149.012,14.18,14.18,0,0,0,11.9,2.681,16,16,0,0,0,5.647,13.646L4.15,25.33A4.991,4.991,0,0,0,.006,30.421,4.925,4.925,0,0,0,4.69,35.546h30.6a4.925,4.925,0,0,0,4.684-5.125A4.991,4.991,0,0,0,35.835,25.33Z" transform="translate(0 -0.011)" fill="#4fcaae"/>
      <path id="Path_2053" data-name="Path 2053" d="M205.976,437.021a1.709,1.709,0,0,0-1.894,1.5,1.712,1.712,0,0,1-3.392,0,1.708,1.708,0,0,0-3.394.395,5.128,5.128,0,0,0,10.18,0A1.708,1.708,0,0,0,205.976,437.021Z" transform="translate(-182.317 -399.68)" fill="#4fcaae"/>
    </g>
  </g>
</svg>
