<svg xmlns="http://www.w3.org/2000/svg" xmlns:xlink="http://www.w3.org/1999/xlink" width="36" height="36" viewBox="0 0 36 36">
  <defs>
    <clipPath id="clip-path">
      <rect id="Rectangle_348" data-name="Rectangle 348" width="36" height="36" transform="translate(33 1047)" fill="#c9c9c9" stroke="#707070" stroke-width="1"/>
    </clipPath>
  </defs>
  <g id="res" transform="translate(-33 -1047)" opacity="0.5" clip-path="url(#clip-path)">
    <g id="gear_2_" data-name="gear (2)" transform="translate(33 1047)">
      <g id="Group_588" data-name="Group 588">
        <path id="Path_2030" data-name="Path 2030" d="M35.432,9.623l-1.485-.371c-.029-.075-.059-.148-.09-.221l.787-1.311a.75.75,0,0,0-.113-.916L32.2,4.469a.747.747,0,0,0-.916-.113l-1.311.787c-.073-.031-.147-.062-.221-.09l-.371-1.485A.75.75,0,0,0,28.65,3h-3.3a.75.75,0,0,0-.727.568l-.371,1.485c-.074.029-.148.059-.221.09l-1.311-.787a.751.751,0,0,0-.916.113L19.469,6.8a.75.75,0,0,0-.113.916l.787,1.311c-.031.073-.062.146-.09.221l-1.485.371A.75.75,0,0,0,18,10.35v3.3a.75.75,0,0,0,.568.727l1.485.371c.029.075.059.148.09.221l-.787,1.311a.7.7,0,0,0-.042.2c-.006-.006,0-.016-.011-.023L16.546,13.7a.749.749,0,0,0-.916-.113l-1.293.776c-.26-.123-.525-.233-.793-.33l-.366-1.463A.75.75,0,0,0,12.45,12H8.55a.75.75,0,0,0-.727.568L7.457,14.03c-.268.1-.533.207-.793.33l-1.293-.776a.75.75,0,0,0-.916.113L1.7,16.455a.75.75,0,0,0-.113.916l.776,1.293c-.123.26-.233.525-.33.793l-1.463.366A.75.75,0,0,0,0,20.55v3.9a.75.75,0,0,0,.568.727l1.463.366c.1.268.207.533.33.793l-.776,1.293a.75.75,0,0,0,.113.916L4.455,31.3a.754.754,0,0,0,.916.113l1.293-.776c.26.123.525.233.793.33l.366,1.463A.75.75,0,0,0,8.55,33h3.9a.75.75,0,0,0,.727-.568l.366-1.463c.268-.1.533-.207.793-.33l1.293.776a.753.753,0,0,0,.916-.113L19.3,28.545a.75.75,0,0,0,.113-.916l-.776-1.293c.123-.26.233-.525.33-.793l1.463-.366A.75.75,0,0,0,21,24.45v-3.9a.75.75,0,0,0-.568-.727l-1.463-.366c-.1-.268-.207-.533-.33-.793l.776-1.293a.7.7,0,0,0,.042-.2c.006.006,0,.016.011.023L21.8,19.531a.752.752,0,0,0,.916.113l1.311-.787c.073.031.146.062.221.09l.371,1.485A.75.75,0,0,0,25.35,21h3.3a.75.75,0,0,0,.727-.568l.371-1.485c.075-.029.148-.059.221-.09l1.311.787a.753.753,0,0,0,.916-.113L34.531,17.2a.75.75,0,0,0,.113-.916l-.787-1.311c.031-.073.062-.146.09-.221l1.485-.371A.75.75,0,0,0,36,13.65v-3.3A.749.749,0,0,0,35.432,9.623ZM10.5,27A4.5,4.5,0,1,1,15,22.5,4.5,4.5,0,0,1,10.5,27ZM27,15a3,3,0,1,1,3-3A3,3,0,0,1,27,15Z" fill="#c9c9c9"/>
      </g>
    </g>
  </g>
</svg>
