<svg xmlns="http://www.w3.org/2000/svg" width="48.81" height="48.81" viewBox="0 0 48.81 48.81">
  <g id="statistics" transform="translate(0 0)">
    <path id="Path_1995" data-name="Path 1995" d="M35.29,22.88a4.268,4.268,0,0,0,2.969-1.206l4.233,2.116a4.2,4.2,0,0,0-.053.52,4.29,4.29,0,0,0,8.58,0,4.238,4.238,0,0,0-.43-1.838l5.742-5.742a4.238,4.238,0,0,0,1.838.43,4.3,4.3,0,0,0,4.29-4.29,4.226,4.226,0,0,0-.214-1.271l4.989-3.741A4.287,4.287,0,1,0,65.32,4.29a4.225,4.225,0,0,0,.214,1.271L60.544,9.3a4.271,4.271,0,0,0-6.235,5.406L48.568,20.45a4.216,4.216,0,0,0-4.807.776L39.527,19.11a4.2,4.2,0,0,0,.053-.52,4.29,4.29,0,1,0-4.29,4.29Zm0,0" transform="translate(-28.045)" fill="#cacaca"/>
    <path id="Path_1996" data-name="Path 1996" d="M47.38,181.65H45.855V151.43a1.429,1.429,0,0,0-1.43-1.43H38.7a1.429,1.429,0,0,0-1.43,1.43v30.22h-2.86V160.01a1.429,1.429,0,0,0-1.43-1.43h-5.72a1.429,1.429,0,0,0-1.43,1.43v21.64h-2.86v-10.2a1.429,1.429,0,0,0-1.43-1.43h-5.72a1.429,1.429,0,0,0-1.43,1.43v10.2h-2.86V165.73a1.429,1.429,0,0,0-1.43-1.43H4.385a1.429,1.429,0,0,0-1.43,1.43v15.92H1.43a1.43,1.43,0,0,0,0,2.86H47.38a1.43,1.43,0,0,0,0-2.86Zm0,0" transform="translate(0 -135.7)" fill="#cacaca"/>
  </g>
</svg>
