<svg xmlns="http://www.w3.org/2000/svg" width="540" height="94" viewBox="0 0 540 94">
  <g id="subscribe" transform="translate(0 -87)">
    <rect id="Rectangle_316" data-name="Rectangle 316" width="540" height="94" transform="translate(0 87)" fill="#f8fffd"/>
    <text id="Subscription" transform="translate(86 131)" fill="#262626" font-size="20" font-family="Roboto-Bold, Roboto" font-weight="700"><tspan x="0" y="0">Subscription</tspan></text>
    <text id="Select_Subscription" data-name="Select Subscription" transform="translate(86 153)" fill="#262626" font-size="15" font-family="Roboto-Regular, Roboto" opacity="0.4"><tspan x="0" y="0">Select Subscription</tspan></text>
    <path id="wallet_1_" data-name="wallet (1)" d="M36.374,29.93a.654.654,0,0,1,.657.654v5.8a3.27,3.27,0,0,1-3.27,3.27H3.27A3.27,3.27,0,0,1,0,36.386V12.026a3.27,3.27,0,0,1,3.27-3.27H33.761a3.27,3.27,0,0,1,3.27,3.27v5.8a.654.654,0,0,1-.656.654c-.68,0-2.236,0-6.046,0A3.924,3.924,0,0,0,26.4,22.408V26a3.924,3.924,0,0,0,3.924,3.924C34.194,29.928,35.708,29.934,36.374,29.93Zm2.864-7.523V26a2.619,2.619,0,0,1-2.614,2.616h-6.3A2.619,2.619,0,0,1,27.711,26v-3.6a2.619,2.619,0,0,1,2.616-2.616h6.294A2.619,2.619,0,0,1,39.238,22.408Zm-6.458,1.8a.654.654,0,0,0-.654-.654h-.981a.654.654,0,1,0,0,1.308h.981A.654.654,0,0,0,32.78,24.206ZM31.112,4.667l-.61-.18a.655.655,0,0,0-.7.223,3.846,3.846,0,0,0-.938,2.03.654.654,0,0,0,.652.708h2.792a.652.652,0,0,0,.644-.77,2.615,2.615,0,0,0-1.841-2.012ZM27.549,6.813a4.3,4.3,0,0,1,.686-2.138.653.653,0,0,0-.374-.966L23.714,2.488a.644.644,0,0,0-.826.628V6.794a.654.654,0,0,0,.654.654H26.9A.654.654,0,0,0,27.549,6.813Zm-16.1.635h.9A.654.654,0,0,0,13,6.794V1.154A.654.654,0,0,0,12.343.5h-.9a.654.654,0,0,0-.654.654v5.64A.654.654,0,0,0,11.444,7.448ZM18.965.5H14.959a.654.654,0,0,0-.654.654v5.64a.654.654,0,0,0,.654.654h5.967a.654.654,0,0,0,.654-.654V3.116A2.619,2.619,0,0,0,18.965.5ZM8.828.5h-.9A2.616,2.616,0,0,0,5.313,3.116V6.794a.654.654,0,0,0,.654.654H8.828a.654.654,0,0,0,.654-.654V1.154A.654.654,0,0,0,8.828.5Z" transform="translate(30.381 114.422)" fill="#4fcaae"/>
  </g>
</svg>
