<svg xmlns="http://www.w3.org/2000/svg" width="41.491" height="48.724" viewBox="0 0 41.491 48.724">
  <g id="surface1" transform="translate(0 0.001)">
    <path id="Path_1998" data-name="Path 1998" d="M129.725,158.457a9.284,9.284,0,1,0,9.283,9.283A9.294,9.294,0,0,0,129.725,158.457Zm5.512,7.535-6.651,6.651a1.429,1.429,0,0,1-2.022,0l-2.542-2.542a1.429,1.429,0,0,1,2.021-2.021l1.531,1.531,5.64-5.64a1.429,1.429,0,1,1,2.021,2.021Zm0,0" transform="translate(-108.979 -143.379)"/>
    <path id="Path_1999" data-name="Path 1999" d="M41.443,13.219v-.038c-.021-.468-.035-.963-.044-1.514a5.164,5.164,0,0,0-4.862-5.059A20.038,20.038,0,0,1,22.9.86L22.865.83a3.118,3.118,0,0,0-4.238,0L18.6.86A20.04,20.04,0,0,1,4.957,6.609,5.164,5.164,0,0,0,.095,11.667c-.008.547-.023,1.042-.044,1.514l0,.088C-.06,18.982-.2,26.091,2.183,32.544a24.536,24.536,0,0,0,5.886,9.169,30.793,30.793,0,0,0,11.519,6.814,3.568,3.568,0,0,0,.472.129,3.487,3.487,0,0,0,1.371,0,3.578,3.578,0,0,0,.474-.129,30.813,30.813,0,0,0,11.507-6.817A24.57,24.57,0,0,0,39.3,32.537C41.686,26.065,41.551,18.942,41.443,13.219ZM20.745,36.5A12.143,12.143,0,1,1,32.888,24.362,12.156,12.156,0,0,1,20.745,36.5Zm0,0" transform="translate(0)"/>
  </g>
</svg>
