<svg xmlns="http://www.w3.org/2000/svg" xmlns:xlink="http://www.w3.org/1999/xlink" width="24" height="24" viewBox="0 0 24 24">
  <defs>
    <clipPath id="clip-path">
      <rect id="Rectangle_324" data-name="Rectangle 324" width="24" height="24" transform="translate(49.104 285.104)" fill="#4fcaae" stroke="#707070" stroke-width="1"/>
    </clipPath>
  </defs>
  <g id="time" transform="translate(-47 -283)">
    <g id="Mask_Group_7" data-name="Mask Group 7" transform="translate(-2.104 -2.104)" clip-path="url(#clip-path)">
      <path id="clock_2_" data-name="clock (2)" d="M12.1,0a12.1,12.1,0,1,0,12.1,12.1A12.117,12.117,0,0,0,12.1,0ZM17.86,18.365a1.008,1.008,0,0,1-1.426,0l-5.043-5.043a1,1,0,0,1-.3-.713V6.052a1.009,1.009,0,1,1,2.017,0v6.139l4.748,4.748a1.008,1.008,0,0,1,0,1.426Zm0,0" transform="translate(49 285)" fill="#4fcaae"/>
    </g>
  </g>
</svg>
