<svg xmlns="http://www.w3.org/2000/svg" xmlns:xlink="http://www.w3.org/1999/xlink" width="326.865" height="359" viewBox="0 0 326.865 359">
  <defs>
    <linearGradient id="linear-gradient" x1="0.5" x2="0.5" y2="1" gradientUnits="objectBoundingBox">
      <stop offset="0" stop-color="#ffcb39"/>
      <stop offset="1" stop-color="#6dcfa6"/>
    </linearGradient>
    <linearGradient id="linear-gradient-2" x1="0.5" x2="0.5" y2="1" gradientUnits="objectBoundingBox">
      <stop offset="0" stop-color="#1fc28b"/>
      <stop offset="1" stop-color="#26c462"/>
    </linearGradient>
  </defs>
  <g id="tree1" transform="translate(-37.487 -11.599)">
    <path id="Path_2058" data-name="Path 2058" d="M391.225,228.334c-1.679,7.534-12.8,9.909-18.934,12.3-4.164,1.623-8.517,3.072-12.773,4.686a51.377,51.377,0,0,0,5.824-8.309c2.526-4.508,4.412-9.584,3.639-14.824-.139-.942-.249,3.818-6.525,13.845a36.464,36.464,0,0,1-10.645,10.64c-1.718,1.152-3.5,2.2-5.317,3.187-3.977-3.885-4.39-9.813-4.5-15.346a1.148,1.148,0,0,0,.32-.107c5.07-2.629,8.932-7.754,11.107-12.947a26.1,26.1,0,0,0,1.98-8.354c.29-4.433.156-8.014,3.049-11.65.2-.257-.064-.73-.387-.5-2.2,1.562-3.068,4.462-3.414,7.019-.462,3.415-.481,6.9-1.484,10.221-1.869,6.186-5.957,10.544-11.211,13.995-.012-.663-.027-1.315-.05-1.95-.227-6.157-1.646-12.723-7.12-16.338-.833-.55-1.577.767-.776,1.327,6.739,4.714,5.906,13.973,6.072,21.173.122,5.254.845,10.629,4.1,14.661-7.335,3.671-15.223,6.409-22.6,9.856a114.829,114.829,0,0,0-17.994,10.55,25.44,25.44,0,0,1,1.364-5.9,58.589,58.589,0,0,1,6.727-12.973q.234-.361.476-.716a26.65,26.65,0,0,0,5.742-1.3,26.282,26.282,0,0,0,7.943-4.031c4.2-3.155,7.857-7.8,8.938-12.985.064-.306-.369-.529-.529-.223-2.432,4.642-5.144,8.877-9.529,11.906a25,25,0,0,1-7.334,3.478,22.594,22.594,0,0,1-3.468.707c2.2-2.943,4.522-5.784,6-9.192,1.818-4.184,2-9.639-1.584-12.926a.864.864,0,0,0-1.351,1.043c3.193,5.294-1.1,9.869-4.446,13.594a80.992,80.992,0,0,0-8.954,11.4,44.958,44.958,0,0,0-5.944,13.618,24.125,24.125,0,0,0-.466,9.389,153.925,153.925,0,0,0-22.153,22.32,110.348,110.348,0,0,0-9.548,13.915c-.269.458-.543.922-.818,1.39,1.582-16.213,7.665-49.35,30.959-79.01,8.831-11.244,14.1-21.458,17.017-30.492,3.584-1.322,7.116-2.9,10.464-4.482a55.16,55.16,0,0,0,14.471-9.547,35.573,35.573,0,0,0,6.786-8.768c7.148.663,14.809,1.008,21.119-2.957a18.446,18.446,0,0,0,6.229-6.131c1.72-2.936,2.626-6.379,5.08-8.843.328-.33-.1-.932-.51-.661-2.332,1.556-3.44,3.745-4.639,6.213-1.458,3-3.219,5.589-6.2,7.253-5.952,3.319-13.092,2.954-19.726,2.4a37.069,37.069,0,0,0,1.346-3.483,34.154,34.154,0,0,0,1.16-4.627c5.465-.476,10.978-4.351,14.1-8.548a20.841,20.841,0,0,0,3.181-18.586,29.15,29.15,0,0,1-3.309,14.021,29.658,29.658,0,0,0-8.21-8.907,33.983,33.983,0,0,0-6.1-3.476c-2.406-1.122-4.96-2.59-5.736-5.337a.183.183,0,0,0-.358.048c.136,4.715,5.185,6.021,8.589,8.036,4.728,2.8,7.782,6.825,10.245,11.642a1.206,1.206,0,0,0,.181.259c-.224.326-.455.652-.7.977a18.49,18.49,0,0,1-5.872,4.839,20.83,20.83,0,0,1-5.583,1.94q.056-.59.094-1.182a33.822,33.822,0,0,0-1.035-9.481c-.192-.907-1.732-.723-1.641.222a38.17,38.17,0,0,1-2.726,17.132,36.2,36.2,0,0,1-9.9,13.61c-.036.031-.073.06-.108.09a58.377,58.377,0,0,0-.146-6.67,71.69,71.69,0,0,0-2.666-13.355c-2.522-9.1-6.086-19.5-2.236-28.769a.027.027,0,0,0-.05-.022,25.74,25.74,0,0,0-2.441,12.387,67.451,67.451,0,0,0,2.292,13.873,94.094,94.094,0,0,1,2.973,14.494,52.694,52.694,0,0,1,.031,9.861,63.489,63.489,0,0,1-11.43,6.652c-1.785.831-3.613,1.553-5.453,2.244,4.142-17.995-1.083-30.566-4.384-36.249-.3-.508,10.083,23.214-9.161,49.339-.424-.506-.859-1-1.24-1.521-.908-1.236-1.747-2.522-2.53-3.839a48.246,48.246,0,0,1-3.963-8.446,47.429,47.429,0,0,1-2.732-18.25c.121-2.66.358-5.544.485-8.477a17.408,17.408,0,0,0,8.308-3.608c3.963-3.124,6.519-7.7,8.324-12.327,2.144-5.5,3.159-11.371,4.937-16.989a48.922,48.922,0,0,1,3.26-8.184,36.6,36.6,0,0,1,2.2-3.528c.322-.472.626-.953.968-1.413.458-.615.76-1.467,1.207-2.039.163-.209-.122-.505-.343-.378a11.871,11.871,0,0,0-2.785,1.674,15.8,15.8,0,0,0-2.223,2.565,32.9,32.9,0,0,0-3.483,6.465c-2.084,4.96-2.913,10.33-4.453,15.462-1.534,5.113-3.508,10.139-7.529,13.814a16.951,16.951,0,0,1-8.312,4.333c-.077-7.816-1.692-15.42-9.119-19.6-1-.564-1.735.838-.875,1.5,4.546,3.487,6.265,9.6,6.464,15.091a56.253,56.253,0,0,1-.188,6.391c-1.641-1.064-3.328-2.048-4.88-3.258a43.733,43.733,0,0,1-5.336-4.972,36.1,36.1,0,0,1-7.721-12.879c-.212-.618-1.193-.357-.985.272a43.757,43.757,0,0,0,7.3,13.577c2.949,3.666,7.016,7.414,11.449,9.282a89.969,89.969,0,0,0-.677,12.208c.048,1.086.143,2.169.262,3.249a26.635,26.635,0,0,1-6.939-2.07,35.525,35.525,0,0,0-1.577-6.056c-.648-2.243-1.233-4.51-1.8-6.775-.1-.405-.711-.233-.622.171.47,2.159.922,4.329,1.322,6.5.311,1.694.473,3.519.919,5.213-.229-.139-.461-.273-.684-.423-3.061-2.051-4.993-4.718-7.38-7.43-.205-.233-.659.013-.539.314,1.247,3.141,4.122,5.888,6.759,7.892a28.181,28.181,0,0,0,10.295,5.162,1.255,1.255,0,0,0,.582.01,48.152,48.152,0,0,0,7.444,19.033A32.811,32.811,0,0,0,298.253,215l-.016.02c-8.6,10.449-16.276,20.272-22.982,29.211a54.553,54.553,0,0,1-2.228-6.69,58.273,58.273,0,0,1-2.008-15.9,114.715,114.715,0,0,1,1.926-16.2c.8-5.019,1.2-10.069-1.023-14.784-.41-.87-1.942-.244-1.573.664,2.27,5.579.922,11.415-.892,16.914a54.075,54.075,0,0,0-2.845,15.79,52.786,52.786,0,0,0,1.917,15.463,59.191,59.191,0,0,0,2.756,7.637c.218.5.442,1.015.673,1.533-12.47,16.881-21.191,30.194-25.793,37.941-.632-1.321-1.227-2.674-1.9-4-8.425-16.514-3.5-22.793-2.536-24.841a135.057,135.057,0,0,1,6.8-12.147c2.393-3.978,4.489-8.154,6.55-12.315,4.005-8.09,6.964-17.074,6.022-26.209-.95-9.2-6.39-16.59-10.52-24.581-2.213-4.282-4-8.89-3.875-13.779a17.51,17.51,0,0,1,1.285-6.175c.771-1.919,2.007-6.586,2.007-6.586s-.218.181-.58.53a20.771,20.771,0,0,0-3.864,4.8c-3.145,5.028-5.894,13.28-.232,23.33a63.259,63.259,0,0,1,6.375,15.252,53.981,53.981,0,0,1-7.524-6.772,54.956,54.956,0,0,1-12.6-23.592,75.882,75.882,0,0,1-1.427-27.175c.842-7.654,2-16.6-2.461-23.117-.508-.742-1.651.032-1.283.876,2.725,6.236,2.543,12.581,1.644,19.031-1.642-.9-3.35-1.7-5.073-2.437-8.46-3.622-16.408-7.015-20.718-15.971-.411-.856.831,8.195,12.526,15.081,4.016,2.365,8.779,3.906,12.788,6.43-.316,1.909-.663,3.828-.986,5.755a61.619,61.619,0,0,0,1.682,27.623,58.21,58.21,0,0,0,13.478,23.579,50.95,50.95,0,0,0,10.248,8.349c.313.193.64.4.973.6.485,10.584-3.554,21.675-15.715,32.767,0,0-12.808,14.386-11.5,25.924a58.782,58.782,0,0,0-7.972-5.512,23.793,23.793,0,0,1-2.431-7.2,41.261,41.261,0,0,1-.075-9.908c.472-5.466,1.4-10.873,2.044-16.319a12.185,12.185,0,0,1,1.422-1.707c1.567-1.549,3.568-2.66,5.21-4.153,1.81-1.645,3.619-3.227,5.562-4.715a30.886,30.886,0,0,0,4.855-4.436c2.918-3.44,3.7-7.714,4.651-11.988.073-.33-.419-.4-.508-.087a46.233,46.233,0,0,1-2.325,7.2,17.835,17.835,0,0,1-4.779,5.93c-1.971,1.662-4.191,2.985-6.189,4.612-1.973,1.607-3.856,3.328-5.966,4.757a13.107,13.107,0,0,0-1.589,1.268c.073-.811.14-1.622.191-2.436a44.911,44.911,0,0,0-.456-11.331,33.485,33.485,0,0,0-3.728-9.48,46.008,46.008,0,0,1-3.266-6.878c.016-.012.032-.019.048-.031,4.944-3.917,8.211-10.375,10-16.3.138-.458-2.119,4.638-5.047,7.9a66.99,66.99,0,0,1-5.714,5.592c-.006-.041-.015-.082-.021-.123-.554-3.713.775-7.232,2.062-10.649,2.157-5.725,4.057-13.112-1.842-17.272-.352-.248,4.56,5.667.024,16.2a24.045,24.045,0,0,0-9.194-7.424c-1.717-.784-3.51-1.413-5.186-2.287a13.17,13.17,0,0,1-4.667-4.445c-1.867-2.605-4.26-5.13-7.761-4.154-.718.2,4.958-.352,8.211,7.244,1.256,2.931,5.337,4.588,8.12,6a27.957,27.957,0,0,1,8.993,8.059l-.012.023c-1.659,2.946-1.7,6.455-1.061,9.816.6,3.152,2.116,6.009,3.533,8.85a36.146,36.146,0,0,1,3.666,10.143,31.664,31.664,0,0,1,.3,7.629,21.664,21.664,0,0,0-5.715-3.726,20.209,20.209,0,0,0-3.827-1.5c-5.418-1.438-5.7-4.286-5.7-3.665-.01,3.25,3.443,4.4,5.953,5.44a17.7,17.7,0,0,1,4.889,2.971c1.349,1.172,2.306,2.774,3.722,3.827a1.3,1.3,0,0,0,.255.147c-.043.269-.083.538-.131.806-.545,3.026-1.33,5.979-2.111,8.931-10.608-2.877-16.188-13.557-19.97-23.09-4.359-10.99-8.088-23.042-17.642-30.744-3.7-2.981-9.851-6.495-14.75-4.59-.482.188,8.045,1.335,13.776,7.635a60.133,60.133,0,0,1,6.215,7.964,47.317,47.317,0,0,1-6.509,1.458,76.128,76.128,0,0,1-7.634.12,27.378,27.378,0,0,0,7.677,1.364,23.532,23.532,0,0,0,7.954-.29c.023-.006.042-.018.065-.025.571,1.047,1.108,2.116,1.587,3.227,4.728,10.953,6.788,22.883,14.686,32.246a29.372,29.372,0,0,0,13.387,9.268,56.9,56.9,0,0,0-1.388,7.862,39.622,39.622,0,0,0,.7,12.868,82.764,82.764,0,0,0-11.578-3.373c-3.785-.871-8.136-1.849-10.206-5.489-2.3-4.038-1.637-9.316-2.464-13.746a29.933,29.933,0,0,0-6.3-13.158A33.5,33.5,0,0,0,162.366,210.6c-3.187-11.1-17.315-12.225-25.319-18.419a.441.441,0,0,0-.623.623c5.851,6.575,20.561,7.573,22.627,17.217a21.749,21.749,0,0,0-8.772.815,1.061,1.061,0,0,0,.281,2.075c9.751.4,19.866,3.3,24.974,12.343a29.864,29.864,0,0,1,3.6,12.733c.1,1.3.174,2.615.27,3.922-4.088-1.326-9.174-.685-13.01-2.345a15.059,15.059,0,0,1-2.666-1.531c.291-4.516-1.05-9.114-2.854-13.182-.155-.349-.765-.1-.622.262a34.472,34.472,0,0,1,2.075,11.86c-3.986-3.2-7.6-7.419-13.049-6.941-.377.033,3.521,1.22,7.091,3.916a77.181,77.181,0,0,1,6.047,5.714.616.616,0,0,0,.486.448,12.6,12.6,0,0,0,2.349,1.746,26.57,26.57,0,0,0,7.879,2.444c1.373.263,2.748.537,4.091.927a12.7,12.7,0,0,1,2.687,1.2,20.748,20.748,0,0,0,1.763,5.764c4.337,8.842,14.636,9.244,22.868,11.915A50.626,50.626,0,0,1,224.964,277a51.235,51.235,0,0,1,9.975,14.551,162.162,162.162,0,0,0-25.545-8.629,177.483,177.483,0,0,0-24.055-3.861,43.683,43.683,0,0,1-11.069-2.221,19.948,19.948,0,0,1-8.929-7.144c-4.569-6.157-7.954-14.457-16.239-16.28-.178-.04,0,.11.444.467a65.128,65.128,0,0,1,7.914,10.848c-5.962-1.76-12.319-2.765-18.336-4.183-5.951-1.4-16.478-2.144-19-8.852-.075-.2-.391-.12-.324.089,2.116,6.58,8.256,7.891,14.287,9.414q6.244,1.576,12.489,3.144c4.094,1.03,8.236,2.437,12.4,3.1.767,1.443,1.522,2.98,2.237,4.61,5.1,11.6,10.208,13.6,16.865,14.557,25.718,3.7,47.524,12.914,60.83,19.679,1.364,17.784,4.723,82.354-15.532,110.4h60.277s-25.688-39.683-12.425-94.486c.607-1.247,1.224-2.485,1.894-3.686,2.452-4.4,5.222-8.563,8.088-12.7A111.755,111.755,0,0,1,301.192,284.1a133.886,133.886,0,0,1,25.125-16.491c10.046-5.182,20.305-9.882,28.7-17.624,3.34-1.266,6.616-2.846,9.895-4.18q6.425-2.614,12.848-5.232c6.2-2.531,12.556-4.854,13.823-12.192C391.624,228.148,391.275,228.111,391.225,228.334Z" transform="translate(-55.608 -58.863)" fill="url(#linear-gradient)"/>
    <g id="Group_633" data-name="Group 633" transform="translate(50.349 48.881)" opacity="0.13">
      <path id="Path_2059" data-name="Path 2059" d="M690.9,323.2c-4.2,4.045-9.476,5.38-11.787,2.98s-.782-7.623,3.417-11.668,13.96-5.073,13.96-5.073S695.1,319.158,690.9,323.2Z" transform="translate(-391.366 -205.173)" fill="url(#linear-gradient-2)"/>
      <path id="Path_2060" data-name="Path 2060" d="M583.013,411.008c-4.638-3.221-6.905-7.981-5.064-10.631s7.093-2.187,11.73,1.035,7.464,12.3,7.464,12.3S587.651,414.23,583.013,411.008Z" transform="translate(-339.855 -250.797)" fill="url(#linear-gradient-2)"/>
      <path id="Path_2061" data-name="Path 2061" d="M633.105,350.289c-3.555.867-6.839-.076-7.335-2.107s1.984-4.381,5.539-5.249,9.173,1.658,9.173,1.658S636.66,349.422,633.105,350.289Z" transform="translate(-364.607 -222.207)" fill="url(#linear-gradient-2)"/>
      <path id="Path_2062" data-name="Path 2062" d="M559.819,297.258c-.488,3.112-2.326,5.409-4.1,5.129s-2.824-3.028-2.336-6.14,4.356-6.739,4.356-6.739S560.308,294.146,559.819,297.258Z" transform="translate(-327.557 -194.979)" fill="url(#linear-gradient-2)"/>
      <path id="Path_2063" data-name="Path 2063" d="M552.571,338.036c1.439,2.669,1.369,5.5-.157,6.321s-3.928-.675-5.367-3.344-.588-7.7-.588-7.7S551.132,335.367,552.571,338.036Z" transform="translate(-323.951 -217.379)" fill="url(#linear-gradient-2)"/>
      <path id="Path_2064" data-name="Path 2064" d="M524.344,326.721c.515,4.288-1.365,8.039-4.2,8.38s-5.547-2.86-6.062-7.148,3.932-10.6,3.932-10.6S523.829,322.433,524.344,326.721Z" transform="translate(-307.501 -209.22)" fill="url(#linear-gradient-2)"/>
      <path id="Path_2065" data-name="Path 2065" d="M460.186,501.622c-5.61-1.589-9.421-5.476-8.512-8.682s6.192-4.515,11.8-2.926,11.414,9.5,11.414,9.5S465.8,503.211,460.186,501.622Z" transform="translate(-275.537 -297.172)" fill="url(#linear-gradient-2)"/>
      <path id="Path_2066" data-name="Path 2066" d="M398.375,390.962c3.4,3.209,4.669,7.385,2.835,9.327s-6.076.916-9.475-2.292-4.593-10.987-4.593-10.987S394.976,387.754,398.375,390.962Z" transform="translate(-242.604 -244.841)" fill="url(#linear-gradient-2)"/>
      <path id="Path_2067" data-name="Path 2067" d="M481.964,277.076c-2.455,2.6-5.649,3.572-7.135,2.169s-.7-4.648,1.754-7.249,8.405-3.514,8.405-3.514S484.419,274.475,481.964,277.076Z" transform="translate(-287.063 -184.226)" fill="url(#linear-gradient-2)"/>
      <path id="Path_2068" data-name="Path 2068" d="M560.954,229.45c-1.97,2.087-4.534,2.867-5.727,1.74s-.562-3.73,1.408-5.817,6.746-2.821,6.746-2.821S562.924,227.362,560.954,229.45Z" transform="translate(-328.255 -160.737)" fill="url(#linear-gradient-2)"/>
      <path id="Path_2069" data-name="Path 2069" d="M457.83,426.349c1.356,5.67-.172,10.895-3.412,11.67s-6.966-3.194-8.322-8.864,2.711-14.6,2.711-14.6S456.473,420.678,457.83,426.349Z" transform="translate(-272.612 -258.926)" fill="url(#linear-gradient-2)"/>
      <path id="Path_2070" data-name="Path 2070" d="M648.13,199.762c-3,3-6.831,4.045-8.547,2.329s-.671-5.543,2.333-8.546,10.1-3.882,10.1-3.882S651.135,196.759,648.13,199.762Z" transform="translate(-371.281 -143.918)" fill="url(#linear-gradient-2)"/>
      <path id="Path_2071" data-name="Path 2071" d="M623.984,153.823c-.422,4.227-2.721,7.458-5.137,7.217s-4.031-3.863-3.61-8.09,5.355-9.4,5.355-9.4S624.406,149.6,623.984,153.823Z" transform="translate(-359.218 -120.334)" fill="url(#linear-gradient-2)"/>
      <path id="Path_2072" data-name="Path 2072" d="M641.054,375.416c-2.026-2.3-2.6-5.11-1.284-6.268s4.026-.228,6.052,2.076,2.333,7.46,2.333,7.46S643.08,377.72,641.054,375.416Z" transform="translate(-371.437 -235.452)" fill="url(#linear-gradient-2)"/>
      <path id="Path_2073" data-name="Path 2073" d="M601.3,353.1c1.9,2.408,2.327,5.241.951,6.327s-4.033.015-5.934-2.393-1.934-7.573-1.934-7.573S599.395,350.693,601.3,353.1Z" transform="translate(-348.585 -225.639)" fill="url(#linear-gradient-2)"/>
      <path id="Path_2074" data-name="Path 2074" d="M583.15,319.4c1.9,2.408,2.326,5.241.95,6.327s-4.032.015-5.934-2.394-1.934-7.573-1.934-7.573S581.249,316.994,583.15,319.4Z" transform="translate(-339.306 -208.405)" fill="url(#linear-gradient-2)"/>
      <path id="Path_2075" data-name="Path 2075" d="M532.9,286.158c-2.543-1.717-3.808-4.287-2.827-5.74s3.838-1.239,6.38.479,4.142,6.628,4.142,6.628S535.442,287.875,532.9,286.158Z" transform="translate(-315.529 -189.837)" fill="url(#linear-gradient-2)"/>
      <path id="Path_2076" data-name="Path 2076" d="M543.129,256.289c-.495,2.723-2.158,4.7-3.714,4.419s-2.417-2.72-1.922-5.443,3.969-5.829,3.969-5.829S543.623,253.566,543.129,256.289Z" transform="translate(-319.422 -174.486)" fill="url(#linear-gradient-2)"/>
      <path id="Path_2077" data-name="Path 2077" d="M595.945,162.321c-.495,2.723-2.157,4.7-3.714,4.419s-2.417-2.72-1.922-5.443,3.969-5.828,3.969-5.828S596.44,159.6,595.945,162.321Z" transform="translate(-346.433 -126.431)" fill="url(#linear-gradient-2)"/>
      <path id="Path_2078" data-name="Path 2078" d="M314.556,267.689c-2.462-1.264-3.873-3.43-3.15-4.837s3.3-1.522,5.767-.258,4.424,5.491,4.424,5.491S317.018,268.954,314.556,267.689Z" transform="translate(-203.776 -180.766)" fill="url(#linear-gradient-2)"/>
      <path id="Path_2079" data-name="Path 2079" d="M250.786,320.121c-1.307,2.938-3.729,4.714-5.408,3.967s-1.98-3.735-.672-6.673,6.085-5.486,6.085-5.486S252.094,317.183,250.786,320.121Z" transform="translate(-169.347 -206.444)" fill="url(#linear-gradient-2)"/>
      <path id="Path_2080" data-name="Path 2080" d="M402.236,352.805c3.644-1.415,7.254-.875,8.063,1.207s-1.489,4.918-5.133,6.334-9.948-.475-9.948-.475S398.592,354.221,402.236,352.805Z" transform="translate(-246.734 -226.945)" fill="url(#linear-gradient-2)"/>
      <path id="Path_2081" data-name="Path 2081" d="M580.156,149.343c-2.021,2.7-4.911,3.958-6.456,2.8s-1.158-4.282.863-6.985,7.5-4.2,7.5-4.2S582.177,146.641,580.156,149.343Z" transform="translate(-337.526 -119.012)" fill="url(#linear-gradient-2)"/>
      <path id="Path_2082" data-name="Path 2082" d="M560.2,151.664c2.744,1.627,4.216,4.217,3.286,5.785s-3.908,1.521-6.652-.106-4.706-6.626-4.706-6.626S557.46,150.038,560.2,151.664Z" transform="translate(-326.98 -123.929)" fill="url(#linear-gradient-2)"/>
      <path id="Path_2083" data-name="Path 2083" d="M347.35,106.589c-2.544,3.4-6.182,4.981-8.125,3.528s-1.458-5.39,1.086-8.791,9.442-5.288,9.442-5.288S349.894,103.188,347.35,106.589Z" transform="translate(-217.49 -96.038)" fill="url(#linear-gradient-2)"/>
      <path id="Path_2084" data-name="Path 2084" d="M320.6,113.917c3.6.882,6.115,3.267,5.611,5.326s-3.834,3.013-7.437,2.13-7.475-5.782-7.475-5.782S317,113.035,320.6,113.917Z" transform="translate(-203.821 -105.087)" fill="url(#linear-gradient-2)"/>
      <path id="Path_2085" data-name="Path 2085" d="M282.4,149.543c3.884-1,7.493,0,8.062,2.214s-2.118,4.826-6,5.822-10.072-1.7-10.072-1.7S278.519,150.539,282.4,149.543Z" transform="translate(-184.944 -123.202)" fill="url(#linear-gradient-2)"/>
      <path id="Path_2086" data-name="Path 2086" d="M283.986,286.687c.307,4-1.3,7.38-3.58,7.556s-4.385-2.923-4.692-6.92,3.421-9.624,3.421-9.624S283.679,282.69,283.986,286.687Z" transform="translate(-185.611 -188.939)" fill="url(#linear-gradient-2)"/>
      <path id="Path_2087" data-name="Path 2087" d="M257.07,184.2c-1.175,3.833-3.9,6.4-6.093,5.725s-3.014-4.323-1.84-8.156,6.7-7.709,6.7-7.709S258.245,180.363,257.07,184.2Z" transform="translate(-171.755 -135.937)" fill="url(#linear-gradient-2)"/>
      <path id="Path_2088" data-name="Path 2088" d="M251.1,220.888c2.991-.573,5.68.348,6.008,2.057s-1.832,3.558-4.822,4.131-7.555-1.761-7.555-1.761S248.107,221.461,251.1,220.888Z" transform="translate(-169.774 -159.799)" fill="url(#linear-gradient-2)"/>
      <path id="Path_2089" data-name="Path 2089" d="M262.444,267.055c-2.418,2.627-5.6,3.636-7.1,2.254s-.757-4.632,1.661-7.259,8.348-3.613,8.348-3.613S264.863,264.428,262.444,267.055Z" transform="translate(-174.808 -179.089)" fill="url(#linear-gradient-2)"/>
      <path id="Path_2090" data-name="Path 2090" d="M230.755,199.163c4,.339,7.076,2.465,6.882,4.748s-3.589,3.858-7.585,3.519-8.949-4.923-8.949-4.923S226.76,198.823,230.755,199.163Z" transform="translate(-157.693 -148.765)" fill="url(#linear-gradient-2)"/>
      <path id="Path_2091" data-name="Path 2091" d="M209.954,208.579c.327,4-1.259,7.387-3.542,7.574s-4.4-2.9-4.727-6.9,3.372-9.641,3.372-9.641S209.626,204.583,209.954,208.579Z" transform="translate(-147.751 -149.007)" fill="url(#linear-gradient-2)"/>
      <path id="Path_2092" data-name="Path 2092" d="M400.367,168.039c4.3,1.11,7.211,4.229,6.5,6.967s-4.764,4.059-9.064,2.949-8.727-7.542-8.727-7.542S396.068,166.929,400.367,168.039Z" transform="translate(-243.595 -132.748)" fill="url(#linear-gradient-2)"/>
      <path id="Path_2093" data-name="Path 2093" d="M401.441,234.472c4.294-1.128,8.358.175,9.076,2.91s-2.18,5.867-6.473,7-11.3-2.327-11.3-2.327S397.146,235.6,401.441,234.472Z" transform="translate(-245.47 -166.625)" fill="url(#linear-gradient-2)"/>
      <path id="Path_2094" data-name="Path 2094" d="M424.569,220.345c-.049,3.476-1.885,6.269-4.1,6.237s-3.969-2.875-3.92-6.352,4.125-8.036,4.125-8.036S424.619,216.869,424.569,220.345Z" transform="translate(-257.643 -155.441)" fill="url(#linear-gradient-2)"/>
      <path id="Path_2095" data-name="Path 2095" d="M472.948,195.538c-2.549,2.194-5.747,2.656-7.145,1.033s-.465-4.718,2.084-6.912,8.464-2.168,8.464-2.168S475.5,193.344,472.948,195.538Z" transform="translate(-282.5 -142.807)" fill="url(#linear-gradient-2)"/>
      <path id="Path_2096" data-name="Path 2096" d="M457.063,163.369c-2.619,3.15-6.369,4.351-8.376,2.682s-1.51-5.574,1.109-8.724,9.731-4.312,9.731-4.312S459.682,160.219,457.063,163.369Z" transform="translate(-273.449 -125.176)" fill="url(#linear-gradient-2)"/>
      <path id="Path_2097" data-name="Path 2097" d="M434.943,159.051c3.2,2.553,4.483,6.277,2.857,8.318s-5.542,1.626-8.745-.926-4.515-9.638-4.515-9.638S431.739,156.5,434.943,159.051Z" transform="translate(-261.73 -127.108)" fill="url(#linear-gradient-2)"/>
      <path id="Path_2098" data-name="Path 2098" d="M574.347,180.8c2.507,2.692,3.292,6.035,1.754,7.468s-4.818.412-7.325-2.28-3.051-8.86-3.051-8.86S571.84,178.111,574.347,180.8Z" transform="translate(-333.932 -137.508)" fill="url(#linear-gradient-2)"/>
      <path id="Path_2099" data-name="Path 2099" d="M543.8,157.08c-.815,2.66-2.707,4.44-4.227,3.975s-2.093-3-1.278-5.66,4.649-5.351,4.649-5.351S544.617,154.42,543.8,157.08Z" transform="translate(-319.715 -123.657)" fill="url(#linear-gradient-2)"/>
      <path id="Path_2100" data-name="Path 2100" d="M548.935,186.232c-2.238,1.653-4.818,1.957-5.763.679s.1-3.656,2.341-5.309,6.92-1.534,6.92-1.534S551.173,184.578,548.935,186.232Z" transform="translate(-322.22 -139.009)" fill="url(#linear-gradient-2)"/>
      <path id="Path_2101" data-name="Path 2101" d="M360.271,327.224c4.012,1.9,6.282,5.515,5.071,8.07s-5.445,3.086-9.457,1.184-7.146-9.054-7.146-9.054S356.259,325.322,360.271,327.224Z" transform="translate(-222.965 -213.859)" fill="url(#linear-gradient-2)"/>
      <path id="Path_2102" data-name="Path 2102" d="M436.7,310.084c-3.511,2.718-7.76,3.108-9.491.872s-.289-6.253,3.222-8.97,11.307-2.278,11.307-2.278S440.215,307.367,436.7,310.084Z" transform="translate(-262.722 -200.182)" fill="url(#linear-gradient-2)"/>
      <path id="Path_2103" data-name="Path 2103" d="M434.618,254.5c-2.121,3.481-5.639,5.208-7.856,3.856s-2.295-5.269-.173-8.75,8.954-5.657,8.954-5.657S436.74,251.021,434.618,254.5Z" transform="translate(-261.989 -171.681)" fill="url(#linear-gradient-2)"/>
      <path id="Path_2104" data-name="Path 2104" d="M416.166,278.989c2.7,1.644,4.035,4.37,2.988,6.088s-4.083,1.779-6.781.134-4.384-6.939-4.384-6.939S413.468,277.345,416.166,278.989Z" transform="translate(-253.266 -189.1)" fill="url(#linear-gradient-2)"/>
      <path id="Path_2105" data-name="Path 2105" d="M353.8,135.414c-3.257,1.546-6.7,1.117-7.68-.957s.857-5.01,4.114-6.556,9.365.158,9.365.158S357.06,133.868,353.8,135.414Z" transform="translate(-221.491 -112.001)" fill="url(#linear-gradient-2)"/>
      <path id="Path_2106" data-name="Path 2106" d="M368.729,272.621c-3.2,3.075-7.386,3.915-9.345,1.875s-.951-6.186,2.25-9.261,11-3.467,11-3.467S371.931,269.545,368.729,272.621Z" transform="translate(-183.618 418.938) rotate(-83)" fill="url(#linear-gradient-2)"/>
      <path id="Path_2107" data-name="Path 2107" d="M326.761,299.478c-2.416,2.32-5.573,2.954-7.051,1.415s-.718-4.668,1.7-6.988,8.3-2.616,8.3-2.616S329.178,297.158,326.761,299.478Z" transform="translate(-207.734 -195.889)" fill="url(#linear-gradient-2)"/>
      <path id="Path_2108" data-name="Path 2108" d="M182.313,431c4.234-2.462,8.938-2.272,10.506.425s-.592,6.88-4.826,9.342-12.7.849-12.7.849S178.079,433.464,182.313,431Z" transform="translate(-134.266 -266.454)" fill="url(#linear-gradient-2)"/>
      <path id="Path_2109" data-name="Path 2109" d="M173.327,378.323c3.415,3.361,4.449,7.848,2.308,10.024s-6.645,1.215-10.06-2.146-4.075-11.763-4.075-11.763S169.912,374.963,173.327,378.323Z" transform="translate(-127.211 -238.412)" fill="url(#linear-gradient-2)"/>
      <path id="Path_2110" data-name="Path 2110" d="M105,369.134c3.9,3.981,5.011,9.223,2.475,11.709s-7.755,1.274-11.658-2.707-4.494-13.768-4.494-13.768S101.1,365.153,105,369.134Z" transform="translate(-91.322 -233.262)" fill="url(#linear-gradient-2)"/>
      <path id="Path_2111" data-name="Path 2111" d="M175.839,352.243c2.508-1.393,5.186-1.361,5.982.072s-.592,3.724-3.1,5.117-7.279.649-7.279.649S173.332,353.636,175.839,352.243Z" transform="translate(-132.296 -226.537)" fill="url(#linear-gradient-2)"/>
      <path id="Path_2112" data-name="Path 2112" d="M277.065,472.612c3.7-3.793,8.461-5.153,10.628-3.038s.923,6.906-2.779,10.7-12.544,5-12.544,5S273.362,476.405,277.065,472.612Z" transform="translate(-183.91 -286.554)" fill="url(#linear-gradient-2)"/>
      <path id="Path_2113" data-name="Path 2113" d="M238.929,428.83c-3.056,3.131-6.985,4.254-8.774,2.508s-.763-5.7,2.294-8.833,10.355-4.128,10.355-4.128S241.985,425.7,238.929,428.83Z" transform="translate(-161.871 -260.882)" fill="url(#linear-gradient-2)"/>
      <path id="Path_2114" data-name="Path 2114" d="M208.578,324.424c-2.6,2.667-5.948,3.623-7.472,2.136s-.649-4.855,1.953-7.522,8.818-3.515,8.818-3.515S211.181,321.758,208.578,324.424Z" transform="translate(-147.083 -208.283)" fill="url(#linear-gradient-2)"/>
      <path id="Path_2115" data-name="Path 2115" d="M175.7,328.9c1.952,2.734,2.269,5.855.707,6.97s-4.412-.2-6.364-2.93-1.716-8.385-1.716-8.385S173.745,326.166,175.7,328.9Z" transform="translate(-130.696 -212.902)" fill="url(#linear-gradient-2)"/>
    </g>
    <path id="Path_2116" data-name="Path 2116" d="M168.337,144.038l1.9,3.47a9.2,9.2,0,0,0,3.657,3.657l3.47,1.9-3.47,1.9a9.2,9.2,0,0,0-3.657,3.657l-1.9,3.47-1.9-3.47a9.2,9.2,0,0,0-3.657-3.657l-3.47-1.9,3.47-1.9a9.194,9.194,0,0,0,3.657-3.657Z" transform="translate(-75.744 -71.704)" fill="#ffd199"/>
    <path id="Path_2117" data-name="Path 2117" d="M412.4,95.758l1.3,2.374a6.29,6.29,0,0,0,2.5,2.5l2.374,1.3-2.374,1.3a6.29,6.29,0,0,0-2.5,2.5l-1.3,2.374-1.3-2.374a6.291,6.291,0,0,0-2.5-2.5l-2.374-1.3,2.374-1.3a6.29,6.29,0,0,0,2.5-2.5Z" transform="translate(-202.014 -47.014)" fill="#ffd199"/>
    <path id="Path_2118" data-name="Path 2118" d="M608.714,99.323l1.7,3.1a8.23,8.23,0,0,0,3.272,3.272l3.1,1.7-3.1,1.7a8.23,8.23,0,0,0-3.272,3.272l-1.7,3.1-1.7-3.1a8.23,8.23,0,0,0-3.272-3.272l-3.1-1.7,3.1-1.7a8.23,8.23,0,0,0,3.272-3.272Z" transform="translate(-301.439 -48.837)" fill="#ffd199"/>
    <path id="Path_2119" data-name="Path 2119" d="M692.671,254.964l1.145,2.094a5.551,5.551,0,0,0,2.207,2.206l2.094,1.145-2.094,1.145a5.551,5.551,0,0,0-2.207,2.207l-1.145,2.094-1.145-2.094a5.553,5.553,0,0,0-2.207-2.207l-2.093-1.145,2.093-1.145a5.552,5.552,0,0,0,2.207-2.206Z" transform="translate(-345.719 -128.432)" fill="#ffd199"/>
    <path id="Path_2120" data-name="Path 2120" d="M671.53,396.587l1.393,2.546a6.749,6.749,0,0,0,2.684,2.684l2.546,1.392-2.546,1.393a6.751,6.751,0,0,0-2.684,2.683l-1.393,2.547-1.393-2.547a6.751,6.751,0,0,0-2.684-2.683l-2.546-1.393,2.546-1.392a6.749,6.749,0,0,0,2.684-2.684Z" transform="translate(-334.305 -200.858)" fill="#ffd199"/>
    <path id="Path_2121" data-name="Path 2121" d="M553.7,473.576l2.091,3.822a10.133,10.133,0,0,0,4.029,4.029l3.822,2.091-3.822,2.09a10.137,10.137,0,0,0-4.029,4.029L553.7,493.46l-2.09-3.822a10.142,10.142,0,0,0-4.029-4.029l-3.823-2.09,3.823-2.091a10.139,10.139,0,0,0,4.029-4.029Z" transform="translate(-272.349 -240.23)" fill="#ffd199"/>
    <path id="Path_2122" data-name="Path 2122" d="M307.11,517.968l1.473,2.36a6.768,6.768,0,0,0,2.839,2.487l2.694,1.291-2.694,1.291a6.768,6.768,0,0,0-2.839,2.488l-1.473,2.36-1.473-2.36A6.768,6.768,0,0,0,302.8,525.4l-2.694-1.291,2.694-1.291a6.768,6.768,0,0,0,2.839-2.487Z" transform="translate(-147.745 -262.932)" fill="#ffd199"/>
    <path id="Path_2123" data-name="Path 2123" d="M187.442,507.939l1.656,3.028a8.026,8.026,0,0,0,3.192,3.192l3.028,1.656-3.028,1.656a8.028,8.028,0,0,0-3.192,3.192l-1.656,3.028-1.656-3.028a8.029,8.029,0,0,0-3.192-3.192l-3.028-1.656,3.028-1.656a8.026,8.026,0,0,0,3.192-3.192Z" transform="translate(-86.101 -257.803)" fill="#ffd199"/>
    <path id="Path_2124" data-name="Path 2124" d="M73.826,266.045l1.856,3.393a8.995,8.995,0,0,0,3.577,3.577l3.393,1.856-3.393,1.856a9,9,0,0,0-3.577,3.577L73.826,283.7,71.97,280.3a9,9,0,0,0-3.577-3.577L65,274.871l3.393-1.856a8.995,8.995,0,0,0,3.577-3.577Z" transform="translate(-27.512 -134.099)" fill="#ffd199"/>
    <path id="Path_2125" data-name="Path 2125" d="M345.958,41.337l1.057,1.932a5.126,5.126,0,0,0,2.037,2.037l1.933,1.057-1.933,1.057a5.132,5.132,0,0,0-2.037,2.037l-1.057,1.933L344.9,49.457a5.126,5.126,0,0,0-2.037-2.037l-1.932-1.057,1.932-1.057a5.12,5.12,0,0,0,2.037-2.037Z" transform="translate(-168.624 -19.183)" fill="#ffd199"/>
    <circle id="Ellipse_286" data-name="Ellipse 286" cx="4.635" cy="4.635" r="4.635" transform="translate(66.407 108.431) rotate(-45)" fill="#82a54a"/>
    <circle id="Ellipse_287" data-name="Ellipse 287" cx="3.977" cy="3.977" r="3.977" transform="translate(67.243 163.35)" fill="#82a54a"/>
    <circle id="Ellipse_288" data-name="Ellipse 288" cx="5.047" cy="5.047" r="5.047" transform="translate(80.51 238.29)" fill="#9cca65"/>
    <circle id="Ellipse_289" data-name="Ellipse 289" cx="4.43" cy="4.43" r="4.43" transform="translate(256.577 253.541)" fill="#82a54a"/>
    <path id="Path_2126" data-name="Path 2126" d="M585.253,448.541a3.487,3.487,0,1,1-3.487-3.487A3.487,3.487,0,0,1,585.253,448.541Z" transform="translate(-290.003 -225.644)" fill="#9cca65"/>
    <circle id="Ellipse_290" data-name="Ellipse 290" cx="3.554" cy="3.554" r="3.554" transform="translate(352.168 176.122)" fill="#9cca65"/>
    <circle id="Ellipse_291" data-name="Ellipse 291" cx="5.448" cy="5.448" r="5.448" transform="translate(344.73 84.364) rotate(-76.653)" fill="#82a54a"/>
    <circle id="Ellipse_292" data-name="Ellipse 292" cx="3.864" cy="3.864" r="3.864" transform="translate(223.263 48.15) rotate(-26.064)" fill="#9cca65"/>
    <path id="Path_2127" data-name="Path 2127" d="M211.378,162.459a2.214,2.214,0,1,1-2.214-2.214A2.214,2.214,0,0,1,211.378,162.459Z" transform="translate(-100.106 -79.993)" fill="#82a54a"/>
    <circle id="Ellipse_293" data-name="Ellipse 293" cx="3.73" cy="3.73" r="3.73" transform="translate(195.571 65.121)" fill="#82a54a"/>
    <path id="Path_2128" data-name="Path 2128" d="M644.88,125.065a3.268,3.268,0,1,1-3.268-3.268A3.268,3.268,0,0,1,644.88,125.065Z" transform="translate(-320.72 -60.33)" fill="#82a54a"/>
    <path id="Path_2129" data-name="Path 2129" d="M401.123,207.957a2.085,2.085,0,1,1-2.085-2.085A2.085,2.085,0,0,1,401.123,207.957Z" transform="translate(-197.273 -103.326)" fill="#9cca65"/>
    <circle id="Ellipse_294" data-name="Ellipse 294" cx="2.68" cy="2.68" r="2.68" transform="translate(229.551 159.132)" fill="#9cca65"/>
    <path id="Path_2130" data-name="Path 2130" d="M664.7,164.213a2.086,2.086,0,1,1-2.085-2.085A2.086,2.086,0,0,1,664.7,164.213Z" transform="translate(-332.066 -80.955)" fill="#9cca65"/>
    <path id="Path_2131" data-name="Path 2131" d="M246.7,165.186a2.085,2.085,0,1,1-2.085-2.085A2.085,2.085,0,0,1,246.7,165.186Z" transform="translate(-118.302 -81.453)" fill="#9cca65"/>
    <path id="Path_2132" data-name="Path 2132" d="M98.946,320.72a2.085,2.085,0,1,1-2.085-2.086A2.085,2.085,0,0,1,98.946,320.72Z" transform="translate(-42.739 -160.993)" fill="#9cca65"/>
    <path id="Path_2133" data-name="Path 2133" d="M227.262,478.577a2.085,2.085,0,1,1-2.085-2.085A2.085,2.085,0,0,1,227.262,478.577Z" transform="translate(-108.36 -241.721)" fill="#9cca65"/>
    <path id="Path_2134" data-name="Path 2134" d="M665.673,323.043a2.085,2.085,0,1,1-2.085-2.085A2.085,2.085,0,0,1,665.673,323.043Z" transform="translate(-332.564 -162.181)" fill="#9cca65"/>
    <g id="Group_634" data-name="Group 634" transform="translate(90.447 89.693)">
      <path id="Path_2135" data-name="Path 2135" d="M239.063,151.753a38.776,38.776,0,1,1,38.776-38.777A38.821,38.821,0,0,1,239.063,151.753Z" transform="translate(-200.286 -74.2)" fill="#e4e4e4" stroke="#fff" stroke-width="3"/>
      <text id="Data_Never_Lies" data-name="Data
Never Lies" transform="translate(38.553 35.906)" fill="#666" font-size="9" font-family="Raleway-Bold, Raleway" font-weight="700"><tspan x="-10.098" y="0">Data</tspan><tspan x="-22.54" y="11">Never Lies</tspan></text>
    </g>
    <g id="Group_645" data-name="Group 645" transform="translate(138.737 12.599)">
      <path id="Path_2135-2" data-name="Path 2135" d="M239.063,151.753a38.776,38.776,0,1,1,38.776-38.777A38.821,38.821,0,0,1,239.063,151.753Z" transform="translate(-200.036 -73.7)" fill="#e4e4e4" stroke="#fff" stroke-width="3"/>
      <text id="Growth_is_a_function_of_value" data-name="Growth
is a function
of value" transform="translate(38.75 31)" fill="#666" font-size="9" font-family="Raleway-Bold, Raleway" font-weight="700"><tspan x="-15.75" y="0">Growth</tspan><tspan x="-26.149" y="11">is a function</tspan><tspan x="-17.118" y="22">of value</tspan></text>
    </g>
    <g id="Group_642" data-name="Group 642" transform="translate(216.678 81.222)">
      <path id="Path_2135-3" data-name="Path 2135" d="M239.063,151.753a38.776,38.776,0,1,1,38.776-38.777A38.821,38.821,0,0,1,239.063,151.753Z" transform="translate(-200.286 -74.2)" fill="#e4e4e4" stroke="#fff" stroke-width="3"/>
      <text id="Mr._Market_Knows_Best" data-name="Mr. Market
Knows Best" transform="translate(37.322 36.378)" fill="#666" font-size="9" font-family="Raleway-Bold, Raleway" font-weight="700"><tspan x="-22.509" y="0">Mr. Market</tspan><tspan x="-25.123" y="11">Knows Best</tspan></text>
    </g>
    <g id="Group_643" data-name="Group 643" transform="translate(285.3 148.997)">
      <path id="Path_2135-4" data-name="Path 2135" d="M239.063,151.753a38.776,38.776,0,1,1,38.776-38.777A38.821,38.821,0,0,1,239.063,151.753Z" transform="translate(-200.286 -74.2)" fill="#e4e4e4" stroke="#fff" stroke-width="3"/>
      <text id="Value_at_right_price" data-name="Value at
right price" transform="translate(37.7 35.603)" fill="#666" font-size="9" font-family="Raleway-Bold, Raleway" font-weight="700"><tspan x="-17.676" y="0">Value at</tspan><tspan x="-22.198" y="11">right price</tspan></text>
    </g>
    <g id="Group_644" data-name="Group 644" transform="translate(50.629 177.801)">
      <path id="Path_2135-5" data-name="Path 2135" d="M239.063,151.753a38.776,38.776,0,1,1,38.776-38.777A38.821,38.821,0,0,1,239.063,151.753Z" transform="translate(-200.286 -74.2)" fill="#e4e4e4" stroke="#fff" stroke-width="3"/>
      <text id="No_Human_Bias" data-name="No
Human Bias" transform="translate(38.371 35.798)" fill="#666" font-size="9" font-family="Raleway-Bold, Raleway" font-weight="700"><tspan x="-6.129" y="0">No</tspan><tspan x="-25.731" y="11">Human Bias</tspan></text>
    </g>
    <text id="Rooted_in_Knowledge" data-name="Rooted in Knowledge" transform="translate(198 368.599)" fill="#666" font-size="9" font-family="Raleway-Bold, Raleway" font-weight="700"><tspan x="-46.359" y="0">Rooted in Knowledge</tspan></text>
  </g>
</svg>
