<svg xmlns="http://www.w3.org/2000/svg" width="384.055" height="424" viewBox="0 0 384.055 424">
  <g id="tree" transform="translate(-37.487 -12.599)">
    <path id="Path_2058" data-name="Path 2058" d="M440.185,248.069c-1.982,8.893-15.105,11.7-22.349,14.519-4.915,1.915-10.053,3.626-15.077,5.531a60.643,60.643,0,0,0,6.874-9.807c2.981-5.322,5.208-11.313,4.295-17.5-.164-1.111-.294,4.507-7.7,16.342a43.041,43.041,0,0,1-12.565,12.559c-2.028,1.359-4.127,2.6-6.276,3.762-4.695-4.586-5.182-11.583-5.317-18.115a1.356,1.356,0,0,0,.378-.127c5.985-3.1,10.543-9.153,13.11-15.283a30.814,30.814,0,0,0,2.337-9.86c.343-5.233.184-9.46,3.6-13.751.242-.3-.076-.862-.457-.592-2.595,1.844-3.622,5.267-4.03,8.285-.546,4.031-.568,8.146-1.752,12.064-2.206,7.3-7.031,12.445-13.233,16.519-.014-.783-.032-1.552-.059-2.3-.268-7.267-1.942-15.018-8.4-19.285-.983-.649-1.862.9-.916,1.566,7.954,5.564,6.971,16.493,7.168,24.993.144,6.2,1,12.546,4.835,17.306-8.658,4.334-17.969,7.565-26.672,11.633a135.54,135.54,0,0,0-21.239,12.453,30.03,30.03,0,0,1,1.61-6.966,69.157,69.157,0,0,1,7.94-15.313q.276-.426.562-.845a31.458,31.458,0,0,0,6.777-1.535A31.024,31.024,0,0,0,363,269.567c4.956-3.724,9.274-9.209,10.55-15.327.076-.361-.435-.625-.625-.264-2.87,5.479-6.072,10.478-11.247,14.054a29.5,29.5,0,0,1-8.657,4.106,26.67,26.67,0,0,1-4.094.835c2.6-3.474,5.338-6.827,7.086-10.85,2.145-4.939,2.361-11.377-1.87-15.258a1.02,1.02,0,0,0-1.6,1.231c3.77,6.248-1.3,11.649-5.248,16.046a95.6,95.6,0,0,0-10.569,13.453,53.067,53.067,0,0,0-7.016,16.075,28.476,28.476,0,0,0-.55,11.083A181.691,181.691,0,0,0,303.014,331.1a130.251,130.251,0,0,0-11.271,16.425c-.317.54-.641,1.088-.966,1.64,1.867-19.137,9.048-58.252,36.543-93.262,10.424-13.272,16.645-25.329,20.087-35.992,4.231-1.56,8.4-3.425,12.352-5.29a65.109,65.109,0,0,0,17.081-11.269,41.989,41.989,0,0,0,8.01-10.35c8.438.783,17.481,1.19,24.929-3.49a21.774,21.774,0,0,0,7.353-7.237c2.03-3.465,3.1-7.529,6-10.438.388-.389-.122-1.1-.6-.78-2.753,1.836-4.06,4.421-5.475,7.333-1.721,3.541-3.8,6.6-7.324,8.562-7.025,3.917-15.453,3.486-23.284,2.83a43.756,43.756,0,0,0,1.588-4.112,40.313,40.313,0,0,0,1.37-5.461c6.451-.562,12.958-5.136,16.639-10.089a24.6,24.6,0,0,0,3.755-21.939,34.408,34.408,0,0,1-3.906,16.55,35.008,35.008,0,0,0-9.691-10.514,40.114,40.114,0,0,0-7.2-4.1c-2.84-1.325-5.855-3.057-6.77-6.3a.216.216,0,0,0-.422.057c.16,5.565,6.12,7.107,10.138,9.485,5.58,3.3,9.186,8.056,12.093,13.742a1.425,1.425,0,0,0,.213.306c-.264.385-.537.77-.827,1.153a21.825,21.825,0,0,1-6.931,5.711,24.587,24.587,0,0,1-6.59,2.29q.066-.7.111-1.4a39.923,39.923,0,0,0-1.222-11.191c-.227-1.071-2.044-.854-1.937.262a45.055,45.055,0,0,1-3.218,20.223,42.726,42.726,0,0,1-11.682,16.065c-.042.037-.086.07-.128.107a68.91,68.91,0,0,0-.172-7.874,84.62,84.62,0,0,0-3.147-15.764c-2.977-10.736-7.184-23.017-2.639-33.958a.032.032,0,0,0-.059-.027,30.382,30.382,0,0,0-2.881,14.621A79.618,79.618,0,0,0,365.633,174a111.063,111.063,0,0,1,3.509,17.108,62.2,62.2,0,0,1,.036,11.64,74.94,74.94,0,0,1-13.492,7.852c-2.107.98-4.264,1.833-6.436,2.649,4.89-21.24-1.279-36.079-5.174-42.787-.348-.6,11.9,27.4-10.813,58.238-.5-.6-1.014-1.184-1.464-1.795-1.072-1.459-2.062-2.977-2.986-4.532a56.948,56.948,0,0,1-4.678-9.97,55.984,55.984,0,0,1-3.224-21.542c.143-3.14.423-6.544.572-10.006a20.549,20.549,0,0,0,9.807-4.259c4.678-3.687,7.7-9.086,9.825-14.551,2.531-6.493,3.729-13.422,5.828-20.053a57.744,57.744,0,0,1,3.848-9.66,43.207,43.207,0,0,1,2.6-4.165c.381-.557.739-1.125,1.143-1.668.54-.726.9-1.731,1.425-2.407.193-.247-.144-.6-.4-.446a14.012,14.012,0,0,0-3.287,1.976,18.652,18.652,0,0,0-2.624,3.027,38.833,38.833,0,0,0-4.112,7.631c-2.46,5.855-3.438,12.193-5.256,18.251-1.811,6.035-4.14,11.968-8.887,16.306a20.009,20.009,0,0,1-9.811,5.114c-.091-9.225-2-18.2-10.764-23.137-1.183-.666-2.048.989-1.033,1.768,5.366,4.116,7.395,11.329,7.63,17.814a66.394,66.394,0,0,1-.221,7.544c-1.937-1.256-3.929-2.418-5.76-3.845a51.621,51.621,0,0,1-6.3-5.869,42.608,42.608,0,0,1-9.114-15.2c-.25-.729-1.408-.421-1.163.321a51.649,51.649,0,0,0,8.618,16.026c3.481,4.328,8.282,8.752,13.514,10.956a106.2,106.2,0,0,0-.8,14.41c.057,1.282.169,2.56.309,3.835a31.439,31.439,0,0,1-8.19-2.443,41.934,41.934,0,0,0-1.861-7.149c-.765-2.647-1.455-5.323-2.119-8-.119-.478-.839-.275-.735.2.555,2.549,1.088,5.109,1.561,7.675.367,2,.559,4.154,1.084,6.154-.271-.164-.544-.322-.807-.5-3.613-2.421-5.894-5.569-8.711-8.77-.242-.275-.778.016-.637.37,1.472,3.708,4.866,6.95,7.978,9.316a33.264,33.264,0,0,0,12.152,6.093,1.481,1.481,0,0,0,.687.012A56.838,56.838,0,0,0,325.681,226a38.729,38.729,0,0,0,4.762,6.324l-.019.024c-10.155,12.334-19.212,23.929-27.128,34.481a64.4,64.4,0,0,1-2.63-7.9,68.783,68.783,0,0,1-2.37-18.769c.1-6.421,1.262-12.795,2.273-19.12.947-5.925,1.418-11.885-1.208-17.45-.484-1.027-2.292-.288-1.857.783,2.68,6.585,1.088,13.474-1.053,19.965a63.828,63.828,0,0,0-3.358,18.638,62.307,62.307,0,0,0,2.263,18.252,69.862,69.862,0,0,0,3.253,9.014c.258.591.522,1.2.795,1.809-14.719,19.926-25.013,35.64-30.446,44.785-.746-1.559-1.449-3.156-2.246-4.72-9.945-19.492-4.128-26.9-2.993-29.322a159.419,159.419,0,0,1,8.025-14.338c2.825-4.7,5.3-9.625,7.731-14.537,4.728-9.55,8.22-20.153,7.108-30.937-1.121-10.863-7.543-19.582-12.417-29.015-2.612-5.054-4.718-10.494-4.573-16.265a20.67,20.67,0,0,1,1.516-7.289c.911-2.265,2.369-7.774,2.369-7.774s-.257.214-.685.626a24.517,24.517,0,0,0-4.561,5.67c-3.712,5.935-6.957,15.676-.274,27.538a74.669,74.669,0,0,1,7.525,18,63.718,63.718,0,0,1-8.881-7.993,64.869,64.869,0,0,1-14.873-27.847c-2.662-10.542-2.881-21.191-1.685-32.077.994-9.035,2.358-19.59-2.9-27.286-.6-.876-1.949.038-1.514,1.034,3.217,7.361,3,14.851,1.94,22.464-1.938-1.062-3.955-2.006-5.988-2.877-9.986-4.276-19.368-8.28-24.455-18.852-.486-1.01.98,9.673,14.785,17.8,4.74,2.791,10.362,4.61,15.094,7.589-.373,2.254-.783,4.518-1.164,6.793a72.734,72.734,0,0,0,1.985,32.606,68.711,68.711,0,0,0,15.909,27.832,60.14,60.14,0,0,0,12.1,9.855c.37.228.755.469,1.148.714.573,12.493-4.2,25.585-18.549,38.677,0,0-15.118,16.981-13.572,30.6a69.387,69.387,0,0,0-9.409-6.506,28.084,28.084,0,0,1-2.869-8.5,48.706,48.706,0,0,1-.088-11.7c.557-6.453,1.657-12.834,2.412-19.263a14.383,14.383,0,0,1,1.678-2.015c1.85-1.829,4.211-3.14,6.15-4.9,2.137-1.942,4.272-3.809,6.565-5.565a36.457,36.457,0,0,0,5.73-5.237c3.444-4.061,4.369-9.1,5.49-14.15.086-.389-.495-.471-.6-.1a54.572,54.572,0,0,1-2.745,8.5,21.052,21.052,0,0,1-5.64,7c-2.327,1.962-4.947,3.524-7.305,5.444-2.329,1.9-4.551,3.928-7.042,5.615a15.47,15.47,0,0,0-1.876,1.5c.086-.957.166-1.914.225-2.875a53.012,53.012,0,0,0-.538-13.374,39.523,39.523,0,0,0-4.4-11.19,54.309,54.309,0,0,1-3.855-8.118c.019-.014.038-.022.057-.037,5.836-4.623,9.692-12.246,11.8-19.244.163-.541-2.5,5.475-5.957,9.328a79.073,79.073,0,0,1-6.745,6.6c-.008-.048-.018-.1-.025-.145-.653-4.383.915-8.537,2.434-12.569,2.546-6.758,4.789-15.477-2.174-20.387-.416-.293,5.383,6.689.028,19.12a28.383,28.383,0,0,0-10.852-8.763c-2.027-.926-4.143-1.668-6.121-2.7a15.545,15.545,0,0,1-5.508-5.247c-2.2-3.075-5.029-6.055-9.161-4.9-.847.236,5.852-.415,9.693,8.551,1.482,3.46,6.3,5.416,9.584,7.086a33,33,0,0,1,10.615,9.513l-.014.027c-1.958,3.477-2,7.62-1.253,11.587.7,3.72,2.5,7.093,4.17,10.446a42.666,42.666,0,0,1,4.327,11.972,37.375,37.375,0,0,1,.351,9.005,25.571,25.571,0,0,0-6.746-4.4,23.853,23.853,0,0,0-4.518-1.766c-6.4-1.7-6.724-5.06-6.726-4.327-.012,3.836,4.064,5.193,7.027,6.421a20.9,20.9,0,0,1,5.771,3.507c1.592,1.384,2.722,3.274,4.393,4.517a1.538,1.538,0,0,0,.3.174c-.051.317-.1.636-.155.952-.643,3.572-1.57,7.057-2.492,10.542-12.521-3.4-19.108-16-23.572-27.255-5.145-12.972-9.547-27.2-20.825-36.289-4.364-3.519-11.628-7.667-17.411-5.418-.569.221,9.5,1.576,16.261,9.013a70.977,70.977,0,0,1,7.335,9.4,55.852,55.852,0,0,1-7.683,1.722c-4.489.508-9.481-.038-9.011.142a32.316,32.316,0,0,0,9.062,1.61,27.777,27.777,0,0,0,9.389-.343c.028-.007.05-.021.077-.029.674,1.235,1.307,2.5,1.873,3.809,5.581,12.929,8.012,27.01,17.335,38.062a34.67,34.67,0,0,0,15.8,10.939,67.165,67.165,0,0,0-1.639,9.28,46.769,46.769,0,0,0,.826,15.189,97.69,97.69,0,0,0-13.667-3.982c-4.467-1.028-9.6-2.183-12.047-6.48-2.711-4.767-1.933-11-2.908-16.226A35.333,35.333,0,0,0,190.6,240.56a39.547,39.547,0,0,0-20.559-13.427c-3.762-13.1-20.439-14.43-29.886-21.741a.52.52,0,0,0-.735.735c6.906,7.76,24.27,8.939,26.708,20.323a25.672,25.672,0,0,0-10.355.962,1.253,1.253,0,0,0,.332,2.449c11.509.469,23.449,3.9,29.479,14.57a35.25,35.25,0,0,1,4.248,15.03c.119,1.538.206,3.086.318,4.63-4.825-1.565-10.829-.809-15.357-2.768a17.774,17.774,0,0,1-3.147-1.807c.343-5.33-1.239-10.758-3.369-15.56-.183-.412-.9-.115-.735.31a40.69,40.69,0,0,1,2.449,14c-4.7-3.774-8.968-8.758-15.4-8.193-.445.039,4.157,1.44,8.37,4.623,2.568,1.94,4.9,4.633,7.138,6.745a.727.727,0,0,0,.573.528,14.868,14.868,0,0,0,2.772,2.061,31.363,31.363,0,0,0,9.3,2.885c1.621.31,3.244.634,4.83,1.094a14.992,14.992,0,0,1,3.172,1.42,24.489,24.489,0,0,0,2.081,6.8c5.119,10.437,17.276,10.911,26.993,14.065a59.758,59.758,0,0,1,24.111,15.221,60.477,60.477,0,0,1,11.775,17.176,191.418,191.418,0,0,0-30.153-10.185,209.492,209.492,0,0,0-28.394-4.557,51.56,51.56,0,0,1-13.066-2.621,23.545,23.545,0,0,1-10.539-8.432c-5.393-7.267-9.389-17.064-19.168-19.217-.21-.047,0,.13.524.551a76.876,76.876,0,0,1,9.342,12.8c-7.038-2.077-14.541-3.264-21.643-4.937-7.025-1.655-19.45-2.531-22.426-10.449-.088-.235-.462-.141-.383.106,2.5,7.767,9.745,9.315,16.864,11.112q7.37,1.861,14.741,3.711c4.832,1.215,9.721,2.877,14.639,3.658.905,1.7,1.8,3.517,2.641,5.441,6.014,13.687,12.049,16.054,19.907,17.183,30.357,4.364,56.1,15.244,71.8,23.229,1.61,20.992,5.575,97.209-18.333,130.313h71.15s-30.322-46.841-14.666-111.529c.716-1.472,1.445-2.934,2.235-4.351,2.894-5.189,6.163-10.108,9.547-14.986a131.913,131.913,0,0,1,23.583-25.642,158.039,158.039,0,0,1,29.657-19.465c11.858-6.117,23.968-11.664,33.879-20.8,3.943-1.494,7.81-3.359,11.679-4.934q7.584-3.086,15.166-6.176c7.323-2.988,14.821-5.73,16.316-14.391C440.656,247.848,440.244,247.8,440.185,248.069Z" transform="translate(-50.792 -50.301)" fill="#825c2e"/>
    <g id="Group_633" data-name="Group 633" transform="translate(52.668 55.425)">
      <path id="Path_2059" data-name="Path 2059" d="M693.219,325.685c-4.956,4.775-11.186,6.35-13.914,3.518s-.923-9,4.034-13.773,16.478-5.988,16.478-5.988S698.175,320.911,693.219,325.685Z" transform="translate(-339.658 -186.365)" fill="#82a54a"/>
      <path id="Path_2060" data-name="Path 2060" d="M584.042,413.236c-5.474-3.8-8.151-9.42-5.978-12.549s8.372-2.581,13.846,1.222,8.81,14.516,8.81,14.516S589.516,417.039,584.042,413.236Z" transform="translate(-297.024 -224.126)" fill="#82a54a"/>
      <path id="Path_2061" data-name="Path 2061" d="M634.439,351.649c-4.2,1.024-8.073-.089-8.658-2.487s2.342-5.172,6.538-6.2,10.828,1.957,10.828,1.957S638.635,350.625,634.439,351.649Z" transform="translate(-317.51 -200.464)" fill="#9cca65"/>
      <path id="Path_2062" data-name="Path 2062" d="M561,298.656c-.576,3.674-2.745,6.384-4.844,6.055s-3.333-3.574-2.757-7.247,5.142-7.955,5.142-7.955S561.579,294.982,561,298.656Z" transform="translate(-286.845 -177.928)" fill="#9cca65"/>
      <path id="Path_2063" data-name="Path 2063" d="M553.718,338.889c1.7,3.151,1.615,6.492-.185,7.462s-4.636-.8-6.335-3.948-.694-9.092-.694-9.092S552.02,335.738,553.718,338.889Z" transform="translate(-283.861 -196.468)" fill="#9cca65"/>
      <path id="Path_2064" data-name="Path 2064" d="M526.2,328.41c.608,5.061-1.611,9.49-4.955,9.891s-6.548-3.376-7.155-8.437,4.641-12.509,4.641-12.509S525.595,323.349,526.2,328.41Z" transform="translate(-270.246 -189.714)" fill="#82a54a"/>
      <path id="Path_2065" data-name="Path 2065" d="M461.746,503.837c-6.621-1.876-11.12-6.464-10.048-10.247s7.308-5.33,13.93-3.454S479.1,501.354,479.1,501.354,468.367,505.713,461.746,503.837Z" transform="translate(-243.791 -262.509)" fill="#a0ca42"/>
      <path id="Path_2066" data-name="Path 2066" d="M400.4,391.675c4.012,3.787,5.511,8.717,3.347,11.009s-7.172,1.081-11.184-2.706-5.422-12.968-5.422-12.968S396.389,387.888,400.4,391.675Z" transform="translate(-216.533 -219.197)" fill="#82a54a"/>
      <path id="Path_2067" data-name="Path 2067" d="M483.386,278.626c-2.9,3.07-6.668,4.216-8.423,2.56s-.827-5.486,2.07-8.556,9.921-4.148,9.921-4.148S486.285,275.556,483.386,278.626Z" transform="translate(-253.33 -169.028)" fill="#82a54a"/>
      <path id="Path_2068" data-name="Path 2068" d="M562.1,230.694c-2.326,2.463-5.352,3.384-6.76,2.054s-.664-4.4,1.662-6.867,7.963-3.329,7.963-3.329S564.422,228.23,562.1,230.694Z" transform="translate(-287.423 -149.587)" fill="#9cca65"/>
      <path id="Path_2069" data-name="Path 2069" d="M460,428.477c1.6,6.693-.2,12.86-4.027,13.775s-8.223-3.77-9.823-10.463,3.2-17.237,3.2-17.237S458.4,421.783,460,428.477Z" transform="translate(-241.369 -230.854)" fill="#a0ca42"/>
      <path id="Path_2070" data-name="Path 2070" d="M649.821,201.583c-3.546,3.545-8.063,4.775-10.088,2.749s-.792-6.542,2.753-10.087,11.923-4.582,11.923-4.582S653.367,198.039,649.821,201.583Z" transform="translate(-323.034 -135.666)" fill="#82a54a"/>
      <path id="Path_2071" data-name="Path 2071" d="M625.574,155.676c-.5,4.989-3.212,8.8-6.063,8.519s-4.759-4.56-4.261-9.549,6.32-11.1,6.32-11.1S626.071,150.687,625.574,155.676Z" transform="translate(-313.05 -116.147)" fill="#9cca65"/>
      <path id="Path_2072" data-name="Path 2072" d="M641.413,376.636c-2.391-2.72-3.07-6.032-1.516-7.4s4.752-.269,7.143,2.45,2.753,8.806,2.753,8.806S643.8,379.356,641.413,376.636Z" transform="translate(-323.163 -211.426)" fill="#82a54a"/>
      <path id="Path_2073" data-name="Path 2073" d="M602.543,353.758c2.244,2.842,2.746,6.186,1.122,7.468s-4.76.017-7-2.825-2.283-8.939-2.283-8.939S600.3,350.915,602.543,353.758Z" transform="translate(-304.25 -203.304)" fill="#9cca65"/>
      <path id="Path_2074" data-name="Path 2074" d="M584.4,320.059c2.244,2.842,2.746,6.186,1.122,7.468s-4.76.017-7-2.825-2.283-8.939-2.283-8.939S582.154,317.216,584.4,320.059Z" transform="translate(-296.569 -189.041)" fill="#9cca65"/>
      <path id="Path_2075" data-name="Path 2075" d="M533.469,287.367c-3-2.027-4.5-5.06-3.336-6.775s4.53-1.462,7.531.565,4.889,7.823,4.889,7.823S536.47,289.393,533.469,287.367Z" transform="translate(-276.89 -173.672)" fill="#9cca65"/>
      <path id="Path_2076" data-name="Path 2076" d="M544.171,257.525c-.584,3.215-2.547,5.55-4.384,5.217s-2.853-3.21-2.269-6.425,4.685-6.88,4.685-6.88S544.754,254.31,544.171,257.525Z" transform="translate(-280.113 -160.967)" fill="#9cca65"/>
      <path id="Path_2077" data-name="Path 2077" d="M596.987,163.557c-.584,3.215-2.546,5.55-4.383,5.217s-2.853-3.21-2.269-6.425,4.685-6.88,4.685-6.88S597.571,160.342,596.987,163.557Z" transform="translate(-302.468 -121.193)" fill="#82a54a"/>
      <path id="Path_2078" data-name="Path 2078" d="M315.158,268.767c-2.906-1.493-4.571-4.049-3.718-5.71s3.9-1.8,6.807-.3,5.222,6.482,5.222,6.482S318.065,270.259,315.158,268.767Z" transform="translate(-184.396 -166.164)" fill="#9cca65"/>
      <path id="Path_2079" data-name="Path 2079" d="M252.029,321.6c-1.543,3.468-4.4,5.565-6.383,4.682s-2.337-4.409-.793-7.877,7.182-6.476,7.182-6.476S253.573,318.131,252.029,321.6Z" transform="translate(-155.9 -187.417)" fill="#82a54a"/>
      <path id="Path_2080" data-name="Path 2080" d="M403.5,352.947c4.3-1.671,8.563-1.033,9.517,1.425s-1.758,5.8-6.059,7.476-11.743-.561-11.743-.561S399.2,354.618,403.5,352.947Z" transform="translate(-219.951 -204.385)" fill="#9cca65"/>
      <path id="Path_2081" data-name="Path 2081" d="M581.491,150.855c-2.385,3.19-5.8,4.672-7.62,3.309s-1.367-5.054,1.018-8.244,8.853-4.959,8.853-4.959S583.876,147.665,581.491,150.855Z" transform="translate(-295.097 -115.052)" fill="#82a54a"/>
      <path id="Path_2082" data-name="Path 2082" d="M561.66,151.86c3.239,1.92,4.976,4.977,3.879,6.828s-4.613,1.8-7.852-.125-5.555-7.822-5.555-7.822S558.421,149.941,561.66,151.86Z" transform="translate(-286.368 -119.122)" fill="#9cca65"/>
      <path id="Path_2083" data-name="Path 2083" d="M349.031,108.493c-3,4.015-7.3,5.88-9.591,4.164s-1.721-6.362,1.281-10.377,11.145-6.241,11.145-6.241S352.033,104.477,349.031,108.493Z" transform="translate(-195.747 -96.038)" fill="#82a54a"/>
      <path id="Path_2084" data-name="Path 2084" d="M322.283,113.951c4.253,1.042,7.218,3.856,6.623,6.286s-4.526,3.556-8.778,2.515-8.823-6.825-8.823-6.825S318.03,112.909,322.283,113.951Z" transform="translate(-184.433 -103.527)" fill="#9cca65"/>
      <path id="Path_2085" data-name="Path 2085" d="M283.847,149.612c4.584-1.176,8.845-.005,9.517,2.614s-2.5,5.7-7.083,6.872-11.888-2.006-11.888-2.006S279.263,150.788,283.847,149.612Z" transform="translate(-168.81 -118.521)" fill="#82a54a"/>
      <path id="Path_2086" data-name="Path 2086" d="M285.481,288.309c.362,4.719-1.529,8.712-4.226,8.919s-5.176-3.45-5.538-8.168,4.038-11.36,4.038-11.36S285.119,283.59,285.481,288.309Z" transform="translate(-169.362 -172.929)" fill="#9cca65"/>
      <path id="Path_2087" data-name="Path 2087" d="M258.6,186.025c-1.386,4.524-4.606,7.551-7.192,6.758s-3.558-5.1-2.171-9.627,7.909-9.1,7.909-9.1S259.984,181.5,258.6,186.025Z" transform="translate(-157.894 -129.061)" fill="#9cca65"/>
      <path id="Path_2088" data-name="Path 2088" d="M252.247,220.919c3.53-.676,6.705.411,7.091,2.429s-2.162,4.2-5.692,4.876-8.918-2.079-8.918-2.079S248.717,221.595,252.247,220.919Z" transform="translate(-156.254 -148.811)" fill="#9cca65"/>
      <path id="Path_2089" data-name="Path 2089" d="M263.864,268.609c-2.854,3.1-6.6,4.292-8.377,2.661s-.894-5.467,1.96-8.569,9.854-4.265,9.854-4.265S266.719,265.508,263.864,268.609Z" transform="translate(-160.42 -164.776)" fill="#9cca65"/>
      <path id="Path_2090" data-name="Path 2090" d="M232.5,199.167c4.716.4,8.353,2.91,8.124,5.6s-4.237,4.554-8.953,4.154-10.563-5.811-10.563-5.811S227.78,198.766,232.5,199.167Z" transform="translate(-146.255 -139.678)" fill="#82a54a"/>
      <path id="Path_2091" data-name="Path 2091" d="M211.449,210.2c.386,4.717-1.486,8.719-4.181,8.94s-5.193-3.424-5.58-8.141,3.981-11.38,3.981-11.38S211.062,205.479,211.449,210.2Z" transform="translate(-138.026 -139.879)" fill="#9cca65"/>
      <path id="Path_2092" data-name="Path 2092" d="M402.4,168.078c5.074,1.31,8.511,4.992,7.677,8.224s-5.624,4.791-10.7,3.481-10.3-8.9-10.3-8.9S397.329,166.768,402.4,168.078Z" transform="translate(-217.353 -126.421)" fill="#9cca65"/>
      <path id="Path_2093" data-name="Path 2093" d="M403.009,234.545c5.068-1.332,9.865.206,10.713,3.435s-2.573,6.925-7.641,8.257-13.336-2.746-13.336-2.746S397.94,235.877,403.009,234.545Z" transform="translate(-218.905 -154.461)" fill="#a0ca42"/>
      <path id="Path_2094" data-name="Path 2094" d="M426.015,221.815c-.058,4.1-2.224,7.4-4.839,7.363s-4.685-3.394-4.627-7.5,4.869-9.485,4.869-9.485S426.074,217.712,426.015,221.815Z" transform="translate(-228.98 -145.204)" fill="#a0ca42"/>
      <path id="Path_2095" data-name="Path 2095" d="M474.354,196.99c-3.008,2.59-6.784,3.135-8.434,1.219s-.548-5.569,2.46-8.158,9.99-2.56,9.99-2.56S477.362,194.4,474.354,196.99Z" transform="translate(-249.553 -134.747)" fill="#9cca65"/>
      <path id="Path_2096" data-name="Path 2096" d="M458.8,165.237c-3.092,3.718-7.518,5.136-9.886,3.166s-1.782-6.58,1.309-10.3,11.486-5.09,11.486-5.09S461.888,161.519,458.8,165.237Z" transform="translate(-242.062 -120.155)" fill="#9cca65"/>
      <path id="Path_2097" data-name="Path 2097" d="M436.82,159.458c3.782,3.013,5.292,7.409,3.373,9.818s-6.541,1.919-10.323-1.093-5.33-11.377-5.33-11.377S433.038,156.445,436.82,159.458Z" transform="translate(-232.362 -121.753)" fill="#9cca65"/>
      <path id="Path_2098" data-name="Path 2098" d="M575.9,181.465c2.959,3.177,3.886,7.124,2.07,8.815s-5.687.486-8.646-2.692-3.6-10.458-3.6-10.458S572.943,178.288,575.9,181.465Z" transform="translate(-292.122 -130.362)" fill="#9cca65"/>
      <path id="Path_2099" data-name="Path 2099" d="M544.863,158.35c-.961,3.14-3.2,5.241-4.99,4.692s-2.47-3.541-1.509-6.681,5.487-6.316,5.487-6.316S545.824,155.209,544.863,158.35Z" transform="translate(-280.355 -118.897)" fill="#9cca65"/>
      <path id="Path_2100" data-name="Path 2100" d="M550.037,187.344c-2.642,1.952-5.687,2.31-6.8.8s.122-4.315,2.763-6.267,8.168-1.811,8.168-1.811S552.678,185.392,550.037,187.344Z" transform="translate(-282.429 -131.604)" fill="#82a54a"/>
      <path id="Path_2101" data-name="Path 2101" d="M362.351,327.367c4.736,2.245,7.416,6.51,5.985,9.526s-6.428,3.643-11.163,1.4-8.435-10.687-8.435-10.687S357.616,325.123,362.351,327.367Z" transform="translate(-200.278 -193.554)" fill="#9cca65"/>
      <path id="Path_2102" data-name="Path 2102" d="M438.549,311.961c-4.144,3.208-9.16,3.669-11.2,1.029s-.341-7.38,3.8-10.588,13.347-2.689,13.347-2.689S442.692,308.753,438.549,311.961Z" transform="translate(-233.184 -182.234)" fill="#82a54a"/>
      <path id="Path_2103" data-name="Path 2103" d="M436.345,256.4c-2.5,4.109-6.656,6.147-9.273,4.552s-2.709-6.219-.2-10.328,10.569-6.677,10.569-6.677S438.849,252.3,436.345,256.4Z" transform="translate(-232.577 -158.645)" fill="#a0ca42"/>
      <path id="Path_2104" data-name="Path 2104" d="M417.641,279.166c3.184,1.941,4.763,5.158,3.527,7.187s-4.819,2.1-8,.159-5.174-8.19-5.174-8.19S414.457,277.225,417.641,279.166Z" transform="translate(-225.357 -173.062)" fill="#9cca65"/>
      <path id="Path_2105" data-name="Path 2105" d="M355.236,136.886c-3.844,1.825-7.9,1.319-9.066-1.13s1.012-5.914,4.856-7.739,11.055.186,11.055.186S359.08,135.061,355.236,136.886Z" transform="translate(-199.058 -109.25)" fill="#82a54a"/>
      <path id="Path_2106" data-name="Path 2106" d="M370.6,274.578c-3.779,3.63-8.718,4.621-11.031,2.214s-1.123-7.3,2.656-10.932,12.986-4.092,12.986-4.092S374.375,270.948,370.6,274.578Z" transform="translate(-204.361 -166.186)" fill="#82a54a"/>
      <path id="Path_2107" data-name="Path 2107" d="M328.169,300.956c-2.852,2.739-6.579,3.487-8.323,1.67s-.848-5.51,2-8.249,9.8-3.088,9.8-3.088S331.021,298.216,328.169,300.956Z" transform="translate(-187.672 -178.681)" fill="#82a54a"/>
      <path id="Path_2108" data-name="Path 2108" d="M183.578,431.313c5-2.906,10.55-2.682,12.4.5s-.7,8.121-5.7,11.027-14.987,1-14.987,1S178.58,434.22,183.578,431.313Z" transform="translate(-126.865 -237.085)" fill="#9cca65"/>
      <path id="Path_2109" data-name="Path 2109" d="M175.46,379.024c4.031,3.967,5.251,9.264,2.724,11.832s-7.844,1.434-11.875-2.533-4.81-13.884-4.81-13.884S171.429,375.057,175.46,379.024Z" transform="translate(-121.026 -213.876)" fill="#82a54a"/>
      <path id="Path_2110" data-name="Path 2110" d="M107.465,369.993c4.607,4.7,5.915,10.887,2.922,13.821s-9.154,1.5-13.761-3.2-5.3-16.252-5.3-16.252S102.859,365.295,107.465,369.993Z" transform="translate(-91.322 -209.613)" fill="#9cca65"/>
      <path id="Path_2111" data-name="Path 2111" d="M176.632,352.428c2.96-1.645,6.121-1.607,7.061.085s-.7,4.4-3.658,6.04-8.592.766-8.592.766S173.673,354.072,176.632,352.428Z" transform="translate(-125.235 -204.048)" fill="#9cca65"/>
      <path id="Path_2112" data-name="Path 2112" d="M277.911,473.339c4.37-4.478,9.987-6.083,12.546-3.586s1.09,8.151-3.28,12.629-14.806,5.9-14.806,5.9S273.541,477.817,277.911,473.339Z" transform="translate(-167.954 -253.722)" fill="#9cca65"/>
      <path id="Path_2113" data-name="Path 2113" d="M240.671,430.716c-3.607,3.7-8.245,5.022-10.357,2.96s-.9-6.73,2.708-10.426,12.223-4.873,12.223-4.873S244.278,427.019,240.671,430.716Z" transform="translate(-149.713 -232.474)" fill="#82a54a"/>
      <path id="Path_2114" data-name="Path 2114" d="M210.061,326.029c-3.072,3.148-7.021,4.277-8.819,2.522s-.766-5.731,2.306-8.879,10.409-4.149,10.409-4.149S213.134,322.882,210.061,326.029Z" transform="translate(-137.473 -188.939)" fill="#9cca65"/>
      <path id="Path_2115" data-name="Path 2115" d="M177.029,329.684c2.3,3.227,2.678,6.911.834,8.228s-5.207-.231-7.512-3.459-2.026-9.9-2.026-9.9S174.725,326.457,177.029,329.684Z" transform="translate(-123.911 -192.762)" fill="#9cca65"/>
    </g>
    <path id="Path_2116" data-name="Path 2116" d="M169.965,144.038l2.24,4.1a10.854,10.854,0,0,0,4.317,4.316l4.1,2.24-4.1,2.24a10.856,10.856,0,0,0-4.317,4.317l-2.24,4.1-2.24-4.1a10.854,10.854,0,0,0-4.316-4.317l-4.1-2.24,4.1-2.24a10.853,10.853,0,0,0,4.316-4.316Z" transform="translate(-67.432 -60.93)" fill="#ffd199"/>
    <path id="Path_2117" data-name="Path 2117" d="M413.511,95.758l1.532,2.8A7.425,7.425,0,0,0,418,101.514l2.8,1.532-2.8,1.533a7.425,7.425,0,0,0-2.953,2.953l-1.532,2.8-1.533-2.8a7.425,7.425,0,0,0-2.953-2.953l-2.8-1.533,2.8-1.532a7.425,7.425,0,0,0,2.953-2.953Z" transform="translate(-171.941 -40.494)" fill="#ffd199"/>
    <path id="Path_2118" data-name="Path 2118" d="M610.171,99.323l2,3.664a9.715,9.715,0,0,0,3.862,3.862l3.665,2-3.665,2a9.715,9.715,0,0,0-3.862,3.862l-2,3.664-2-3.664a9.715,9.715,0,0,0-3.862-3.862l-3.664-2,3.664-2a9.715,9.715,0,0,0,3.862-3.862Z" transform="translate(-254.232 -42.003)" fill="#ffd199"/>
    <path id="Path_2119" data-name="Path 2119" d="M693.653,254.964,695,257.435a6.553,6.553,0,0,0,2.6,2.6l2.471,1.351-2.471,1.351a6.553,6.553,0,0,0-2.6,2.6l-1.351,2.471-1.352-2.471a6.554,6.554,0,0,0-2.6-2.6l-2.471-1.351,2.471-1.351a6.554,6.554,0,0,0,2.6-2.6Z" transform="translate(-290.881 -107.881)" fill="#ffd199"/>
    <path id="Path_2120" data-name="Path 2120" d="M672.725,396.587l1.644,3.005a7.967,7.967,0,0,0,3.168,3.168l3.005,1.644-3.005,1.644a7.969,7.969,0,0,0-3.168,3.167l-1.644,3.006-1.644-3.006a7.968,7.968,0,0,0-3.168-3.167l-3.005-1.644,3.005-1.644a7.966,7.966,0,0,0,3.168-3.168Z" transform="translate(-281.434 -167.825)" fill="#ffd199"/>
    <path id="Path_2121" data-name="Path 2121" d="M555.493,473.576l2.468,4.512a11.961,11.961,0,0,0,4.756,4.756l4.512,2.468-4.512,2.467a11.965,11.965,0,0,0-4.756,4.756l-2.468,4.512-2.467-4.512a11.971,11.971,0,0,0-4.756-4.756l-4.512-2.467,4.512-2.468a11.968,11.968,0,0,0,4.756-4.756Z" transform="translate(-230.155 -200.412)" fill="#ffd199"/>
    <path id="Path_2122" data-name="Path 2122" d="M308.373,517.968l1.739,2.786a7.989,7.989,0,0,0,3.351,2.936l3.18,1.524-3.18,1.524a7.989,7.989,0,0,0-3.351,2.936l-1.739,2.786-1.739-2.786a7.989,7.989,0,0,0-3.351-2.936l-3.18-1.524,3.18-1.524a7.988,7.988,0,0,0,3.351-2.936Z" transform="translate(-127.024 -219.202)" fill="#ffd199"/>
    <path id="Path_2123" data-name="Path 2123" d="M188.862,507.939l1.955,3.574a9.474,9.474,0,0,0,3.768,3.768l3.574,1.955-3.574,1.955a9.476,9.476,0,0,0-3.768,3.767l-1.955,3.575-1.955-3.575a9.476,9.476,0,0,0-3.768-3.767l-3.574-1.955,3.574-1.955a9.474,9.474,0,0,0,3.768-3.768Z" transform="translate(-76.005 -214.957)" fill="#ffd199"/>
    <path id="Path_2124" data-name="Path 2124" d="M75.418,266.045l2.19,4.005a10.617,10.617,0,0,0,4.222,4.222l4.005,2.191-4.005,2.19a10.622,10.622,0,0,0-4.222,4.222l-2.19,4.005-2.19-4.005a10.622,10.622,0,0,0-4.222-4.222L65,276.463l4.005-2.191a10.617,10.617,0,0,0,4.222-4.222Z" transform="translate(-27.512 -112.571)" fill="#ffd199"/>
    <path id="Path_2125" data-name="Path 2125" d="M346.865,41.337l1.247,2.281a6.051,6.051,0,0,0,2.4,2.4L352.8,47.27l-2.282,1.247a6.058,6.058,0,0,0-2.4,2.4L346.865,53.2l-1.247-2.282a6.051,6.051,0,0,0-2.4-2.4l-2.281-1.247,2.281-1.247a6.043,6.043,0,0,0,2.4-2.4Z" transform="translate(-144.306 -17.46)" fill="#ffd199"/>
    <circle id="Ellipse_286" data-name="Ellipse 286" cx="5.471" cy="5.471" r="5.471" transform="translate(71.623 125.717) rotate(-45)" fill="#82a54a"/>
    <circle id="Ellipse_287" data-name="Ellipse 287" cx="4.694" cy="4.694" r="4.694" transform="translate(72.61 190.542)" fill="#82a54a"/>
    <circle id="Ellipse_288" data-name="Ellipse 288" cx="5.958" cy="5.958" r="5.958" transform="translate(88.271 278.999)" fill="#9cca65"/>
    <circle id="Ellipse_289" data-name="Ellipse 289" cx="5.23" cy="5.23" r="5.23" transform="translate(296.096 297.001)" fill="#82a54a"/>
    <path id="Path_2126" data-name="Path 2126" d="M586.511,449.17a4.116,4.116,0,1,1-4.116-4.116A4.116,4.116,0,0,1,586.511,449.17Z" transform="translate(-244.767 -188.34)" fill="#9cca65"/>
    <circle id="Ellipse_290" data-name="Ellipse 290" cx="4.195" cy="4.195" r="4.195" transform="translate(408.929 205.617)" fill="#9cca65"/>
    <circle id="Ellipse_291" data-name="Ellipse 291" cx="6.431" cy="6.431" r="6.431" transform="translate(400.149 97.309) rotate(-76.653)" fill="#82a54a"/>
    <circle id="Ellipse_292" data-name="Ellipse 292" cx="4.561" cy="4.561" r="4.561" transform="translate(256.773 54.562) rotate(-26.064)" fill="#9cca65"/>
    <path id="Path_2127" data-name="Path 2127" d="M212.177,162.858a2.613,2.613,0,1,1-2.614-2.613A2.614,2.614,0,0,1,212.177,162.858Z" transform="translate(-87.595 -67.789)" fill="#82a54a"/>
    <circle id="Ellipse_293" data-name="Ellipse 293" cx="4.403" cy="4.403" r="4.403" transform="translate(224.085 74.594)" fill="#82a54a"/>
    <path id="Path_2128" data-name="Path 2128" d="M646.058,125.654A3.857,3.857,0,1,1,642.2,121.8,3.857,3.857,0,0,1,646.058,125.654Z" transform="translate(-270.19 -51.516)" fill="#82a54a"/>
    <path id="Path_2129" data-name="Path 2129" d="M401.875,208.333a2.462,2.462,0,1,1-2.461-2.461A2.461,2.461,0,0,1,401.875,208.333Z" transform="translate(-168.017 -87.102)" fill="#9cca65"/>
    <circle id="Ellipse_294" data-name="Ellipse 294" cx="3.164" cy="3.164" r="3.164" transform="translate(264.195 185.563)" fill="#9cca65"/>
    <path id="Path_2130" data-name="Path 2130" d="M665.453,164.59a2.462,2.462,0,1,1-2.462-2.462A2.462,2.462,0,0,1,665.453,164.59Z" transform="translate(-279.581 -68.586)" fill="#9cca65"/>
    <path id="Path_2131" data-name="Path 2131" d="M247.455,165.563a2.462,2.462,0,1,1-2.461-2.462A2.461,2.461,0,0,1,247.455,165.563Z" transform="translate(-102.656 -68.998)" fill="#9cca65"/>
    <path id="Path_2132" data-name="Path 2132" d="M99.7,321.1a2.461,2.461,0,1,1-2.461-2.462A2.462,2.462,0,0,1,99.7,321.1Z" transform="translate(-40.115 -134.83)" fill="#9cca65"/>
    <path id="Path_2133" data-name="Path 2133" d="M228.014,478.954a2.461,2.461,0,1,1-2.461-2.462A2.462,2.462,0,0,1,228.014,478.954Z" transform="translate(-94.427 -201.647)" fill="#9cca65"/>
    <path id="Path_2134" data-name="Path 2134" d="M666.425,323.42a2.461,2.461,0,1,1-2.462-2.462A2.462,2.462,0,0,1,666.425,323.42Z" transform="translate(-279.992 -135.814)" fill="#9cca65"/>
    <g id="Group_634" data-name="Group 634" transform="translate(114.511 114.831)">
      <path id="Path_2135" data-name="Path 2135" d="M246.057,165.742a45.771,45.771,0,1,1,45.77-45.771A45.824,45.824,0,0,1,246.057,165.742Z" transform="translate(-214.797 -85.431)" fill="#ffb44f"/>
      <text id="Data_Never_Lies" data-name="Data
Never Lies" transform="translate(31.489 31.769)" fill="#fff" font-size="11" font-family="Raleway-Bold, Raleway" font-weight="700"><tspan x="-12.342" y="0">Data</tspan><tspan x="-27.549" y="13">Never Lies</tspan></text>
    </g>
    <g id="Group_645" data-name="Group 645" transform="translate(171.511 23.831)">
      <path id="Path_2135-2" data-name="Path 2135" d="M246.057,165.742a45.771,45.771,0,1,1,45.77-45.771A45.824,45.824,0,0,1,246.057,165.742Z" transform="translate(-214.797 -85.431)" fill="#ffb44f"/>
      <text id="Growth_is_a_future_of_value" data-name="Growth is a
future of value" transform="translate(31.488 31.769)" fill="#fff" font-size="11" font-family="Raleway-Bold, Raleway" font-weight="700"><tspan x="-29.183" y="0">Growth is a</tspan><tspan x="-38.467" y="13">future of value</tspan></text>
    </g>
    <g id="Group_642" data-name="Group 642" transform="translate(263.511 104.831)">
      <path id="Path_2135-3" data-name="Path 2135" d="M246.057,165.742a45.771,45.771,0,1,1,45.77-45.771A45.824,45.824,0,0,1,246.057,165.742Z" transform="translate(-214.797 -85.431)" fill="#ffb44f"/>
      <text id="Mr._Market_Knows_Best" data-name="Mr. Market
Knows Best" transform="translate(31.489 31.769)" fill="#fff" font-size="11" font-family="Raleway-Bold, Raleway" font-weight="700"><tspan x="-27.511" y="0">Mr. Market</tspan><tspan x="-30.706" y="13">Knows Best</tspan></text>
    </g>
    <g id="Group_643" data-name="Group 643" transform="translate(344.511 184.831)">
      <path id="Path_2135-4" data-name="Path 2135" d="M246.057,165.742a45.771,45.771,0,1,1,45.77-45.771A45.824,45.824,0,0,1,246.057,165.742Z" transform="translate(-214.797 -85.431)" fill="#ffb44f"/>
      <text id="Value_at_right_price" data-name="Value at
right price" transform="translate(31.488 31.769)" fill="#fff" font-size="11" font-family="Raleway-Bold, Raleway" font-weight="700"><tspan x="-21.604" y="0">Value at</tspan><tspan x="-27.131" y="13">right price</tspan></text>
    </g>
    <g id="Group_644" data-name="Group 644" transform="translate(67.511 218.831)">
      <path id="Path_2135-5" data-name="Path 2135" d="M246.057,165.742a45.771,45.771,0,1,1,45.77-45.771A45.824,45.824,0,0,1,246.057,165.742Z" transform="translate(-214.797 -85.431)" fill="#ffb44f"/>
      <text id="No_Human_Bias" data-name="No
Human Bias" transform="translate(31.489 31.769)" fill="#fff" font-size="11" font-family="Raleway-Bold, Raleway" font-weight="700"><tspan x="-7.491" y="0">No</tspan><tspan x="-31.449" y="13">Human Bias</tspan></text>
    </g>
    <text id="Roots_in_Knowldge" data-name="Roots in Knowldge" transform="translate(229 433.599)" fill="#825c2e" font-size="11" font-family="Raleway-Bold, Raleway" font-weight="700"><tspan x="-49.329" y="0">Roots in Knowldge</tspan></text>
  </g>
</svg>
