<svg xmlns="http://www.w3.org/2000/svg" width="540" height="94" viewBox="0 0 540 94">
  <g id="upload-selection" transform="translate(0 -87)">
    <rect id="Rectangle_316" data-name="Rectangle 316" width="540" height="94" transform="translate(0 87)" fill="#f8fffd"/>
    <text id="Select_your_prefrence" data-name="Select your prefrence" transform="translate(86 131)" fill="#262626" font-size="20" font-family="Roboto-Bold, Roboto" font-weight="700"><tspan x="0" y="0">Select your prefrence</tspan></text>
    <text id="You_can_add_manual_stock_or_upload_excel_file." data-name="You can add manual stock or upload excel file." transform="translate(86 153)" fill="#262626" font-size="15" font-family="Roboto-Regular, Roboto" opacity="0.4"><tspan x="0" y="0">You can add manual stock or upload excel file.</tspan></text>
    <g id="computer" transform="translate(32.921 113.263)">
      <path id="Path_2041" data-name="Path 2041" d="M121.5,21.911a4.095,4.095,0,1,0-8.19,0,4.052,4.052,0,0,0,1.365,3.056V21.911a2.73,2.73,0,0,1,5.46,0v3.056a4.053,4.053,0,0,0,1.365-3.056Zm0,0" transform="translate(-104.478 -16.438)" fill="#4fcaae"/>
      <path id="Path_2042" data-name="Path 2042" d="M1.326,67.458a1.346,1.346,0,0,0-1.205.672c-.111.267,0,.568.323.892,1.428,1.428,4.207,6.274,5.612,9.784a18.342,18.342,0,0,0,4.083,5.475,4.762,4.762,0,0,1,1.426,3.4v.25a.682.682,0,0,0,.683.683h10.92a.682.682,0,0,0,.683-.683v-2.1a1.992,1.992,0,0,1,.625-1.472c2.07-1.891,2.1-5.271,2.1-5.3v-10.8a1.453,1.453,0,0,0-1.265-1.477,1.381,1.381,0,0,0-1.065.4,1.354,1.354,0,0,0-.4.964v1.365a.683.683,0,1,1-1.365,0V64.728a1.365,1.365,0,1,0-2.73,0v4.095a.683.683,0,1,1-1.365,0V62.681a1.365,1.365,0,0,0-2.73,0v6.142a.682.682,0,1,1-1.365,0V54.49a1.365,1.365,0,1,0-2.73,0v15.7a8.882,8.882,0,0,1-.4,2.817,2.056,2.056,0,0,1-1.454,1.346,2.02,2.02,0,0,1-1.882-.491,11.085,11.085,0,0,1-1.613-1.928c-1.45-2.174-3.965-4.474-4.892-4.474ZM23.849,73.6a.682.682,0,1,1,1.365,0v4.1a.682.682,0,0,1-1.365,0Zm-.483,7.708a1.5,1.5,0,0,0,.483-.9.687.687,0,0,1,.7-.657.674.674,0,0,1,.666.673,2.769,2.769,0,0,1-.882,1.847.682.682,0,0,1-.965-.965Zm-6.343,4.578H21.8a.683.683,0,0,1,0,1.365H17.024a.683.683,0,0,1,0-1.365Zm-3.412,0h.683a.683.683,0,0,1,0,1.365h-.683a.683.683,0,0,1,0-1.365Zm0,0" transform="translate(0 -49.017)" fill="#4fcaae"/>
      <path id="Path_2043" data-name="Path 2043" d="M63.184.321a.683.683,0,0,0-.96.092,8.174,8.174,0,0,0,.356,10.825.683.683,0,1,0,1-.935,6.808,6.808,0,0,1-.3-9.021.683.683,0,0,0-.092-.961Zm0,0" transform="translate(-55.608 -0.151)" fill="#4fcaae"/>
      <path id="Path_2044" data-name="Path 2044" d="M233.444,9.493a.683.683,0,0,0,.919-.3,8.162,8.162,0,0,0-.975-8.936.683.683,0,1,0-1.052.869,6.8,6.8,0,0,1,.813,7.444.682.682,0,0,0,.3.919Zm0,0" transform="translate(-214.146 0)" fill="#4fcaae"/>
    </g>
  </g>
</svg>
