<svg xmlns="http://www.w3.org/2000/svg" width="34" height="34" viewBox="0 0 34 34">
  <g id="user" transform="translate(-6000 -8307)">
    <rect id="Rectangle_344" data-name="Rectangle 344" width="34" height="34" rx="17" transform="translate(6000 8307)" fill="#d9fff2"/>
    <g id="user_6_" data-name="user (6)" transform="translate(6010.034 8315.438)">
      <path id="Path_2156" data-name="Path 2156" d="M91.121,8.179a3.957,3.957,0,0,0,2.892-1.2,3.957,3.957,0,0,0,1.2-2.892,3.958,3.958,0,0,0-1.2-2.892,4.089,4.089,0,0,0-5.783,0,3.957,3.957,0,0,0-1.2,2.891,3.957,3.957,0,0,0,1.2,2.892A3.958,3.958,0,0,0,91.121,8.179Zm0,0" transform="translate(-84.146)" fill="#1bb884"/>
      <path id="Path_2157" data-name="Path 2157" d="M14.132,252.171a10.1,10.1,0,0,0-.138-1.073,8.454,8.454,0,0,0-.264-1.079,5.328,5.328,0,0,0-.443-1.006,3.8,3.8,0,0,0-.669-.871,2.949,2.949,0,0,0-.961-.6,3.319,3.319,0,0,0-1.226-.222,1.245,1.245,0,0,0-.665.282c-.2.13-.432.28-.692.446a3.969,3.969,0,0,1-.9.395,3.479,3.479,0,0,1-2.192,0,3.958,3.958,0,0,1-.9-.395c-.258-.165-.491-.315-.693-.447a1.243,1.243,0,0,0-.664-.282,3.315,3.315,0,0,0-1.226.222,2.946,2.946,0,0,0-.961.6,3.8,3.8,0,0,0-.668.871,5.338,5.338,0,0,0-.443,1.006A8.474,8.474,0,0,0,.171,251.1a10.068,10.068,0,0,0-.138,1.073c-.023.325-.034.662-.034,1a2.82,2.82,0,0,0,.837,2.133A3.015,3.015,0,0,0,3,256.094h8.176a3.014,3.014,0,0,0,2.158-.787,2.818,2.818,0,0,0,.838-2.133c0-.342-.012-.68-.034-1Zm0,0" transform="translate(0 -239.114)" fill="#1bb884"/>
    </g>
  </g>
</svg>
