<svg xmlns="http://www.w3.org/2000/svg" width="20" height="18.847" viewBox="0 0 20 18.847">
  <g id="warning" transform="translate(0 -14.759)">
    <g id="Group_606" data-name="Group 606" transform="translate(0 14.759)">
      <path id="Path_2035" data-name="Path 2035" d="M19.585,29.18,12.52,16.193a2.93,2.93,0,0,0-5.039,0L.416,29.18a2.928,2.928,0,0,0,2.519,4.425h14.13A2.929,2.929,0,0,0,19.585,29.18ZM10,31.262a1.172,1.172,0,1,1,1.172-1.172A1.173,1.173,0,0,1,10,31.262Zm1.172-4.688a1.172,1.172,0,1,1-2.344,0V20.715a1.172,1.172,0,0,1,2.344,0Z" transform="translate(0 -14.759)" fill="#ff2525"/>
    </g>
  </g>
</svg>
