<svg xmlns="http://www.w3.org/2000/svg" xmlns:xlink="http://www.w3.org/1999/xlink" width="30" height="30" viewBox="0 0 30 30">
  <defs>
    <clipPath id="clip-path">
      <rect id="Rectangle_351" data-name="Rectangle 351" width="30" height="30" transform="translate(57 612)" fill="#ff3a3a" stroke="#707070" stroke-width="1"/>
    </clipPath>
  </defs>
  <g id="wrong" transform="translate(-57 -612)" clip-path="url(#clip-path)">
    <g id="stop" transform="translate(57 612)">
      <path id="Path_2032" data-name="Path 2032" d="M19.768,10.531h-.631v1.307h.631a.654.654,0,1,0,0-1.307Z" transform="translate(4.784 2.633)" fill="#ff3a3a"/>
      <path id="Path_2033" data-name="Path 2033" d="M14.362,10.531A1.836,1.836,0,1,0,16.2,12.367a1.838,1.838,0,0,0-1.836-1.836Z" transform="translate(3.131 2.633)" fill="#ff3a3a"/>
      <path id="Path_2034" data-name="Path 2034" d="M21.213,0H8.787L0,8.787V21.213L8.787,30H21.213L30,21.213V8.787ZM8.126,16.741a2.435,2.435,0,0,1-2.484,1.911A3.424,3.424,0,0,1,3.1,17.558l1.3-1.18a1.688,1.688,0,0,0,1.241.516.722.722,0,0,0,.752-.454c.014-.081.051-.3-.421-.473a5.98,5.98,0,0,0-.751-.224,3.18,3.18,0,0,1-1.078-.425,2.114,2.114,0,0,1-.93-1.808,2.229,2.229,0,0,1,1.481-1.991,3.451,3.451,0,0,1,3.351.852L7,13.783c-1.037-.77-1.354-.741-1.688-.616a.481.481,0,0,0-.338.382.368.368,0,0,0,.131.3,1.538,1.538,0,0,0,.538.191,7.668,7.668,0,0,1,.951.286,2.175,2.175,0,0,1,1.535,2.419Zm5.439-3.577H12.06v5.43H10.3v-5.43H8.808V11.406h4.757v1.758Zm3.928,5.43A3.594,3.594,0,1,1,21.087,15,3.6,3.6,0,0,1,17.493,18.594Zm7.06-2.365H23.92v2.365H22.162V11.406h2.391a2.412,2.412,0,1,1,0,4.823Z" transform="translate(0)" fill="#ff3a3a"/>
    </g>
  </g>
</svg>
